<svg width="73" height="40" viewBox="0 0 73 40" fill="none" xmlns="http://www.w3.org/2000/svg">
<path d="M0.5 34.0369C0.5 37.3798 4.57776 39.9999 9.5617 39.9999V6.8418L0.5 9.28122V34.0369Z" fill="#851A1A"/>
<path d="M72.5 0H15.7625C7.37394 0 0.5 3.52476 0.5 6.40865V31C0.5 28.036 7.37394 25.7129 15.7625 25.7129H72.5V0Z" fill="#B92C2C"/>
<path d="M11.248 17V8.86H15.01C15.538 8.86 15.9817 8.95167 16.341 9.135C16.7077 9.31833 16.9863 9.564 17.177 9.872C17.3677 10.1727 17.463 10.5063 17.463 10.873C17.463 11.2323 17.397 11.533 17.265 11.775C17.133 12.0097 16.9717 12.2003 16.781 12.347C16.5977 12.4863 16.418 12.5817 16.242 12.633V12.721C16.44 12.765 16.66 12.8603 16.902 13.007C17.144 13.1537 17.353 13.3627 17.529 13.634C17.705 13.9053 17.793 14.2573 17.793 14.69C17.793 15.0713 17.7013 15.438 17.518 15.79C17.342 16.142 17.0523 16.4317 16.649 16.659C16.253 16.8863 15.736 17 15.098 17H11.248ZM14.724 10.279H12.942V12.171H14.724C15.1053 12.171 15.384 12.0793 15.56 11.896C15.736 11.7127 15.824 11.489 15.824 11.225C15.824 10.9683 15.736 10.7483 15.56 10.565C15.384 10.3743 15.1053 10.279 14.724 10.279ZM14.856 13.469H12.942V15.581H14.856C15.2887 15.581 15.6003 15.4783 15.791 15.273C15.989 15.0603 16.088 14.8073 16.088 14.514C16.088 14.228 15.989 13.9823 15.791 13.777C15.6003 13.5717 15.2887 13.469 14.856 13.469ZM21.8408 17.11C21.3275 17.11 20.8838 17.0257 20.5098 16.857C20.1358 16.681 19.8278 16.45 19.5858 16.164C19.3438 15.8707 19.1605 15.5443 19.0358 15.185C18.9185 14.8257 18.8598 14.4553 18.8598 14.074C18.8598 13.7073 18.9148 13.348 19.0248 12.996C19.1422 12.6367 19.3182 12.3103 19.5528 12.017C19.7948 11.7237 20.0992 11.4927 20.4658 11.324C20.8398 11.148 21.2798 11.06 21.7858 11.06C22.3212 11.06 22.7942 11.1773 23.2048 11.412C23.6228 11.6467 23.9492 11.995 24.1838 12.457C24.4185 12.9117 24.5358 13.4653 24.5358 14.118V14.525H20.5428C20.5648 14.877 20.6858 15.1813 20.9058 15.438C21.1332 15.6947 21.4448 15.823 21.8408 15.823C22.0682 15.823 22.2515 15.79 22.3908 15.724C22.5375 15.6507 22.6512 15.57 22.7318 15.482C22.8125 15.3867 22.8675 15.3023 22.8968 15.229C22.9262 15.1557 22.9408 15.119 22.9408 15.119H24.4808C24.4808 15.119 24.4625 15.1887 24.4258 15.328C24.3965 15.46 24.3305 15.625 24.2278 15.823C24.1252 16.021 23.9748 16.219 23.7768 16.417C23.5862 16.615 23.3332 16.78 23.0178 16.912C22.7025 17.044 22.3102 17.11 21.8408 17.11ZM20.5428 13.513H22.9298C22.9078 13.1097 22.7868 12.809 22.5668 12.611C22.3468 12.413 22.0755 12.314 21.7528 12.314C21.4302 12.314 21.1552 12.4203 20.9278 12.633C20.7005 12.8383 20.5722 13.1317 20.5428 13.513ZM28.1896 17.11C27.7056 17.11 27.306 17.044 26.9906 16.912C26.6753 16.78 26.4223 16.6187 26.2316 16.428C26.0483 16.23 25.909 16.0357 25.8136 15.845C25.7256 15.647 25.667 15.482 25.6376 15.35C25.6156 15.218 25.6046 15.152 25.6046 15.152H27.1556C27.1556 15.152 27.1666 15.1887 27.1886 15.262C27.2106 15.3353 27.2583 15.4197 27.3316 15.515C27.4123 15.6103 27.526 15.6947 27.6726 15.768C27.8193 15.8413 28.0173 15.878 28.2666 15.878C28.5746 15.878 28.7836 15.8157 28.8936 15.691C29.011 15.5663 29.0696 15.4417 29.0696 15.317C29.0696 15.053 28.8533 14.877 28.4206 14.789L27.6286 14.635C27.2913 14.569 26.9723 14.4737 26.6716 14.349C26.3783 14.217 26.14 14.0373 25.9566 13.81C25.7806 13.5753 25.6926 13.2747 25.6926 12.908C25.6926 12.556 25.7843 12.2407 25.9676 11.962C26.151 11.6833 26.4113 11.4633 26.7486 11.302C27.0933 11.1407 27.504 11.06 27.9806 11.06C28.428 11.06 28.7983 11.1223 29.0916 11.247C29.3923 11.3643 29.6306 11.5147 29.8066 11.698C29.9826 11.874 30.1146 12.0537 30.2026 12.237C30.2906 12.413 30.3456 12.5633 30.3676 12.688C30.397 12.8053 30.4116 12.864 30.4116 12.864H28.9156C28.9156 12.864 28.8936 12.8163 28.8496 12.721C28.8056 12.6183 28.714 12.5193 28.5746 12.424C28.4426 12.3213 28.2373 12.27 27.9586 12.27C27.6726 12.27 27.4746 12.3287 27.3646 12.446C27.2546 12.556 27.1996 12.6733 27.1996 12.798C27.1996 12.9447 27.262 13.0547 27.3866 13.128C27.5186 13.2013 27.6873 13.26 27.8926 13.304L28.6516 13.458C29.209 13.568 29.6673 13.7623 30.0266 14.041C30.386 14.3123 30.5656 14.7083 30.5656 15.229C30.5656 15.581 30.474 15.9 30.2906 16.186C30.1073 16.472 29.8396 16.6993 29.4876 16.868C29.1356 17.0293 28.703 17.11 28.1896 17.11ZM34.2544 17.11C33.7997 17.11 33.4367 17.044 33.1654 16.912C32.8941 16.7727 32.6887 16.6003 32.5494 16.395C32.4101 16.1823 32.3184 15.9587 32.2744 15.724C32.2304 15.4893 32.2084 15.273 32.2084 15.075V12.501H31.2184V11.17H32.2084V9.729H33.8804V11.17H35.1234V12.501H33.8804V15.031C33.8804 15.273 33.9427 15.46 34.0674 15.592C34.1994 15.724 34.4157 15.79 34.7164 15.79C34.8484 15.79 34.9694 15.779 35.0794 15.757C35.1894 15.735 35.2444 15.724 35.2444 15.724V17.011C35.2444 17.011 35.1454 17.0257 34.9474 17.055C34.7494 17.0917 34.5184 17.11 34.2544 17.11ZM42.8118 17.11C42.1371 17.11 41.5431 16.9927 41.0298 16.758C40.5165 16.516 40.0838 16.197 39.7318 15.801C39.3871 15.3977 39.1268 14.9467 38.9508 14.448C38.7821 13.9493 38.6978 13.4397 38.6978 12.919C38.6978 12.3983 38.7821 11.8923 38.9508 11.401C39.1268 10.9023 39.3871 10.455 39.7318 10.059C40.0838 9.663 40.5165 9.34767 41.0298 9.113C41.5431 8.871 42.1371 8.75 42.8118 8.75C43.4938 8.75 44.0915 8.871 44.6048 9.113C45.1181 9.34767 45.5471 9.663 45.8918 10.059C46.2365 10.455 46.4931 10.9023 46.6618 11.401C46.8378 11.8923 46.9258 12.3983 46.9258 12.919C46.9258 13.4397 46.8378 13.9493 46.6618 14.448C46.4931 14.9467 46.2365 15.3977 45.8918 15.801C45.5471 16.197 45.1181 16.516 44.6048 16.758C44.0915 16.9927 43.4938 17.11 42.8118 17.11ZM42.8118 15.581C43.3251 15.581 43.7578 15.4527 44.1098 15.196C44.4618 14.9393 44.7258 14.6093 44.9018 14.206C45.0778 13.7953 45.1658 13.3663 45.1658 12.919C45.1658 12.4717 45.0778 12.0463 44.9018 11.643C44.7258 11.2397 44.4618 10.9097 44.1098 10.653C43.7578 10.3963 43.3251 10.268 42.8118 10.268C42.2985 10.268 41.8658 10.3963 41.5138 10.653C41.1691 10.9097 40.9088 11.2397 40.7328 11.643C40.5568 12.0463 40.4688 12.4717 40.4688 12.919C40.4688 13.3663 40.5568 13.7953 40.7328 14.206C40.9088 14.6093 41.1691 14.9393 41.5138 15.196C41.8658 15.4527 42.2985 15.581 42.8118 15.581ZM48.6872 17V12.501H47.7632V11.17H48.6872V10.708C48.6872 10.4953 48.7165 10.2643 48.7752 10.015C48.8339 9.76567 48.9365 9.52733 49.0832 9.3C49.2372 9.07267 49.4499 8.88933 49.7212 8.75C49.9925 8.60333 50.3409 8.53 50.7662 8.53C51.0009 8.53 51.1915 8.54833 51.3382 8.585C51.4922 8.61433 51.5692 8.629 51.5692 8.629V9.806C51.5692 9.806 51.5252 9.79867 51.4372 9.784C51.3492 9.76933 51.2575 9.762 51.1622 9.762C50.8615 9.762 50.6525 9.85 50.5352 10.026C50.4179 10.202 50.3592 10.4293 50.3592 10.708V11.17H52.8342V10.708C52.8342 10.4953 52.8635 10.2643 52.9222 10.015C52.9809 9.76567 53.0835 9.52733 53.2302 9.3C53.3842 9.07267 53.5969 8.88933 53.8682 8.75C54.1395 8.60333 54.4879 8.53 54.9132 8.53C55.1479 8.53 55.3385 8.54833 55.4852 8.585C55.6392 8.61433 55.7162 8.629 55.7162 8.629V9.806C55.7162 9.806 55.6722 9.79867 55.5842 9.784C55.4962 9.76933 55.4045 9.762 55.3092 9.762C55.0012 9.762 54.7885 9.85 54.6712 10.026C54.5612 10.202 54.5062 10.4293 54.5062 10.708V11.17H55.6832V12.501H54.5062V17H52.8342V12.501H50.3592V17H48.6872ZM59.3633 17.11C58.85 17.11 58.4063 17.0257 58.0323 16.857C57.6583 16.681 57.3503 16.45 57.1083 16.164C56.8663 15.8707 56.683 15.5443 56.5583 15.185C56.441 14.8257 56.3823 14.4553 56.3823 14.074C56.3823 13.7073 56.4373 13.348 56.5473 12.996C56.6646 12.6367 56.8406 12.3103 57.0753 12.017C57.3173 11.7237 57.6216 11.4927 57.9883 11.324C58.3623 11.148 58.8023 11.06 59.3083 11.06C59.8436 11.06 60.3166 11.1773 60.7273 11.412C61.1453 11.6467 61.4716 11.995 61.7063 12.457C61.941 12.9117 62.0583 13.4653 62.0583 14.118V14.525H58.0653C58.0873 14.877 58.2083 15.1813 58.4283 15.438C58.6556 15.6947 58.9673 15.823 59.3633 15.823C59.5906 15.823 59.774 15.79 59.9133 15.724C60.06 15.6507 60.1736 15.57 60.2543 15.482C60.335 15.3867 60.39 15.3023 60.4193 15.229C60.4486 15.1557 60.4633 15.119 60.4633 15.119H62.0033C62.0033 15.119 61.985 15.1887 61.9483 15.328C61.919 15.46 61.853 15.625 61.7503 15.823C61.6476 16.021 61.4973 16.219 61.2993 16.417C61.1086 16.615 60.8556 16.78 60.5403 16.912C60.225 17.044 59.8326 17.11 59.3633 17.11ZM58.0653 13.513H60.4523C60.4303 13.1097 60.3093 12.809 60.0893 12.611C59.8693 12.413 59.598 12.314 59.2753 12.314C58.9526 12.314 58.6776 12.4203 58.4503 12.633C58.223 12.8383 58.0946 13.1317 58.0653 13.513ZM63.2591 17V11.17H64.9201V12.017H64.9751C65.0411 11.863 65.1328 11.7127 65.2501 11.566C65.3674 11.4193 65.5288 11.2983 65.7341 11.203C65.9394 11.1077 66.2034 11.06 66.5261 11.06C66.6874 11.06 66.8158 11.071 66.9111 11.093C67.0064 11.1077 67.0541 11.115 67.0541 11.115V12.765C67.0541 12.765 66.9991 12.754 66.8891 12.732C66.7864 12.71 66.6508 12.699 66.4821 12.699C65.9614 12.699 65.5728 12.842 65.3161 13.128C65.0594 13.4067 64.9311 13.865 64.9311 14.503V17H63.2591Z" fill="white"/>
</svg>
