<svg width="12" height="13" viewBox="0 0 12 13" fill="none" xmlns="http://www.w3.org/2000/svg">
<g id="mingcute:bling-fill" clip-path="url(#clip0_1704_12400)">
<g id="Group">
<path id="Vector" d="M5.03869 1.99213C5.2077 1.61213 5.7282 1.59363 5.9322 1.93513L5.9617 1.99213L6.4827 3.16463C6.93763 4.18809 7.69419 5.04826 8.6512 5.63013L8.8122 5.72463L9.7372 6.24463C9.81073 6.2858 9.87279 6.34472 9.91773 6.41601C9.96267 6.48731 9.98904 6.56871 9.99446 6.65281C9.99988 6.73691 9.98416 6.82103 9.94875 6.89751C9.91333 6.97398 9.85934 7.04037 9.79169 7.09063L9.73769 7.12563L8.8122 7.64563C7.83589 8.19481 7.05054 9.029 6.56119 10.0366L6.4827 10.2056L5.9617 11.3781C5.7927 11.7581 5.27219 11.7766 5.06819 11.4351L5.03869 11.3781L4.51769 10.2056C4.06276 9.18217 3.3062 8.322 2.34919 7.74013L2.18819 7.64563L1.26319 7.12563C1.18966 7.08446 1.1276 7.02555 1.08266 6.95425C1.03772 6.88296 1.01135 6.80155 1.00593 6.71745C1.00051 6.63335 1.01623 6.54923 1.05164 6.47276C1.08706 6.39629 1.14105 6.32989 1.20869 6.27963L1.26269 6.24463L2.18819 5.72463C3.1645 5.17546 3.94985 4.34126 4.43919 3.33363L4.51769 3.16463L5.03869 1.99213ZM9.61069 1.74563C9.85889 2.30943 10.2821 2.77826 10.8177 3.08263C10.8977 3.12763 10.8977 3.24263 10.8177 3.28763C10.2819 3.59205 9.85843 4.06107 9.61019 4.62513C9.6007 4.64637 9.58526 4.6644 9.56574 4.67705C9.54622 4.6897 9.52346 4.69644 9.50019 4.69644C9.47693 4.69644 9.45417 4.6897 9.43465 4.67705C9.41513 4.6644 9.39969 4.64637 9.39019 4.62513C9.14187 4.06126 8.71845 3.59242 8.18269 3.28813C8.16461 3.27782 8.14958 3.2629 8.13912 3.2449C8.12866 3.2269 8.12316 3.20645 8.12316 3.18563C8.12316 3.16481 8.12866 3.14437 8.13912 3.12636C8.14958 3.10836 8.16461 3.09345 8.18269 3.08313C8.71861 2.77859 9.14205 2.30938 9.39019 1.74513C9.39969 1.7239 9.41513 1.70587 9.43465 1.69321C9.45417 1.68056 9.47693 1.67383 9.50019 1.67383C9.52346 1.67383 9.54622 1.68056 9.56574 1.69321C9.58526 1.70587 9.6012 1.7244 9.61069 1.74563Z" fill="#D253FF"/>
</g>
</g>
<defs>
<clipPath id="clip0_1704_12400">
<rect width="12" height="12" fill="white" transform="translate(0 0.685547)"/>
</clipPath>
</defs>
</svg>
