<svg width="168" height="116" viewBox="0 0 168 116" fill="none" xmlns="http://www.w3.org/2000/svg">
<g id="time managment bw">
<g id="backfround">
<path id="Path" d="M7.37803 86.7539C7.69608 87.6963 7.35447 88.6387 7.21311 89.5693C7.09532 90.3585 7.18955 91.0535 7.6254 91.7367C7.86099 92.1019 8.19082 92.4788 8.28506 92.9147C8.40285 93.4565 8.00235 93.8335 7.82565 94.3047C7.64896 94.7758 7.76675 95.4473 8.35574 95.5297C8.33218 95.4355 8.30862 95.3295 8.27328 95.2353C8.00235 95.5297 7.91989 95.9656 8.16726 96.3072C8.35574 96.5664 8.75624 96.5899 8.86226 96.9315C8.96828 97.2731 8.79158 97.709 8.73268 98.0388C8.50887 99.417 9.34522 100.619 10.3347 101.478C11.4891 102.492 12.7613 103.316 13.7979 104.459C14.8816 105.648 15.7769 107.015 16.4483 108.476C16.5426 108.676 16.8488 108.499 16.7546 108.299C15.6238 105.86 13.9157 103.787 11.7718 102.162C10.5821 101.266 9.09785 100.206 9.03895 98.5571C9.02717 98.027 9.28633 97.4969 9.21565 96.9669C9.19209 96.8019 9.14497 96.637 9.02717 96.5075C8.76802 96.2012 8.00235 96.0127 8.50887 95.4708C8.59133 95.3884 8.56777 95.1999 8.42641 95.1764C7.6254 95.0586 8.35574 94.0455 8.48531 93.7275C8.59133 93.4919 8.65023 93.2563 8.62667 92.9971C8.56777 92.3257 8.02591 91.8192 7.73142 91.242C6.97752 89.7813 8.21438 88.1557 7.69608 86.6361C7.64896 86.4477 7.30735 86.5419 7.37803 86.7539Z" fill="#E8E8E8"/>
<path id="Path_2" d="M7.62553 87.0955C15.7417 90.6883 17.7325 100.218 19.146 108.063C19.1813 108.287 19.523 108.193 19.4876 107.969C18.3214 101.455 16.9668 94.4343 12.0076 89.6399C10.7825 88.4502 9.36892 87.4725 7.80223 86.7893C7.60198 86.695 7.4135 87.0013 7.62553 87.0955Z" fill="#E8E8E8"/>
<path id="Path_3" d="M8.21446 87.92C12.5494 93.4211 15.6356 99.8646 17.2141 106.685C17.2612 106.909 17.6028 106.815 17.5557 106.591C15.9655 99.6997 12.8439 93.2209 8.47361 87.6609C8.32048 87.4842 8.07311 87.7434 8.21446 87.92Z" fill="#E8E8E8"/>
<path id="Path_4" d="M9.16858 93.8216C11.7248 94.9878 13.7744 97.0375 14.9524 99.5936C15.0466 99.8057 15.3529 99.6172 15.2586 99.4169C14.0689 96.8136 11.9603 94.7051 9.35705 93.5154C9.13324 93.4211 8.95655 93.7274 9.16858 93.8216Z" fill="#E8E8E8"/>
<path id="Path_5" d="M17.9677 100.277C17.1902 96.9197 19.8524 94.2104 21.5015 91.6189C22.3026 90.3584 22.974 89.0038 23.4805 87.602C23.7279 86.9188 23.9046 86.212 24.1166 85.517C24.3169 84.8573 24.5878 84.1152 25.3064 83.915C25.2357 83.8914 25.1768 83.8561 25.1061 83.8325C25.377 84.3626 25.5184 84.9398 25.4595 85.5406C25.4242 85.9175 25.1414 86.3298 25.1768 86.6832C25.2003 86.8952 25.3888 87.2251 25.4595 87.4371C25.5419 87.708 25.6008 87.9789 25.6362 88.2499C25.6833 88.5797 25.7069 88.9095 25.7069 89.2394C25.7069 89.4867 25.542 90.1582 25.6244 90.3467C25.5302 90.1464 25.271 90.2995 25.3064 90.488C25.6362 92.4905 26.1074 94.5284 26.2252 96.5427C26.343 98.5688 25.5302 100.289 24.5053 101.985C22.6913 104.989 20.7594 108.193 21.1246 111.856C21.1482 112.08 21.5015 112.08 21.478 111.856C21.0775 107.839 23.4805 104.612 25.3299 101.29C26.2016 99.7232 26.7081 98.1212 26.5668 96.3189C26.4136 94.3399 25.966 92.361 25.648 90.3938C25.5419 90.4409 25.4359 90.488 25.3299 90.5351C25.3417 90.5587 25.3535 90.5822 25.3653 90.6058C25.3888 90.6647 25.4595 90.6883 25.5184 90.6883C25.9542 90.7 26.0014 90.2053 26.0367 89.8755C26.1309 89.0627 26.0603 88.2381 25.8482 87.4606C25.7658 87.1662 25.5655 86.8363 25.6008 86.5301C25.6362 86.2473 25.7893 85.9529 25.8247 85.6466C25.9071 84.9516 25.754 84.2801 25.4359 83.6676C25.4006 83.5969 25.3064 83.5616 25.2357 83.5851C24.0224 83.9385 23.8339 85.3757 23.5276 86.4123C22.9976 88.191 22.2201 89.8872 21.2188 91.4539C19.499 94.1515 16.8368 96.8961 17.6496 100.383C17.6849 100.595 18.0266 100.501 17.9677 100.277Z" fill="#E8E8E8"/>
<path id="Path_6" d="M24.5172 86.7892C24.317 90.3466 22.8799 93.6332 21.7137 96.9432C20.5357 100.3 19.7936 103.764 19.5345 107.309C19.5227 107.533 19.8761 107.533 19.8879 107.309C20.1588 103.646 20.9716 100.088 22.1967 96.637C23.3393 93.4211 24.6704 90.2288 24.8706 86.7892C24.8824 86.5654 24.529 86.5654 24.5172 86.7892Z" fill="#E8E8E8"/>
<path id="Path_7" d="M19.5226 94.8817C19.6875 96.4956 20.1234 98.0505 20.8419 99.5111C20.9479 99.7114 21.2424 99.5347 21.1482 99.3344C20.465 97.9327 20.0291 96.4367 19.876 94.8935C19.8524 94.6579 19.4991 94.6579 19.5226 94.8817Z" fill="#E8E8E8"/>
<path id="Path_8" d="M22.2907 96.5663C23.5158 95.8242 24.5524 94.8583 25.377 93.6921C25.5065 93.5036 25.2003 93.3269 25.0707 93.5154C24.2815 94.6345 23.2802 95.5533 22.1022 96.26C21.9138 96.3778 22.0904 96.6841 22.2907 96.5663Z" fill="#E8E8E8"/>
<path id="Path_9" d="M16.0005 107.533C16.7544 108.935 17.2256 110.443 17.4023 112.021C17.4258 112.245 17.7792 112.245 17.7557 112.021C17.5672 110.384 17.0842 108.817 16.3068 107.356C16.2007 107.156 15.8945 107.333 16.0005 107.533Z" fill="#E8E8E8"/>
<path id="Path_10" d="M18.9571 107.309C19.2516 108.758 19.4165 110.231 19.4401 111.715C19.4401 111.939 19.7934 111.939 19.7934 111.715C19.7699 110.195 19.605 108.699 19.2987 107.215C19.2516 106.991 18.91 107.086 18.9571 107.309Z" fill="#E8E8E8"/>
<path id="Path_11" d="M137.295 97.3436C137.154 97.8148 136.93 98.3213 136.86 98.816C136.824 99.0163 136.812 99.2048 136.942 99.3697C137.107 99.5699 137.39 99.5935 137.625 99.6288C138.155 99.7231 138.685 99.8055 139.215 99.8762C141.124 100.135 143.056 100.241 144.976 100.277C146.966 100.312 148.957 100.253 150.96 100.182C151.478 100.159 152.067 100.218 152.562 100.124C152.703 100.1 152.856 100.1 152.951 99.9704C153.163 99.6995 152.868 99.4639 152.597 99.6053C152.538 99.6406 152.491 99.7348 152.515 99.8055C152.526 99.8173 152.526 99.8409 152.538 99.8526C152.621 100.065 152.962 99.9704 152.88 99.7584C152.868 99.7466 152.868 99.7231 152.856 99.7113C152.833 99.782 152.797 99.8409 152.774 99.9115C152.703 99.8644 152.632 99.8173 152.562 99.7702C152.444 99.7702 152.338 99.782 152.22 99.782C152.032 99.7937 151.843 99.7937 151.643 99.8055C151.301 99.8173 150.948 99.8291 150.606 99.8409C149.911 99.8644 149.228 99.888 148.533 99.8998C147.072 99.9351 145.624 99.9469 144.163 99.8998C142.749 99.8644 141.336 99.7702 139.934 99.6053C139.192 99.5228 138.45 99.4168 137.708 99.2872C137.225 99.2048 137.166 98.9927 137.295 98.5333C137.401 98.1682 137.519 97.7912 137.625 97.426C137.696 97.214 137.354 97.1198 137.295 97.3436Z" fill="#E8E8E8"/>
<path id="Path_12" d="M137.625 97.5322C137.813 96.955 139.109 97.0964 139.569 97.0846C140.216 97.061 140.876 97.0375 141.524 97.0257C142.902 97.0021 144.28 97.0021 145.67 97.0492C147.013 97.0846 148.356 97.1553 149.687 97.2613C150.323 97.3084 151.018 97.2966 151.631 97.438C152.267 97.5911 152.267 97.8974 152.361 98.4039C152.432 98.7691 152.503 99.1342 152.573 99.4994C152.62 99.7232 152.962 99.629 152.915 99.4052C152.832 98.9693 152.738 98.5217 152.656 98.0859C152.609 97.8267 152.573 97.5322 152.373 97.332C151.996 96.955 151.183 97.0492 150.7 97.0021C148.981 96.849 147.261 96.743 145.529 96.6959C143.845 96.6487 142.148 96.6487 140.464 96.7076C139.722 96.7312 138.956 96.7194 138.214 96.8137C137.79 96.8725 137.401 97.0139 137.26 97.4498C137.213 97.6618 137.554 97.7442 137.625 97.5322Z" fill="#E8E8E8"/>
<path id="Path_13" d="M137.967 99.4876C138.485 102.338 138.85 105.212 139.074 108.098C139.086 108.205 139.145 108.263 139.251 108.275C142.714 108.593 146.189 108.676 149.652 108.523C149.876 108.511 149.876 108.157 149.652 108.169C146.177 108.322 142.702 108.24 139.251 107.922C139.31 107.981 139.369 108.04 139.428 108.098C139.204 105.177 138.839 102.279 138.308 99.3934C138.261 99.1695 137.92 99.2638 137.967 99.4876Z" fill="#E8E8E8"/>
<path id="Path_14" d="M151.572 100.194C151.101 102.88 150.524 105.554 149.829 108.193C149.77 108.417 150.112 108.511 150.171 108.287C150.854 105.648 151.443 102.974 151.914 100.289C151.949 100.065 151.608 99.9706 151.572 100.194Z" fill="#E8E8E8"/>
<path id="Path_15" d="M130.027 78.2962C130.805 80.4047 131.37 82.5722 131.735 84.7749C131.747 84.8338 131.806 84.881 131.853 84.8927C132.23 84.9988 132.607 85.1048 132.972 85.2108C132.937 85.1401 132.89 85.0694 132.854 84.9988C132.642 85.9647 132.548 87.0131 133.455 87.6256C133.75 87.8259 134.056 87.9437 134.126 88.3324C134.174 88.6151 134.15 88.8978 134.209 89.1805C134.327 89.7813 134.574 90.3585 134.927 90.8532C135.717 91.9487 136.954 92.4199 138.061 93.1149C139.286 93.8924 140.24 95.0114 140.876 96.3072C140.97 96.5074 141.277 96.3308 141.182 96.1305C140.664 95.0703 139.934 94.1162 139.015 93.3741C138.002 92.5495 136.694 92.1254 135.74 91.242C135.234 90.7826 134.869 90.17 134.657 89.5221C134.551 89.1923 134.492 88.8507 134.48 88.5091C134.468 88.3206 134.503 88.1675 134.421 88.0026C134.221 87.5549 133.643 87.4254 133.337 87.072C132.878 86.5419 133.055 85.7173 133.184 85.093C133.208 84.9988 133.161 84.9045 133.066 84.881C132.831 84.8103 132.36 84.7749 132.171 84.6336C131.935 84.4569 131.947 83.9857 131.9 83.703C131.782 83.0787 131.641 82.4661 131.488 81.8418C131.182 80.605 130.805 79.4034 130.369 78.2137C130.298 77.9899 129.956 78.0841 130.027 78.2962Z" fill="#E8E8E8"/>
<path id="Path_16" d="M130.404 78.3077C134.457 79.4975 137.932 82.2657 140.005 85.9409C140.111 86.1412 140.417 85.9645 140.311 85.7642C138.202 82.0065 134.645 79.1794 130.499 77.9661C130.275 77.8954 130.181 78.237 130.404 78.3077Z" fill="#E8E8E8"/>
<path id="Path_17" d="M139.581 85.4345C141.76 88.6739 143.221 92.3374 143.88 96.1893C143.916 96.4131 144.257 96.3189 144.222 96.0951C143.562 92.2196 142.078 88.5208 139.887 85.2578C139.757 85.0693 139.451 85.246 139.581 85.4345Z" fill="#E8E8E8"/>
<path id="Path_18" d="M131.182 79.2973C135.717 83.8913 139.486 89.1804 142.372 94.9524C142.478 95.1526 142.785 94.9759 142.679 94.7757C139.793 88.9801 135.988 83.6675 131.441 79.0499C131.264 78.8968 131.017 79.1441 131.182 79.2973Z" fill="#E8E8E8"/>
<path id="Path_19" d="M132.018 83.4202C135.022 85.2342 137.661 87.5902 139.793 90.3819C139.934 90.5586 140.24 90.3819 140.099 90.2052C137.931 87.3546 135.257 84.9515 132.195 83.1139C132.006 82.9961 131.83 83.3024 132.018 83.4202Z" fill="#E8E8E8"/>
<path id="Path_20" d="M135.01 80.3103C135.776 81.9712 136.259 83.7381 136.471 85.564C136.494 85.7878 136.848 85.7878 136.824 85.564C136.612 83.6792 136.106 81.8652 135.316 80.1336C135.21 79.9215 134.916 80.0982 135.01 80.3103Z" fill="#E8E8E8"/>
<path id="Path_21" d="M143.232 91.5245C142.902 83.6793 150.359 78.6611 153.751 72.359C153.645 72.3237 153.527 72.3001 153.421 72.2648C153.421 73.2543 153.41 74.2438 153.41 75.2333C153.41 75.6927 153.41 76.1521 153.398 76.5997C153.398 77.0709 153.575 78.6729 152.632 78.3784C152.491 78.3313 152.349 78.508 152.432 78.6376C152.927 79.3915 153.044 80.3221 152.726 81.182C152.573 81.5943 152.408 81.7474 152.361 82.195C152.314 82.6898 152.267 83.1963 152.22 83.691C152.126 84.6923 152.02 85.6818 151.925 86.6831C151.831 87.6254 151.843 88.662 151.572 89.5691C151.313 90.4643 150.571 90.9708 149.793 91.4067C149.11 91.8072 148.427 92.1959 147.803 92.6789C146.625 93.6095 145.718 94.917 145.753 96.4602C145.753 96.684 146.106 96.684 146.106 96.4602C146.059 94.4105 147.708 93.0323 149.322 92.0781C149.97 91.6894 150.677 91.3596 151.219 90.8177C151.749 90.2876 151.949 89.6397 152.043 88.9094C152.302 86.8598 152.444 84.7983 152.644 82.7487C152.691 82.2657 152.774 81.9005 152.974 81.4647C153.103 81.1702 153.186 80.8521 153.233 80.5341C153.315 79.792 153.139 79.0734 152.726 78.4491C152.656 78.5316 152.597 78.6258 152.526 78.7083C153.681 79.0852 153.728 77.5421 153.728 76.8235C153.739 75.3039 153.739 73.7844 153.751 72.253C153.751 72.0763 153.504 72.0057 153.421 72.1588C149.994 78.5198 142.513 83.5615 142.855 91.5009C142.879 91.7483 143.232 91.7483 143.232 91.5245Z" fill="#E8E8E8"/>
<path id="Path_22" d="M152.75 75.5396C150.96 78.5552 149.169 81.5708 147.614 84.7159C146.86 86.2355 146.177 87.7786 145.564 89.3571C144.964 90.9356 144.493 92.573 144.587 94.2692C144.599 94.493 144.952 94.493 144.94 94.2692C144.834 92.5258 145.352 90.8531 145.977 89.2393C146.601 87.6255 147.32 86.0353 148.097 84.4921C149.605 81.4883 151.325 78.5905 153.033 75.7045C153.174 75.5161 152.868 75.3394 152.75 75.5396Z" fill="#E8E8E8"/>
<path id="Path_23" d="M145.836 84.2684C145.553 85.5052 145.494 86.7539 145.671 88.0025C145.706 88.2263 146.048 88.1321 146.012 87.9083C145.848 86.7185 145.906 85.5288 146.177 84.3626C146.224 84.1388 145.883 84.0445 145.836 84.2684Z" fill="#E8E8E8"/>
<path id="Path_24" d="M149.31 78.2254C149.134 79.2384 149.157 80.2515 149.381 81.2527C149.428 81.4766 149.77 81.3823 149.723 81.1585C149.511 80.2161 149.487 79.2738 149.652 78.3196C149.687 78.0958 149.357 78.0016 149.31 78.2254Z" fill="#E8E8E8"/>
<path id="Path_25" d="M152.444 86.6124C154.364 84.3507 156.013 81.8887 157.368 79.2501C157.262 79.2383 157.156 79.2265 157.05 79.203C157.686 81.4058 157.556 83.6792 157.073 85.8938C156.838 86.9658 156.532 88.0259 156.202 89.0743C156.049 89.5573 155.884 90.0402 155.719 90.535C155.542 91.0651 155.377 91.819 154.729 91.9368C154.647 91.9485 154.6 92.031 154.6 92.1017C154.576 92.7024 154.541 93.3503 154.27 93.904C153.928 94.6107 153.245 94.7992 152.538 94.9995C151.478 95.294 150.394 95.6002 149.652 96.4601C149.499 96.625 149.758 96.8842 149.9 96.7075C150.418 96.1067 151.101 95.8005 151.843 95.5649C152.468 95.3646 153.174 95.2822 153.752 94.9523C154.765 94.3869 154.894 93.1383 154.941 92.1017C154.894 92.1606 154.859 92.2195 154.812 92.2666C155.731 92.1135 155.943 90.9355 156.19 90.2052C156.614 88.9565 157.015 87.6961 157.309 86.4121C157.875 84.0091 158.075 81.5 157.38 79.097C157.344 78.9556 157.132 78.9203 157.062 79.0498C155.731 81.6649 154.105 84.1033 152.197 86.3414C152.044 86.5417 152.291 86.7891 152.444 86.6124Z" fill="#E8E8E8"/>
<path id="Path_26" d="M156.355 82.8783C155.447 85.7643 153.928 88.4501 151.914 90.7C150.276 92.514 147.767 94.0925 147.496 96.7429C147.473 96.9667 147.826 96.9667 147.85 96.7429C147.991 95.294 148.933 94.175 149.923 93.1855C150.901 92.2078 151.914 91.289 152.785 90.217C154.54 88.0731 155.86 85.6112 156.684 82.9725C156.767 82.7605 156.425 82.6663 156.355 82.8783Z" fill="#E8E8E8"/>
<path id="Path_27" d="M116.481 24.1804C115.762 30.1409 113.571 35.8657 110.144 40.8014C110.014 40.9899 110.32 41.1666 110.45 40.9781C113.913 35.9953 116.104 30.1997 116.834 24.1804C116.858 23.9448 116.505 23.9565 116.481 24.1804Z" fill="#E8E8E8"/>
<path id="Path_28" d="M116.539 24.2747C121.722 24.9343 126.964 24.9579 132.147 24.3571C132.371 24.3336 132.371 23.9802 132.147 24.0038C126.964 24.6045 121.722 24.581 116.539 23.9213C116.316 23.8977 116.316 24.2511 116.539 24.2747Z" fill="#E8E8E8"/>
<path id="Path_29" d="M132.159 24.5691C133.49 30.7888 132.666 37.3618 129.862 43.0749C129.756 43.2752 130.063 43.4519 130.169 43.2516C133.019 37.456 133.856 30.8006 132.501 24.4749C132.454 24.2511 132.112 24.3453 132.159 24.5691Z" fill="#E8E8E8"/>
<path id="Path_30" d="M110.367 41.1195C116.598 43.4283 123.336 43.3223 129.886 43.1927C130.11 43.1927 130.11 42.8393 129.886 42.8393C123.372 42.9689 116.669 43.0749 110.461 40.7779C110.249 40.6954 110.155 41.037 110.367 41.1195Z" fill="#E8E8E8"/>
<path id="Path_31" d="M133.125 31.7783C136.094 30.5768 139.227 29.7993 142.419 29.4931C142.361 29.4342 142.302 29.3753 142.243 29.3164C142.337 33.8633 144.186 38.2689 147.355 41.5318C147.508 41.6968 147.767 41.4494 147.603 41.2845C144.493 38.0922 142.69 33.7808 142.596 29.3164C142.596 29.2221 142.514 29.1279 142.419 29.1397C139.192 29.4577 136.035 30.2234 133.031 31.4367C132.819 31.5309 132.913 31.8725 133.125 31.7783Z" fill="#E8E8E8"/>
<path id="Path_32" d="M126.682 43.4402C127.153 45.054 127.66 46.6678 128.26 48.2345C128.743 49.4949 129.368 50.72 130.416 51.6035C130.593 51.7448 130.84 51.4975 130.663 51.3561C129.568 50.4255 128.955 49.1298 128.472 47.7987C127.942 46.338 127.471 44.8538 127.023 43.3577C126.953 43.1339 126.623 43.2282 126.682 43.4402Z" fill="#E8E8E8"/>
<path id="Path_33" d="M130.805 51.627C136.129 47.9399 141.795 44.7595 147.697 42.0973C147.909 42.003 147.72 41.6967 147.52 41.791C141.607 44.4414 135.952 47.6337 130.628 51.3207C130.439 51.4503 130.616 51.7565 130.805 51.627Z" fill="#E8E8E8"/>
<path id="Path_34" d="M117.6 25.8059C121.958 26.3478 126.34 26.7365 130.722 26.9603C130.946 26.9721 130.946 26.6187 130.722 26.6069C126.328 26.3831 121.958 25.9944 117.6 25.4525C117.376 25.429 117.376 25.7824 117.6 25.8059Z" fill="#E8E8E8"/>
<path id="Path_35" d="M117.506 27.5493C118.107 27.9145 118.919 27.8556 119.591 27.9027C120.557 27.9734 121.523 28.0441 122.489 28.1147C122.712 28.1265 122.712 27.7731 122.489 27.7614C121.676 27.7025 120.863 27.6436 120.05 27.5847C119.32 27.5258 118.319 27.6318 117.683 27.243C117.494 27.1253 117.317 27.4315 117.506 27.5493Z" fill="#E8E8E8"/>
<path id="Path_36" d="M116.893 29.3046C119.084 29.4577 121.275 29.6109 123.454 29.764C125.551 29.9054 127.73 30.2352 129.827 30.0232C130.051 29.9996 130.051 29.6462 129.827 29.6698C127.73 29.8818 125.551 29.5638 123.454 29.4106C121.263 29.2575 119.072 29.1044 116.893 28.9512C116.669 28.9394 116.669 29.2928 116.893 29.3046Z" fill="#E8E8E8"/>
<path id="Path_37" d="M116.504 32.273C118.413 32.9091 120.427 32.9445 122.43 32.9209C124.632 32.9091 126.823 32.8856 129.026 32.862C129.25 32.862 129.25 32.5086 129.026 32.5086C126.894 32.5204 124.774 32.544 122.642 32.5557C120.604 32.5675 118.554 32.5675 116.599 31.9196C116.375 31.8607 116.281 32.2023 116.504 32.273Z" fill="#E8E8E8"/>
<path id="Path_38" d="M114.078 37.6093C114.078 37.9862 114.042 38.3867 114.078 38.7754C114.101 38.9639 114.184 39.1524 114.408 39.1642C114.678 39.176 114.891 38.8697 115.055 38.7048C115.326 38.4221 115.574 38.1276 115.821 37.8331C115.962 37.6564 115.715 37.409 115.574 37.5857C115.279 37.9627 114.961 38.316 114.62 38.6459C114.584 38.6812 114.549 38.7166 114.502 38.7519C114.431 38.8226 114.408 38.8108 114.431 38.7048C114.396 38.6223 114.431 38.4574 114.431 38.3749C114.431 38.1158 114.431 37.8684 114.431 37.6093C114.431 37.3855 114.078 37.3855 114.078 37.6093Z" fill="#E8E8E8"/>
<path id="Path_39" d="M116.928 34.9C120.721 35.7128 124.609 35.9955 128.472 35.7481C128.696 35.7364 128.696 35.383 128.472 35.3948C124.632 35.6421 120.78 35.3594 117.023 34.5584C116.799 34.5113 116.704 34.8529 116.928 34.9Z" fill="#E8E8E8"/>
<path id="Path_40" d="M130.887 47.3393C135.634 45.6077 140.169 43.346 144.398 40.5778C144.587 40.4482 144.41 40.142 144.222 40.2715C140.016 43.028 135.516 45.2897 130.793 46.9977C130.581 47.0802 130.675 47.4218 130.887 47.3393Z" fill="#E8E8E8"/>
<path id="Path_41" d="M129.792 45.1363C133.326 44.1115 136.777 42.8628 140.158 41.4139C140.37 41.3197 140.181 41.0252 139.981 41.1077C136.636 42.5566 133.196 43.7816 129.698 44.7947C129.486 44.8654 129.568 45.207 129.792 45.1363Z" fill="#E8E8E8"/>
<path id="Path_42" d="M131.323 42.3093C133.337 41.473 135.352 40.6248 137.366 39.7885C139.133 39.0464 140.947 38.3749 142.514 37.2441C142.69 37.1145 142.525 36.8082 142.337 36.9378C140.735 38.0922 138.862 38.7872 137.06 39.5411C135.116 40.3539 133.172 41.1667 131.229 41.9795C131.029 42.0619 131.123 42.4035 131.323 42.3093Z" fill="#E8E8E8"/>
<path id="Path_43" d="M132.96 38.7047C133.832 38.3395 134.716 37.9861 135.587 37.621C135.799 37.5385 135.705 37.1969 135.493 37.2793C134.621 37.6445 133.738 37.9979 132.866 38.3631C132.654 38.4455 132.748 38.7871 132.96 38.7047Z" fill="#E8E8E8"/>
<path id="Path_44" d="M133.443 34.1343C134.609 34.1696 135.787 33.6042 136.859 33.1802C137.978 32.7325 139.074 32.2378 140.146 31.6959C140.346 31.5899 140.169 31.2836 139.969 31.3897C138.921 31.9197 137.861 32.4027 136.765 32.8386C135.74 33.2508 134.574 33.8163 133.443 33.7809C133.208 33.7691 133.208 34.1225 133.443 34.1343Z" fill="#E8E8E8"/>
<path id="Path_45" d="M118.813 43.1103C117.482 47.2214 115.256 51.0026 112.323 54.1831C112.217 54.3009 112.287 54.4776 112.452 54.4894C117.894 54.6661 122.936 56.9513 127.778 59.2601C127.978 59.3544 128.166 59.0481 127.954 58.9539C123.054 56.6215 117.965 54.3245 112.452 54.136C112.499 54.242 112.535 54.3362 112.582 54.4423C115.562 51.2264 117.812 47.3863 119.167 43.2163C119.226 42.9925 118.884 42.8982 118.813 43.1103Z" fill="#E8E8E8"/>
<path id="Path_46" d="M128.178 59.1423C129.768 56.056 131.488 53.0404 133.326 50.0838C133.443 49.8953 133.137 49.7068 133.019 49.9071C131.182 52.852 129.462 55.8793 127.872 58.9656C127.766 59.1659 128.072 59.3543 128.178 59.1423Z" fill="#E8E8E8"/>
<path id="Path_47" d="M127.66 55.0668C127.883 55.0668 127.883 54.7134 127.66 54.7134C127.424 54.7134 127.424 55.0668 127.66 55.0668Z" fill="#E8E8E8"/>
<path id="Path_48" d="M115.444 52.534C117.282 52.4044 118.837 53.5117 120.521 54.0654C121.44 54.3599 122.394 54.513 123.313 54.8193C124.244 55.1138 125.104 55.5614 125.916 56.115C126.105 56.2446 126.282 55.9383 126.093 55.8088C125.351 55.3022 124.55 54.8782 123.702 54.5837C122.701 54.2303 121.629 54.0654 120.616 53.7355C118.896 53.1701 117.329 52.0511 115.444 52.1924C115.209 52.1924 115.209 52.5458 115.444 52.534Z" fill="#E8E8E8"/>
<path id="Path_49" d="M117.305 51.0261C120.062 51.7329 122.7 52.8284 125.139 54.2891C125.339 54.4069 125.516 54.1006 125.315 53.9828C122.853 52.4986 120.191 51.3913 117.399 50.6845C117.176 50.6374 117.081 50.9672 117.305 51.0261Z" fill="#E8E8E8"/>
<path id="Path_50" d="M118.2 48.9647C119.425 49.2239 120.556 49.7186 121.593 50.4254C121.781 50.555 121.958 50.2487 121.769 50.1191C120.709 49.4006 119.543 48.894 118.294 48.6231C118.071 48.576 117.976 48.9176 118.2 48.9647Z" fill="#E8E8E8"/>
<path id="Path_51" d="M118.931 47.0799C120.922 47.8221 122.889 48.6113 124.844 49.4476C125.056 49.5419 125.233 49.2356 125.021 49.1414C123.042 48.2932 121.04 47.4804 119.025 46.7383C118.801 46.6677 118.719 47.0093 118.931 47.0799Z" fill="#E8E8E8"/>
<path id="Path_52" d="M18.7455 28.8571C18.557 31.6606 18.5099 34.4877 17.6147 37.1853C16.7783 39.6943 15.3765 41.9913 13.5389 43.8879C13.3858 44.0528 13.6331 44.3002 13.7863 44.1352C15.6239 42.2387 17.0375 39.9535 17.8974 37.4562C18.8515 34.688 18.8986 31.7549 19.0989 28.8571C19.1107 28.6333 18.7573 28.6333 18.7455 28.8571Z" fill="#E8E8E8"/>
<path id="Path_53" d="M18.9926 28.9629C23.6102 28.904 28.2396 28.9158 32.8572 29.01C34.0351 29.0336 35.2131 29.0689 36.3793 29.1042C36.9801 29.1278 37.8989 28.9511 38.2169 29.5872C38.4407 30.0348 38.4289 30.7534 38.4996 31.2481C38.8059 33.4156 38.8648 35.6184 38.6999 37.7976C38.5114 40.2713 38.0167 42.7097 37.251 45.0656C37.1803 45.2777 37.5219 45.3719 37.5926 45.1599C39.0297 40.7425 39.4891 36.0306 38.8766 31.4248C38.8177 30.9419 38.7352 30.4589 38.6528 29.9877C38.5939 29.6461 38.5585 29.2102 38.2523 28.9864C37.9578 28.7626 37.5455 28.798 37.2039 28.7862C36.5324 28.7626 35.8728 28.7391 35.2013 28.7273C32.6569 28.6566 30.1125 28.6095 27.5681 28.5977C24.7057 28.5741 21.8432 28.5859 18.9926 28.6213C18.7688 28.6213 18.7688 28.9747 18.9926 28.9629Z" fill="#E8E8E8"/>
<path id="Path_54" d="M13.6211 44.3237C19.6052 45.9964 25.9308 46.1731 32.0091 44.8656C32.2329 44.8185 32.1387 44.4768 31.9149 44.524C25.9073 45.8315 19.6405 45.643 13.7154 43.9821C13.4916 43.9232 13.3973 44.253 13.6211 44.3237Z" fill="#E8E8E8"/>
<path id="Path_55" d="M37.5927 29.8112C37.3217 34.9589 35.9082 39.9888 33.458 44.5121C33.352 44.7124 33.6583 44.8891 33.7643 44.6888C36.238 40.1066 37.6751 35.0178 37.9461 29.8112C37.9578 29.5874 37.6044 29.5874 37.5927 29.8112Z" fill="#E8E8E8"/>
<path id="Path_56" d="M37.5928 30.7889C37.9226 32.3556 37.7813 33.934 37.5103 35.4889C37.2747 36.8436 37.0038 38.1982 36.6975 39.5529C36.0968 42.2033 35.284 44.8184 33.7291 47.0683C33.5995 47.2568 33.9058 47.4335 34.0353 47.245C35.6491 44.9126 36.4737 42.1915 37.0863 39.4469C37.7106 36.6433 38.5469 33.5689 37.9344 30.6946C37.8873 30.4708 37.5457 30.565 37.5928 30.7889Z" fill="#E8E8E8"/>
<path id="Path_57" d="M37.8521 31.9196C38.2643 37.2675 37.3927 42.6508 35.3077 47.5982C35.2252 47.8103 35.5668 47.9045 35.6493 47.6925C37.7343 42.7215 38.6177 37.3029 38.2055 31.9196C38.1937 31.6958 37.8403 31.6958 37.8521 31.9196Z" fill="#E8E8E8"/>
<path id="Path_58" d="M15.8711 47.245C21.7727 48.2581 27.8039 48.2228 33.6937 47.1508C33.9175 47.1155 33.8233 46.7739 33.5995 46.8092C27.7803 47.8694 21.7963 47.9047 15.9654 46.9034C15.7416 46.8681 15.6473 47.2097 15.8711 47.245Z" fill="#E8E8E8"/>
<path id="Path_59" d="M16.6485 45.2424C16.3776 45.69 16.0242 46.0669 15.6001 46.3732C15.4116 46.5028 15.5883 46.8091 15.7768 46.6795C16.248 46.3379 16.6485 45.9256 16.943 45.4308C17.0726 45.2306 16.7663 45.0539 16.6485 45.2424Z" fill="#E8E8E8"/>
<path id="Path_60" d="M17.4732 47.8221C17.3201 48.1166 17.1434 48.3993 16.9314 48.6584C16.79 48.8351 17.0374 49.0825 17.1787 48.9058C17.4143 48.6231 17.6146 48.3286 17.7677 47.9988C17.8737 47.7985 17.5792 47.61 17.4732 47.8221Z" fill="#E8E8E8"/>
<path id="Path_61" d="M17.1317 49.1415C23.0569 49.8365 29.0763 49.4596 34.8718 48.0225C35.0957 47.9636 35.0014 47.622 34.7776 47.6809C29.0174 49.1062 23.0333 49.4714 17.1317 48.7764C16.9079 48.7646 16.9079 49.118 17.1317 49.1415Z" fill="#E8E8E8"/>
<path id="Path_62" d="M20.0176 33.5924C25.1064 32.8974 30.2423 33.2272 35.3429 33.5806C35.5667 33.5924 35.5667 33.239 35.3429 33.2272C30.207 32.8738 25.0475 32.544 19.9234 33.2508C19.6996 33.2743 19.7938 33.616 20.0176 33.5924Z" fill="#E8E8E8"/>
<path id="Path_63" d="M18.5566 38.8697C23.3273 38.9404 28.0863 39.1642 32.8335 39.5412C33.0573 39.5647 33.0573 39.2114 32.8335 39.1878C28.0863 38.7991 23.3273 38.5753 18.5566 38.5164C18.321 38.5164 18.321 38.8697 18.5566 38.8697Z" fill="#E8E8E8"/>
<path id="Path_64" d="M17.1317 41.6025C22.409 41.8498 27.6863 42.109 32.9635 42.3564C33.1874 42.3681 33.1874 42.0147 32.9635 42.003C27.6863 41.7556 22.409 41.4964 17.1317 41.2491C16.9079 41.2373 16.9079 41.5907 17.1317 41.6025Z" fill="#E8E8E8"/>
<path id="Path_65" d="M21.4898 36.7963C20.4885 39.1758 19.5344 41.5671 18.6509 43.9937C18.5685 44.2057 18.9101 44.2999 18.9925 44.0879C19.876 41.6966 20.8066 39.3289 21.7961 36.9848C21.8785 36.7728 21.5723 36.5843 21.4898 36.7963Z" fill="#E8E8E8"/>
<path id="Path_66" d="M25.4834 37.2087C24.3172 39.5646 23.3513 41.9912 22.5149 44.4649C22.4443 44.677 22.7859 44.7712 22.8566 44.5592C23.6811 42.109 24.6353 39.706 25.7897 37.3854C25.8957 37.1851 25.5894 37.0084 25.4834 37.2087Z" fill="#E8E8E8"/>
<path id="Path_67" d="M29.9591 37.4915C28.6163 39.6707 27.615 42.0384 26.9907 44.5239C26.9318 44.7477 27.2734 44.8419 27.3323 44.6181C27.9448 42.1562 28.9343 39.8238 30.2654 37.6682C30.3832 37.4797 30.0769 37.303 29.9591 37.4915Z" fill="#E8E8E8"/>
<path id="Path_68" d="M33.4934 37.6563C32.3861 39.8002 31.4438 42.0266 30.6663 44.3236C30.5956 44.5356 30.9372 44.6299 31.0079 44.4178C31.7736 42.1562 32.7042 39.9651 33.7997 37.8448C33.8939 37.6328 33.5994 37.4561 33.4934 37.6563Z" fill="#E8E8E8"/>
<path id="Path_69" d="M18.062 39.7296C18.5803 39.9652 19.0162 40.2832 19.4049 40.6955C19.558 40.8604 19.8054 40.6131 19.6523 40.4482C19.2518 40.0123 18.7806 39.6707 18.2387 39.4233C18.0267 39.3409 17.85 39.6354 18.062 39.7296Z" fill="#E8E8E8"/>
<path id="Path_70" d="M19.6642 39.1288C18.9103 39.5764 18.2506 40.1418 17.697 40.8133C17.5556 40.99 17.803 41.2373 17.9444 41.0606C18.4862 40.401 19.1105 39.8591 19.8409 39.4351C20.0411 39.3173 19.8644 39.011 19.6642 39.1288Z" fill="#E8E8E8"/>
<path id="Path_71" d="M24.3877 42.8276C25.0474 43.2164 25.6128 43.6993 26.1075 44.2765C26.2489 44.4532 26.508 44.1941 26.3549 44.0292C25.8484 43.4284 25.2476 42.9219 24.5644 42.5214C24.3759 42.4036 24.1992 42.7098 24.3877 42.8276Z" fill="#E8E8E8"/>
<path id="Path_72" d="M26.3905 42.3329C25.6366 42.8983 24.9416 43.5344 24.3055 44.2294C24.1524 44.3943 24.3997 44.6535 24.5529 44.4768C25.1654 43.7936 25.8369 43.181 26.5672 42.6274C26.7439 42.5096 26.5672 42.2033 26.3905 42.3329Z" fill="#E8E8E8"/>
<path id="Path_73" d="M21.1013 39.1995C21.7138 39.7649 22.3263 40.3185 22.9389 40.8839C23.1038 41.0371 23.3512 40.7897 23.1863 40.6366C22.5737 40.0712 21.9612 39.5175 21.3486 38.9521C21.1837 38.7872 20.9363 39.0345 21.1013 39.1995Z" fill="#E8E8E8"/>
<path id="Path_74" d="M23.1152 38.9169C22.2553 39.4116 21.5014 40.0477 20.8889 40.8252C20.7475 41.0019 20.9949 41.2492 21.1363 41.0725C21.737 40.3187 22.4556 39.7061 23.2919 39.2231C23.4922 39.1053 23.3037 38.7991 23.1152 38.9169Z" fill="#E8E8E8"/>
<path id="Path_75" d="M25.5539 41.5554C24.7058 41.096 24.588 39.9534 25.4008 39.3644C26.0133 38.9286 27.2619 38.5634 27.7331 39.3644C28.1454 40.083 27.6507 40.9547 27.0617 41.3905C26.1429 42.062 25.495 41.3198 25.0709 40.5542C24.9649 40.3539 24.6586 40.5306 24.7647 40.7309C25.3065 41.7086 26.1782 42.4743 27.2619 41.685C28.0629 41.1078 28.6166 39.8827 27.9334 39.011C27.2266 38.1158 25.6128 38.587 24.9296 39.2938C24.1639 40.0948 24.4466 41.3316 25.3772 41.8382C25.5774 41.9677 25.7541 41.6615 25.5539 41.5554Z" fill="#E8E8E8"/>
<path id="Path_76" d="M20.5592 29.7875C20.3354 30.6003 20.2647 31.4249 20.3825 32.273C20.4061 32.4968 20.7712 32.4968 20.7359 32.273C20.6299 31.4602 20.677 30.671 20.9008 29.8817C20.9597 29.6697 20.6181 29.5755 20.5592 29.7875Z" fill="#E8E8E8"/>
<path id="Path_77" d="M20.7831 29.9997C25.2122 29.505 29.6767 29.3872 34.1294 29.6581C34.0705 29.5992 34.0116 29.5403 33.9527 29.4814C34.0116 30.1764 33.9998 30.8596 33.882 31.5429C33.8467 31.7667 34.1883 31.8609 34.2236 31.6371C34.3414 30.9185 34.3768 30.2118 34.3061 29.4814C34.2943 29.3872 34.2354 29.3165 34.1294 29.3047C29.6767 29.0338 25.2122 29.1516 20.7831 29.6463C20.5593 29.6699 20.5593 30.0233 20.7831 29.9997Z" fill="#E8E8E8"/>
<path id="Path_78" d="M21.1249 32.1554C25.3656 32.0611 29.6062 31.9669 33.8469 31.8727C34.0707 31.8727 34.0707 31.5193 33.8469 31.5193C29.6062 31.6135 25.3656 31.7078 21.1249 31.802C20.9011 31.8138 20.9011 32.1672 21.1249 32.1554Z" fill="#E8E8E8"/>
<path id="Path_79" d="M92.1794 101.749C98.7996 101.749 105.408 101.749 112.028 101.749C112.711 101.749 112.711 100.689 112.028 100.689C105.408 100.689 98.7996 100.689 92.1794 100.689C91.4962 100.689 91.4962 101.749 92.1794 101.749Z" fill="#161616"/>
<path id="Path_80" d="M114.431 101.749C115.857 101.749 117.27 101.749 118.696 101.749C119.379 101.749 119.379 100.689 118.696 100.689C117.27 100.689 115.857 100.689 114.431 100.689C113.748 100.689 113.748 101.749 114.431 101.749Z" fill="#161616"/>
<path id="Path_81" d="M122.971 101.007C123.831 101.007 124.703 101.007 125.563 101.007C126.246 101.007 126.246 99.947 125.563 99.947C124.703 99.947 123.831 99.947 122.971 99.947C122.288 99.947 122.288 101.007 122.971 101.007Z" fill="#161616"/>
<path id="Path_82" d="M114.619 110.655C122.535 110.655 130.451 110.655 138.367 110.655C139.05 110.655 139.05 109.594 138.367 109.594C130.451 109.594 122.535 109.594 114.619 109.594C113.936 109.594 113.936 110.655 114.619 110.655Z" fill="#161616"/>
<path id="Path_83" d="M139.852 110.655C141.831 110.655 143.81 110.655 145.789 110.655C146.472 110.655 146.472 109.594 145.789 109.594C143.81 109.594 141.831 109.594 139.852 109.594C139.169 109.594 139.169 110.655 139.852 110.655Z" fill="#161616"/>
<path id="Path_84" d="M149.499 110.478C152.409 110.478 155.307 110.478 158.216 110.478C158.899 110.478 158.899 109.418 158.216 109.418C155.307 109.418 152.409 109.418 149.499 109.418C148.816 109.418 148.816 110.478 149.499 110.478Z" fill="#161616"/>
<path id="Path_85" d="M161.738 109.912C162.351 109.912 162.975 109.912 163.587 109.912C164.271 109.912 164.271 108.852 163.587 108.852C162.975 108.852 162.351 108.852 161.738 108.852C161.055 108.852 161.055 109.912 161.738 109.912Z" fill="#161616"/>
<path id="Path_86" d="M0.640073 112.916C10.1816 112.681 19.7231 112.504 29.2646 112.398C31.9974 112.363 34.7421 112.339 37.475 112.316C37.6988 112.316 37.6988 111.962 37.475 111.962C27.9335 112.033 18.392 112.174 8.85047 112.374C6.1176 112.433 3.37295 112.492 0.640073 112.563C0.404481 112.575 0.404481 112.928 0.640073 112.916Z" fill="#161616"/>
<path id="Path_87" d="M26.4023 114.884C33.635 114.577 40.8794 114.624 48.1003 115.025C48.3242 115.037 48.3242 114.683 48.1003 114.671C40.8794 114.271 33.635 114.224 26.4023 114.53C26.1667 114.542 26.1667 114.895 26.4023 114.884Z" fill="#161616"/>
<path id="Path_88" d="M140.759 100.171C140.299 101.255 139.698 102.256 138.956 103.175C138.815 103.351 139.062 103.599 139.204 103.422C139.993 102.456 140.617 101.408 141.1 100.265C141.183 100.053 140.841 99.9588 140.759 100.171Z" fill="#E8E8E8"/>
<path id="Path_89" d="M142.985 99.9116C142.054 101.973 140.723 103.822 139.062 105.366C138.897 105.519 139.145 105.766 139.31 105.613C140.994 104.058 142.337 102.185 143.291 100.088C143.385 99.888 143.079 99.7113 142.985 99.9116Z" fill="#E8E8E8"/>
<path id="Path_90" d="M145.294 100.029C143.821 103.021 141.713 105.636 139.086 107.698C138.909 107.839 139.156 108.087 139.333 107.945C141.972 105.86 144.104 103.21 145.588 100.194C145.694 100.006 145.388 99.8291 145.294 100.029Z" fill="#E8E8E8"/>
<path id="Path_91" d="M147.449 100.124C145.847 103.033 143.857 105.684 141.501 108.028C141.336 108.193 141.595 108.44 141.748 108.275C144.116 105.919 146.142 103.234 147.744 100.3C147.873 100.1 147.567 99.9235 147.449 100.124Z" fill="#E8E8E8"/>
<path id="Path_92" d="M149.37 100.041C147.838 103.01 145.942 105.766 143.692 108.24C143.539 108.405 143.786 108.664 143.939 108.487C146.201 105.99 148.133 103.222 149.676 100.218C149.782 100.018 149.476 99.841 149.37 100.041Z" fill="#E8E8E8"/>
<path id="Path_93" d="M150.924 100.053C149.523 103.045 147.697 105.825 145.494 108.287C145.341 108.452 145.588 108.711 145.741 108.534C147.968 106.037 149.817 103.245 151.231 100.218C151.337 100.03 151.03 99.8411 150.924 100.053Z" fill="#E8E8E8"/>
<path id="Path_94" d="M151.113 102.338C150.017 104.529 148.674 106.579 147.108 108.464C146.966 108.64 147.214 108.888 147.355 108.711C148.945 106.803 150.312 104.73 151.419 102.515C151.525 102.315 151.219 102.138 151.113 102.338Z" fill="#E8E8E8"/>
<path id="Path_95" d="M48.1826 1.1513C48.1826 3.15384 48.1826 5.15638 48.1826 7.14713C48.1826 7.37094 48.536 7.37094 48.536 7.14713C48.536 5.1446 48.536 3.14206 48.536 1.1513C48.536 0.915711 48.1826 0.915711 48.1826 1.1513Z" fill="#E8E8E8"/>
<path id="Path_96" d="M41.7509 7.47692C47.6525 7.47692 53.5423 7.47692 59.4439 7.47692C59.6677 7.47692 59.6677 7.12354 59.4439 7.12354C53.5423 7.12354 47.6525 7.12354 41.7509 7.12354C41.5153 7.12354 41.5153 7.47692 41.7509 7.47692Z" fill="#E8E8E8"/>
<path id="Path_97" d="M54.1904 7.91273C54.1904 9.76213 54.1904 11.5998 54.1904 13.4492C54.1904 13.673 54.5438 13.673 54.5438 13.4492C54.5438 11.5998 54.5438 9.76213 54.5438 7.91273C54.5438 7.68892 54.1904 7.68892 54.1904 7.91273Z" fill="#E8E8E8"/>
<path id="Path_98" d="M44.9784 14.097C50.7269 14.097 56.4635 14.097 62.212 14.097C62.4358 14.097 62.4358 13.7437 62.212 13.7437C56.4635 13.7437 50.7269 13.7437 44.9784 13.7437C44.7546 13.7437 44.7546 14.097 44.9784 14.097Z" fill="#E8E8E8"/>
<path id="Path_99" d="M44.6489 14.2267C44.6489 15.6167 44.6489 16.995 44.6489 18.385C44.6489 18.6088 45.0023 18.6088 45.0023 18.385C45.0023 16.995 45.0023 15.6167 45.0023 14.2267C45.0023 14.0029 44.6489 13.9912 44.6489 14.2267Z" fill="#E8E8E8"/>
<path id="Path_100" d="M130.122 63.277C133.691 63.277 137.248 63.277 140.817 63.277C141.041 63.277 141.041 62.9236 140.817 62.9236C137.248 62.9236 133.691 62.9236 130.122 62.9236C129.886 62.9236 129.886 63.277 130.122 63.277Z" fill="#E8E8E8"/>
<path id="Path_101" d="M135.776 63.4183C135.776 64.8201 135.776 66.2219 135.776 67.6355C135.776 67.8593 136.129 67.8593 136.129 67.6355C136.129 66.2337 136.129 64.8319 136.129 63.4183C136.129 63.1945 135.776 63.1945 135.776 63.4183Z" fill="#E8E8E8"/>
<path id="Path_102" d="M129.309 67.8121C133.42 67.8121 137.519 67.8121 141.63 67.8121C141.854 67.8121 141.854 67.4587 141.63 67.4587C137.519 67.4587 133.42 67.4587 129.309 67.4587C129.085 67.4587 129.085 67.8121 129.309 67.8121Z" fill="#E8E8E8"/>
<path id="Path_103" d="M132.537 67.8005C132.537 68.9902 132.537 70.18 132.537 71.3697C132.537 71.5935 132.89 71.5935 132.89 71.3697C132.89 70.18 132.89 68.9902 132.89 67.8005C132.89 67.5649 132.537 67.5649 132.537 67.8005Z" fill="#E8E8E8"/>
<path id="Path_104" d="M140.311 67.9535C140.311 69.1432 140.311 70.333 140.311 71.5227C140.311 71.7465 140.664 71.7465 140.664 71.5227C140.664 70.333 140.664 69.1432 140.664 67.9535C140.664 67.7297 140.311 67.7297 140.311 67.9535Z" fill="#E8E8E8"/>
<path id="Path_105" d="M25.2714 101.891C30.6194 101.891 35.9673 101.891 41.3153 101.891C41.5391 101.891 41.5391 101.537 41.3153 101.537C35.9673 101.537 30.6194 101.537 25.2714 101.537C25.0358 101.537 25.0358 101.891 25.2714 101.891Z" fill="#E8E8E8"/>
<path id="Path_106" d="M0.640073 102.114C4.00905 102.114 7.37802 102.114 10.747 102.114C10.9708 102.114 10.9708 101.761 10.747 101.761C7.37802 101.761 4.00905 101.761 0.640073 101.761C0.404481 101.761 0.404481 102.114 0.640073 102.114Z" fill="#E8E8E8"/>
<path id="Path_107" d="M21.9023 74.1495C27.2502 74.1495 32.5982 74.1495 37.9461 74.1495C38.1699 74.1495 38.1699 73.7961 37.9461 73.7961C32.5982 73.7961 27.2502 73.7961 21.9023 73.7961C21.6667 73.7961 21.6667 74.1495 21.9023 74.1495Z" fill="#E8E8E8"/>
<path id="Path_108" d="M30.8667 74.2909C30.8667 75.516 30.8667 76.7528 30.8667 77.9779C30.8667 78.2017 31.2201 78.2017 31.2201 77.9779C31.2201 76.7528 31.2201 75.516 31.2201 74.2909C31.2201 74.0671 30.8667 74.0671 30.8667 74.2909Z" fill="#E8E8E8"/>
<path id="Path_109" d="M27.8388 78.1547C32.0088 78.1547 36.1788 78.1547 40.3488 78.1547C40.5726 78.1547 40.5726 77.8013 40.3488 77.8013C36.1788 77.8013 32.0088 77.8013 27.8388 77.8013C27.6032 77.8013 27.6032 78.1547 27.8388 78.1547Z" fill="#E8E8E8"/>
<path id="Path_110" d="M37.2861 78.296C37.2861 79.6271 37.2861 80.97 37.2861 82.3011C37.2861 82.5249 37.6395 82.5249 37.6395 82.3011C37.6395 80.97 37.6395 79.6271 37.6395 78.296C37.6395 78.0722 37.2861 78.0722 37.2861 78.296Z" fill="#E8E8E8"/>
<path id="Path_111" d="M123.831 103.151C128.367 103.151 132.89 103.151 137.425 103.151C137.649 103.151 137.649 102.798 137.425 102.798C132.89 102.798 128.367 102.798 123.831 102.798C123.596 102.798 123.596 103.151 123.831 103.151Z" fill="#E8E8E8"/>
<path id="Path_112" d="M152.927 101.867C157.745 101.867 162.551 101.867 167.369 101.867C167.593 101.867 167.593 101.514 167.369 101.514C162.551 101.514 157.745 101.514 152.927 101.514C152.703 101.514 152.703 101.867 152.927 101.867Z" fill="#E8E8E8"/>
<path id="Path_113" d="M106.656 68.3539C106.656 70.6156 106.656 72.8891 106.656 75.1508C106.656 75.3746 107.01 75.3746 107.01 75.1508C107.01 72.8891 107.01 70.6156 107.01 68.3539C107.01 68.1183 106.656 68.1183 106.656 68.3539Z" fill="#E8E8E8"/>
<path id="Path_114" d="M107.045 71.7113C109.166 71.7113 111.298 71.7113 113.418 71.7113C113.642 71.7113 113.642 71.3579 113.418 71.3579C111.298 71.3579 109.166 71.3579 107.045 71.3579C106.821 71.3579 106.821 71.7113 107.045 71.7113Z" fill="#E8E8E8"/>
<path id="Path_115" d="M113.029 69.2021C113.029 71.3224 113.029 73.4545 113.029 75.5749C113.029 75.7987 113.383 75.7987 113.383 75.5749C113.383 73.4545 113.383 71.3224 113.383 69.2021C113.383 68.9665 113.029 68.9665 113.029 69.2021Z" fill="#E8E8E8"/>
<path id="Path_116" d="M108.965 76.1757C112.287 76.1757 115.621 76.1757 118.943 76.1757C119.166 76.1757 119.166 75.8223 118.943 75.8223C115.621 75.8223 112.287 75.8223 108.965 75.8223C108.73 75.8223 108.73 76.1757 108.965 76.1757Z" fill="#E8E8E8"/>
<path id="Path_117" d="M115.797 76.6352C115.797 78.2608 115.797 79.8864 115.797 81.5237C115.797 81.7475 116.151 81.7475 116.151 81.5237C116.151 79.8981 116.151 78.2726 116.151 76.6352C116.151 76.3996 115.797 76.3996 115.797 76.6352Z" fill="#E8E8E8"/>
<path id="Path_118" d="M88.9165 10.1156C88.9165 13.8026 88.9165 17.4897 88.9165 21.1767C88.9165 21.4005 89.2699 21.4005 89.2699 21.1767C89.2699 17.4897 89.2699 13.8026 89.2699 10.1156C89.2699 9.8918 88.9165 9.8918 88.9165 10.1156Z" fill="#E8E8E8"/>
<path id="Path_119" d="M89.2816 10.0922C95.0772 10.0922 100.873 10.0922 106.657 10.0922C106.88 10.0922 106.88 9.73877 106.657 9.73877C100.861 9.73877 95.0654 9.73877 89.2816 9.73877C89.0578 9.73877 89.0578 10.0922 89.2816 10.0922Z" fill="#E8E8E8"/>
<path id="Path_120" d="M106.503 10.0568C106.503 13.7085 106.503 17.3601 106.503 21C106.503 21.2239 106.857 21.2239 106.857 21C106.857 17.3484 106.857 13.6967 106.857 10.0568C106.857 9.83296 106.503 9.83296 106.503 10.0568Z" fill="#E8E8E8"/>
<path id="Path_121" d="M89.246 21.4711C95.1005 21.4711 100.967 21.4711 106.821 21.4711C107.045 21.4711 107.045 21.1177 106.821 21.1177C100.967 21.1177 95.1005 21.1177 89.246 21.1177C89.0222 21.1177 89.0222 21.4711 89.246 21.4711Z" fill="#E8E8E8"/>
<path id="Path_122" d="M96.7969 9.72699C96.738 9.40894 96.7263 9.09089 96.7852 8.77284C96.8441 8.49013 96.9854 7.9247 97.3152 8.27809C97.4802 8.45479 97.4919 8.84351 97.5391 9.06733C97.5979 9.36182 97.6568 9.66809 97.7157 9.96258C97.7629 10.1864 98.1045 10.0922 98.0574 9.86834C97.9513 9.35004 97.9042 8.77284 97.704 8.27809C97.5979 8.01894 97.3977 7.71267 97.0796 7.72445C96.7263 7.73623 96.5849 8.11318 96.5024 8.40767C96.3611 8.86707 96.3611 9.33826 96.4553 9.79766C96.4907 10.045 96.8323 9.9508 96.7969 9.72699Z" fill="#E8E8E8"/>
<path id="Path_123" d="M89.9409 11.3879C89.9409 14.2503 89.9409 17.1128 89.9409 19.9752C89.9409 20.199 90.2943 20.199 90.2943 19.9752C90.2943 17.1128 90.2943 14.2503 90.2943 11.3879C90.2943 11.1523 89.9409 11.1523 89.9409 11.3879Z" fill="#E8E8E8"/>
<path id="Path_124" d="M90.2123 11.3641C95.3011 11.3641 100.39 11.3641 105.467 11.3641C105.691 11.3641 105.691 11.0107 105.467 11.0107C100.378 11.0107 95.2893 11.0107 90.2123 11.0107C89.9885 11.0107 89.9885 11.3641 90.2123 11.3641Z" fill="#E8E8E8"/>
<path id="Path_125" d="M105.49 11.0934C105.49 14.1443 105.49 17.1952 105.49 20.2462C105.49 20.47 105.844 20.47 105.844 20.2462C105.844 17.1952 105.844 14.1443 105.844 11.0934C105.844 10.8696 105.49 10.8696 105.49 11.0934Z" fill="#E8E8E8"/>
<path id="Path_126" d="M90.4008 20.2342C95.4542 20.2342 100.508 20.2342 105.561 20.2342C105.785 20.2342 105.785 19.8809 105.561 19.8809C100.508 19.8809 95.4542 19.8809 90.4008 19.8809C90.177 19.8809 90.177 20.2342 90.4008 20.2342Z" fill="#E8E8E8"/>
<path id="Path_127" d="M90.2007 17.1598C92.5095 16.5354 94.8183 15.9936 97.186 16.665C99.1414 17.2304 100.932 18.2788 102.958 18.6204C103.182 18.6558 103.276 18.3142 103.052 18.2788C100.897 17.9137 99.0118 16.7475 96.9033 16.2292C94.6062 15.6637 92.3328 16.2174 90.1182 16.8181C89.8826 16.877 89.9769 17.2187 90.2007 17.1598Z" fill="#E8E8E8"/>
<path id="Path_128" d="M98.3046 17.1362C100.484 16.8888 102.651 16.0289 104.854 16.4883C105.078 16.5354 105.172 16.1938 104.948 16.1467C102.698 15.6755 100.519 16.5236 98.3046 16.771C98.0808 16.8063 98.0808 17.1715 98.3046 17.1362Z" fill="#E8E8E8"/>
<path id="Path_129" d="M98.6816 14.6272C98.4106 14.368 98.3871 13.9086 98.6698 13.6495C98.976 13.355 99.5297 13.4374 99.7653 13.7791C100.013 14.1207 99.9538 14.639 99.6357 14.9099C99.247 15.2397 98.7287 14.9806 98.4577 14.639C98.3282 14.4623 98.0101 14.639 98.1515 14.8157C98.5284 15.3222 99.2234 15.652 99.7888 15.2397C100.319 14.851 100.401 14.0382 100.001 13.5317C99.6475 13.0841 98.9171 12.9898 98.4695 13.355C97.9983 13.7319 97.9866 14.4858 98.4224 14.8981C98.5991 15.0277 98.8465 14.7803 98.6816 14.6272Z" fill="#E8E8E8"/>
</g>
<g id="feet">
<path id="Path_130" d="M112.711 93.2208C113.088 92.4433 113.712 91.4892 114.725 91.2064C116.28 90.7706 117.388 92.3255 119.708 93.4564C123.902 95.506 127.553 93.9747 127.895 95.1173C128.166 96.0243 125.987 97.4968 124.573 98.2035C121.734 99.6171 116.375 100.76 113.901 97.7324C113.536 97.2847 112.523 95.883 112.711 93.2208Z" fill="#161616" stroke="#161616" stroke-width="2"/>
<path id="Path_131" d="M109.507 94.7521C109.001 94.2691 108.777 93.6566 108.683 93.209C109.566 90.2523 111.404 88.0024 113.548 87.755C114.926 87.6019 116.28 88.2851 117.341 88.8269C119.072 89.6986 119.108 90.2758 120.78 91.3124C123.596 93.0676 125.598 92.7496 125.763 93.6802C125.916 94.5518 124.338 95.7534 122.795 96.2952C119.697 97.379 118.719 95.129 113.901 95.3411C112.193 95.4235 110.603 95.7887 109.507 94.7521Z" fill="#161616" stroke="#161616" stroke-width="2"/>
</g>
<g id="legs">
<path id="Path_132" d="M88.2567 75.5278C88.4923 76.9885 88.8574 79.3562 89.2344 82.2776C90.6715 93.2562 90.0943 94.8582 91.8141 97.1435C95.7838 102.421 104.63 101.525 105.325 101.443C110.367 100.866 113.783 98.2154 115.15 97.0257C114.372 95.671 113.595 94.3281 112.817 92.9735C108.93 93.0088 105.043 93.0559 101.144 93.0913C101.98 90.0757 102.958 85.0104 102.121 78.8497C101.485 74.1379 100.025 70.4155 98.7994 67.9182C95.5954 68.1538 91.8966 68.6839 87.8679 69.7558C85.9243 70.2741 84.122 70.8631 82.4611 71.4757C82.3786 73.702 82.2726 76.8707 82.2137 80.6873C82.0135 95.1291 82.838 98.0976 84.9112 99.6054C85.9243 100.336 87.6912 100.395 91.178 100.465C97.2445 100.595 102.38 99.0046 108.376 97.1435C109.731 96.7194 110.826 96.3542 111.498 96.1304C111.156 93.4329 110.803 90.7471 110.461 88.0496C108.07 88.6975 105.573 89.31 102.981 89.899C100.496 90.4526 98.0809 90.9474 95.7367 91.3714" fill="#282828"/>
<path id="Path_133" d="M86.973 77.389C88.1981 77.8484 88.4101 79.3915 88.5279 80.5224C88.6929 82.0419 88.7871 83.5615 88.8813 85.0928C89.0698 88.0731 89.2701 91.0651 90.0122 93.9629C90.0711 94.1867 90.4127 94.0925 90.3538 93.8687C89.5057 90.5586 89.3761 87.1425 89.1523 83.7617C89.058 82.3129 89.0227 80.8168 88.7164 79.3915C88.5044 78.402 88.0685 77.4361 87.0673 77.0591C86.8552 76.9767 86.761 77.3183 86.973 77.389Z" fill="#232323"/>
<path id="Path_134" d="M92.568 97.7679C93.4751 98.5571 94.3585 99.4759 95.3716 100.147C96.3493 100.795 97.5273 101.031 98.6699 101.243C98.8937 101.29 98.9879 100.948 98.7641 100.901C97.6568 100.689 96.5142 100.477 95.5483 99.8411C94.5706 99.1932 93.7107 98.298 92.8154 97.5205C92.6505 97.3674 92.3913 97.6265 92.568 97.7679Z" fill="#232323"/>
<path id="Path_135" d="M101.344 91.8778C102.628 91.9014 103.876 92.137 105.078 92.5728C105.29 92.6553 105.384 92.3137 105.172 92.2312C103.935 91.7836 102.651 91.548 101.344 91.5245C101.108 91.5127 101.108 91.8661 101.344 91.8778Z" fill="#232323"/>
<path id="Path_136" opacity="0.58" d="M82.3784 79.5447C82.4491 78.4492 83.203 77.4715 84.216 77.0239C85.2762 76.5645 86.5955 76.8707 87.4083 77.5186C88.8219 78.6259 88.7041 80.7109 88.763 83.2317C88.869 87.8376 88.9986 93.3622 91.7079 97.0492C92.3322 97.8974 93.463 99.1578 95.5127 100.241C94.4525 100.748 92.556 101.478 90.1647 101.349C89.1281 101.29 86.3364 101.113 84.3338 99.0753C83.3561 98.0858 82.508 96.578 82.2488 89.31C82.1664 86.8245 82.1428 83.4909 82.3784 79.5447Z" fill="#474747"/>
<path id="Path_137" opacity="0.59" d="M101.65 90.2878C104.583 89.5339 107.517 88.78 110.45 88.0261C110.626 89.6517 110.791 91.2891 110.968 92.9147C109.637 92.5495 108.129 92.2079 106.492 91.937C104.595 91.6307 102.852 91.4776 101.297 91.4187C101.415 91.0417 101.532 90.6648 101.65 90.2878Z" fill="#474747"/>
</g>
<g id="torso">
<path id="Path_138" d="M83.192 42.2976C83.1567 41.473 83.2509 40.566 83.7928 40.2597C85.7364 39.176 92.8396 46.1613 96.3263 53.9005C97.6928 56.9396 99.3655 62.0166 99.0003 68.9784C93.6052 69.9679 88.2219 70.9692 82.8269 71.9586C81.9081 70.4155 80.3532 68.0714 77.9619 65.5976C75.5706 63.1239 74.6636 62.9355 73.6388 61.1332C71.4478 57.2695 72.6257 52.8757 72.9202 51.7684C73.3089 50.3313 74.1571 47.245 77.102 44.8537C79.4697 42.9219 82.0141 42.4389 83.192 42.2976Z" fill="white" stroke="#161616" stroke-width="2"/>
<path id="Path_139" opacity="0.36" d="M82.9922 44.1822C84.394 45.1481 89.2825 48.7409 91.2615 55.6084C93.4172 63.1238 90.5547 69.261 89.8479 70.6628C92.9342 70.1445 96.0322 69.638 99.1185 69.1197C99.307 66.1276 99.2363 60.8504 96.9039 54.8781C93.9826 47.4098 89.0823 42.9453 86.6557 41.0017C85.4306 42.0619 84.2173 43.122 82.9922 44.1822Z" fill="#828181"/>
<path id="Path_140" opacity="0.4" d="M95.3607 52.2866C95.561 53.4292 95.7966 55.102 95.8908 57.1516C96.0557 60.7679 96.1853 63.3477 94.9131 65.9863C94.4183 67.0229 93.3228 68.8605 90.9434 70.5333C93.6409 70.0385 96.3266 69.5555 99.0242 69.0608C99.1538 66.5989 99.0477 63.1592 98.0465 59.2366C97.3044 56.4213 96.3031 54.0771 95.3607 52.2866Z" fill="#828181"/>
</g>
<g id="head">
<path id="Path_141" d="M60.3037 41.3197C61.1283 42.5213 61.8704 43.5107 62.4712 44.2646C63.9436 46.1376 64.509 46.6206 65.2983 46.7855C65.9697 46.9268 66.6058 46.809 66.9828 46.7266C68.0311 46.5145 68.4552 46.0905 69.1502 45.7607C70.069 45.3366 70.4342 45.5486 73.4144 45.584C75.5701 45.6075 75.3345 45.4897 77.2664 45.5251C78.9626 45.5604 80.3644 45.6664 81.3539 45.7607C81.0712 45.5368 80.7885 45.3248 80.5175 45.101C80.1288 44.995 78.998 44.6416 78.1145 43.5343C77.3842 42.6155 77.2075 41.6731 77.1486 41.2491C77.3959 41.1784 77.8318 41.0017 78.1145 40.5894C78.7035 39.7177 78.0909 38.528 77.8789 38.1275C77.6198 37.6327 77.1486 36.7375 76.5007 36.8081C76.0177 36.8553 75.5583 37.4207 75.417 38.1864C74.3097 38.5397 72.637 38.8696 70.9054 38.3042C67.6424 37.2322 66.971 33.8397 65.1923 33.7926C64.0379 33.7808 62.4005 35.1237 60.3037 41.3197Z" fill="white"/>
<path id="Path_142" d="M59.9856 40.7777C60.9162 42.9098 62.3297 44.7946 64.1085 46.2906C64.2852 46.4319 64.5325 46.1846 64.3558 46.0432C62.5889 44.559 61.2107 42.7096 60.2801 40.601C60.1976 40.4008 59.8914 40.5775 59.9856 40.7777Z" fill="#161616"/>
<path id="Path_143" d="M65.6402 43.3222C65.7462 43.923 65.8758 44.512 66.0289 45.101C66.1703 45.6075 66.2763 46.22 66.5354 46.6794C66.9006 47.3273 68.0668 46.5263 68.4437 46.2318C68.6204 46.0905 68.3731 45.8431 68.1964 45.9844C67.9372 46.1847 67.4189 46.5852 67.0655 46.5381C66.6768 46.491 66.5826 45.7253 66.4883 45.4308C66.2763 44.7122 66.1114 43.9819 65.9818 43.2398C65.9347 43.0042 65.5931 43.0984 65.6402 43.3222Z" fill="#161616"/>
<path id="Path_144" d="M64.026 43.3929C63.5783 43.016 63.0011 42.533 63.2132 41.8734C63.1189 41.8969 63.0129 41.9205 62.9187 41.9558C63.3781 42.4034 63.7315 42.9335 63.9553 43.5343C63.9906 43.4636 64.0378 43.3929 64.0731 43.3222C64.0024 43.2633 63.92 43.2045 63.8493 43.1573C63.7904 42.9335 63.4488 43.0278 63.5077 43.2516C63.5901 43.5696 63.8493 43.711 64.1673 43.6639C64.2616 43.6521 64.3205 43.5225 64.2851 43.4518C64.0378 42.7922 63.6608 42.215 63.1543 41.7202C63.06 41.626 62.8951 41.6731 62.8598 41.8027C62.6124 42.5919 63.2014 43.2045 63.7668 43.6639C63.9435 43.7817 64.2027 43.5343 64.026 43.3929Z" fill="#161616"/>
<path id="Path_145" d="M62.9186 42.0853C63.2013 42.5212 63.484 42.957 63.7667 43.3929C63.8845 43.5814 64.1908 43.4047 64.073 43.2162C63.7903 42.7803 63.5076 42.3445 63.2249 41.9086C63.1071 41.7084 62.8008 41.8851 62.9186 42.0853Z" fill="#161616"/>
<path id="Path_146" d="M68.243 41.5905C68.031 41.3432 67.8072 41.0605 67.7011 40.7424C67.6658 40.6482 67.654 40.5421 67.654 40.4479C67.6776 40.2948 67.7129 40.283 67.7836 40.4008C67.9014 40.4479 68.0074 40.6717 68.0781 40.7777C68.243 41.0251 68.3961 41.296 68.4786 41.567C68.5257 41.7201 68.5846 41.7437 68.4197 41.673C68.2666 41.6023 68.1252 41.4374 68.0192 41.3196C67.8661 41.1429 67.6187 41.4021 67.7718 41.567C67.9603 41.779 68.5728 42.4033 68.8202 41.9204C69.044 41.4845 68.4904 40.7188 68.243 40.4008C68.031 40.1299 67.5244 39.588 67.3242 40.1888C67.1239 40.7895 67.6305 41.4138 67.9839 41.8261C68.137 42.0146 68.3844 41.7672 68.243 41.5905Z" fill="#161616"/>
<path id="Path_147" d="M67.4655 40.4597C67.7364 40.8955 68.0074 41.3314 68.2783 41.7672C68.3961 41.9557 68.7024 41.779 68.5846 41.5905C68.3372 41.19 68.1252 40.7895 67.9249 40.3654C67.8307 40.4361 67.7364 40.5068 67.6422 40.5775C67.9131 40.8366 68.1134 41.1429 68.243 41.4963C68.3254 41.7083 68.667 41.6141 68.5846 41.402C68.4314 40.9897 68.2076 40.6364 67.8896 40.3301C67.7364 40.1887 67.5244 40.3654 67.6069 40.5421C67.8071 40.9662 68.0191 41.3785 68.2665 41.7672C68.3725 41.7083 68.4668 41.6494 68.5728 41.5905C68.3019 41.1547 68.0309 40.7188 67.76 40.283C67.654 40.0945 67.3477 40.2712 67.4655 40.4597Z" fill="#161616"/>
<path id="Path_148" d="M76.9011 42.3327C77.2663 43.2986 77.231 44.3116 76.7598 45.2305C76.6538 45.4307 76.96 45.6074 77.066 45.4072C77.5726 44.4059 77.6432 43.2868 77.2427 42.2384C77.1603 42.0382 76.8187 42.1206 76.9011 42.3327Z" fill="#161616"/>
<path id="Path_149" d="M58.5721 33.7101C58.3836 33.9692 56.6756 36.3605 57.5826 39.3643C58.4779 42.3328 61.1519 43.3929 61.4581 43.5107C61.3285 42.7804 61.1165 40.9781 61.9882 38.9756C63.0248 36.5608 64.9331 35.4299 65.5457 35.1001C65.9344 35.6655 67.4068 37.668 70.2104 38.4573C72.7194 39.1523 74.7927 38.4573 75.4759 38.1981C75.6055 37.9861 76.1002 37.2558 76.7245 37.2793C77.6198 37.3147 78.5032 38.9402 77.9732 40.0475C77.6433 40.7425 76.8659 40.9781 76.6538 41.037C76.7834 41.5435 77.0543 42.3092 77.6433 43.0749C78.6328 44.3824 79.9286 44.889 80.6707 45.1834C81.401 45.4662 87.3733 47.7396 90.9307 43.9937C92.8508 41.9794 93.7696 38.528 92.5092 36.1602C91.4844 34.252 89.6821 34.2402 84.8171 32.0845C78.9862 29.493 79.7872 28.7037 76.3358 27.6082C74.5335 27.031 67.9016 24.9225 62.7185 28.5271C60.3508 30.1644 59.1493 32.379 58.5721 33.7101Z" fill="#141414"/>
</g>
<g id="hand_l">
<path id="Path_150" d="M56.0045 53.7121C55.9573 53.0289 55.9338 51.0617 57.2178 49.2594C59.185 46.503 62.5775 46.4441 63.1547 46.4323C64.1795 46.4087 65.5342 46.5854 68.6676 48.3052C70.7054 49.4243 73.4972 51.1795 76.4774 53.9241C77.2313 53.9712 78.48 54.1362 79.764 54.8783C81.1304 55.6557 83.663 57.7054 83.1212 59.9082C82.8149 61.1568 81.5545 62.3701 80.3529 62.3112C78.4211 62.217 77.1724 58.8951 76.7719 59.0954C76.4539 59.2485 77.4198 61.2275 76.9958 61.4984C76.607 61.7458 75.0757 60.5561 74.3689 58.9422C73.7917 57.6465 73.8859 56.4214 74.0037 55.7264C71.1766 54.3953 66.5119 52.7226 60.7399 53.0171C58.9729 53.1231 57.3945 53.3823 56.0045 53.7121Z" fill="white" stroke="#161616" stroke-width="2"/>
<path id="Path_151" opacity="0.34" d="M56.0283 53.4766C56.4524 51.1913 57.4537 50.1429 58.0309 49.6835C61.6472 46.7622 68.5029 50.2843 70.5408 51.3209C72.9439 52.546 74.7461 54.042 75.6178 54.8077C77.3612 56.3508 76.9254 56.445 79.3049 58.7067C80.9422 60.2616 82.1084 61.1451 81.8728 61.7812C81.6726 62.2995 80.6831 62.3466 80.5888 62.3466C78.2918 62.4291 76.7133 58.8716 76.6427 58.7067C77.2081 60.7682 77.1021 61.3925 76.8429 61.5221C76.3482 61.7812 74.8875 60.4148 74.275 58.801C73.792 57.5288 73.9333 56.339 74.0747 55.6676C72.3195 54.8784 70.0932 54.0891 67.4663 53.5708C62.7427 52.652 58.7141 53.0054 56.0283 53.4766Z" fill="#828181"/>
</g>
<g id="sand_clock">
<path id="Path_152" d="M46.3216 54.6777C45.9447 56.692 45.4735 60.9445 47.3936 65.5857C50.9981 74.3144 59.9389 76.8823 61.1404 77.2004C61.1757 78.5786 61.2229 79.9686 61.2582 81.3468C59.0672 82.3834 55.8278 84.1975 52.6002 87.272C50.2089 89.5572 46.0389 93.6329 44.4251 100.312C43.4356 104.4 43.7301 108.087 44.3073 110.867C58.5371 111.102 72.7551 111.338 86.9849 111.573C87.4443 108.888 87.9508 103.54 85.6774 97.5909C81.6134 86.9539 71.8952 82.8193 70.034 82.0654C69.9987 80.2042 69.9516 78.3548 69.9162 76.4936C71.7421 76.0931 75.9709 74.9151 79.5166 71.1574C85.43 64.9024 84.5347 56.7156 84.3816 55.5141C71.6832 55.2314 58.9965 54.9604 46.3216 54.6777Z" fill="#F6C447" stroke="#161616"/>
<path id="Path_153" d="M48.5946 67.765C49.7608 68.4011 51.0094 68.884 52.3405 69.0725C53.3064 69.2021 54.2252 69.1196 55.1912 69.0136C56.4162 68.8723 57.6295 68.7662 58.8428 68.5542C60.0797 68.3422 61.2577 67.977 62.4828 67.7061C62.8126 67.6354 63.1189 67.6001 63.4487 67.6707C64.0966 67.8003 64.4735 68.2008 64.9683 68.5778C65.6515 69.0961 66.5349 69.0607 67.2417 68.6367C67.6187 68.4011 67.9603 68.1066 68.3372 67.8828C68.8909 67.5529 69.5034 67.388 70.1513 67.3409C70.8463 67.2938 71.5531 67.3409 72.2363 67.4705C73.0491 67.6236 73.7676 67.9535 74.5451 68.2008C76.0764 68.6956 76.5476 67.0582 77.7374 66.5046C79.1627 65.8331 81.1299 65.9038 82.6259 66.2219C82.8497 66.269 82.944 65.9274 82.7201 65.8802C81.4244 65.5975 80.1522 65.6093 78.8446 65.8331C78.291 65.9274 77.7609 66.0569 77.278 66.3514C76.7243 66.693 76.4063 67.2113 75.9351 67.6354C75.2519 68.2479 74.4626 67.7768 73.7441 67.5058C73.0962 67.2702 72.413 67.1171 71.718 67.0346C70.5636 66.8933 69.3385 66.9404 68.2901 67.5058C67.4302 67.977 66.6881 68.9194 65.6043 68.5189C65.1332 68.3422 64.8387 67.9063 64.4146 67.659C64.073 67.4469 63.6607 67.3174 63.2602 67.282C62.4945 67.2231 61.7053 67.5529 60.9632 67.7414C59.5614 68.0948 58.1243 68.3304 56.6754 68.4835C55.5446 68.6013 54.3784 68.8134 53.2357 68.778C51.6573 68.7309 50.1495 68.2008 48.783 67.4469C48.571 67.3409 48.3943 67.6472 48.5946 67.765Z" fill="#161616"/>
<path id="Path_154" d="M61.3169 79.9335C61.5054 80.3811 61.6939 80.8523 62.0119 81.2292C62.2122 81.4766 62.5185 81.6651 62.648 81.9831C62.7776 82.313 62.7776 82.7488 62.8247 83.1022C62.9779 84.3155 63.1428 85.5288 63.6493 86.6596C63.7435 86.8717 64.0498 86.6832 63.9556 86.483C63.4019 85.2697 63.2959 83.9503 63.1192 82.6428C63.0603 82.2187 63.0368 81.7829 62.7305 81.4531C62.2593 80.9347 61.9413 80.5107 61.6585 79.8392C61.5761 79.6272 61.2345 79.7214 61.3169 79.9335Z" fill="#161616"/>
<path id="Path_155" d="M69.0206 80.9581C68.5023 80.5576 68.1018 81.2997 67.9133 81.7002C67.7248 82.0772 67.5835 82.4659 67.4892 82.8664C67.3832 83.3258 67.4068 83.8559 67.1947 84.2799C66.9945 84.7158 66.6647 85.081 66.4762 85.5286C66.2995 85.9291 66.1699 86.3532 66.0521 86.7772C65.7812 87.8374 65.628 88.9329 65.4396 90.0048C65.4042 90.2287 65.7458 90.3229 65.7812 90.0991C66.0639 88.4853 66.2052 86.683 67.018 85.2341C67.2065 84.9043 67.4539 84.6216 67.5835 84.2682C67.6777 84.0208 67.6895 83.7616 67.7248 83.5143C67.7602 83.2551 68.4198 80.9345 68.7732 81.2055C68.9381 81.3468 69.1973 81.0994 69.0206 80.9581Z" fill="#161616"/>
<path id="Path_156" d="M65.2394 94.8345C65.1334 94.646 65.0274 94.4222 65.0745 94.2102C65.1452 93.8804 65.5104 93.8333 65.6282 94.1513C65.7695 94.5283 65.5457 94.9641 65.2866 95.2115C65.3572 95.1997 65.4279 95.1879 65.4986 95.1879C65.3572 95.0819 65.2159 94.9759 65.0863 94.8816C64.8978 94.7403 64.7329 95.0583 64.9096 95.1879C65.051 95.2939 65.1923 95.3999 65.3219 95.4942C65.3808 95.5413 65.4868 95.5177 65.5339 95.4706C65.958 95.0583 66.3467 93.951 65.6046 93.6212C65.3101 93.4916 64.9803 93.6448 64.8154 93.9157C64.6033 94.2691 64.7447 94.6932 64.9332 95.023C65.0392 95.2115 65.3455 95.0348 65.2394 94.8345Z" fill="#161616"/>
<path id="Path_157" d="M64.3086 98.8869C64.2261 98.7219 64.0965 98.4981 64.1319 98.2979C64.1554 98.1801 64.3086 98.0152 64.4264 98.1212C64.5442 98.2154 64.5559 98.4981 64.5206 98.6277C64.4853 98.7455 64.285 98.9458 64.179 98.7926C64.0494 98.6159 63.7432 98.7926 63.8727 98.9693C64.0612 99.2402 64.4499 99.2638 64.6973 99.0282C64.9682 98.7691 64.9447 98.2508 64.7444 97.9563C64.5442 97.6618 64.1554 97.7089 63.9434 97.9563C63.6371 98.2861 63.8256 98.7455 64.0023 99.0871C64.1083 99.2638 64.4146 99.0871 64.3086 98.8869Z" fill="#161616"/>
<path id="Path_158" d="M66.017 100.289C65.8639 100.171 66.017 99.782 66.2291 99.8998C66.3233 99.9469 66.3822 100.088 66.3587 100.194C66.3233 100.347 66.1231 100.324 66.0406 100.241C65.8757 100.077 65.6283 100.336 65.7932 100.489C66.0406 100.724 66.5 100.724 66.6649 100.395C66.7945 100.124 66.6767 99.782 66.4411 99.6171C66.182 99.4404 65.8521 99.5464 65.699 99.8174C65.5459 100.088 65.593 100.418 65.8521 100.595C66.017 100.724 66.1937 100.418 66.017 100.289Z" fill="#161616"/>
<path id="Path_159" d="M54.4374 111.067C55.4151 110.278 56.3928 109.488 57.3705 108.699C57.8417 108.322 58.2894 107.922 58.7959 107.592C59.3024 107.262 59.856 107.109 60.4215 106.897C62.1884 106.214 63.7433 103.281 65.7694 105.118C66.4291 105.707 66.9709 106.226 67.8308 106.508C68.8086 106.826 69.7745 107.015 70.7051 107.474C72.4956 108.358 73.9562 109.783 74.934 111.515C75.04 111.715 75.3462 111.538 75.2402 111.338C74.4863 109.983 73.4497 108.829 72.1775 107.934C71.565 107.498 70.8935 107.133 70.1985 106.85C69.3975 106.52 68.5612 106.39 67.7484 106.096C66.2877 105.566 65.5338 103.705 63.7551 104.247C63.0365 104.47 62.4593 104.953 61.9057 105.448C61.5759 105.743 61.246 106.037 60.8691 106.273C60.3861 106.579 59.8325 106.685 59.3142 106.909C58.4896 107.262 57.8064 107.886 57.1114 108.44C56.1337 109.229 55.156 110.019 54.1783 110.808C54.0133 110.961 54.2607 111.208 54.4374 111.067Z" fill="#161616"/>
<path id="Path_160" d="M69.7039 79.1441C69.5743 80.0982 69.4329 81.0406 69.3034 81.9948C69.1856 82.8547 69.1738 83.8677 68.7851 84.6687C68.8675 84.6452 68.95 84.6216 69.0324 84.6098C68.7026 84.386 68.9264 83.2787 68.9264 82.9489C68.9382 82.3717 68.95 81.8063 68.9617 81.2291C68.9617 81.0053 68.6084 81.0053 68.6084 81.2291C68.5848 82.0654 68.573 82.9018 68.5495 83.7499C68.5377 84.174 68.4552 84.6452 68.844 84.9161C68.9146 84.9632 69.0442 84.9397 69.0913 84.8572C69.4683 84.0797 69.5036 83.1727 69.6214 82.3246C69.7628 81.2998 69.9159 80.2749 70.0573 79.2501C70.069 79.0145 69.7274 78.9203 69.7039 79.1441Z" fill="#161616"/>
<path id="Path_161" d="M61.1516 77.6482C60.9632 78.6495 61.1045 79.6154 61.5522 80.5225C61.6582 80.7227 61.9527 80.546 61.8584 80.3458C61.4579 79.5212 61.3283 78.6377 61.4933 77.7425C61.5286 77.5187 61.187 77.4244 61.1516 77.6482Z" fill="#161616"/>
<path id="Path_162" d="M54.6729 72.6535C56.8168 74.2201 59.4672 74.8209 61.7053 76.1991C61.8938 76.3169 62.0822 76.0106 61.882 75.8929C59.6321 74.5146 56.9817 73.9139 54.8496 72.3472C54.6611 72.2058 54.4844 72.5121 54.6729 72.6535Z" fill="#161616"/>
<path id="Path_163" d="M61.5407 74.4795C62.6009 75.1274 63.343 76.1169 63.661 77.3302C63.7199 77.554 64.0615 77.4597 64.0026 77.2359C63.6728 75.9402 62.8718 74.8682 61.7292 74.1732C61.5289 74.0554 61.3522 74.3617 61.5407 74.4795Z" fill="#161616"/>
<path id="Path_164" d="M67.6539 78.9321C68.2193 77.3772 68.9615 75.8105 70.3397 74.821C70.5281 74.6914 70.3514 74.3851 70.163 74.5147C68.7023 75.5749 67.9131 77.1769 67.3123 78.8378C67.2416 79.0616 67.5832 79.1441 67.6539 78.9321Z" fill="#161616"/>
<path id="Path_165" d="M57.029 110.242C58.2305 108.923 59.7736 108.016 61.5052 107.592C61.729 107.545 61.6348 107.203 61.411 107.25C59.6205 107.674 58.0184 108.629 56.7816 109.983C56.6284 110.172 56.8758 110.419 57.029 110.242Z" fill="#161616"/>
<path id="Path_166" d="M59.7384 109.135C60.5866 108.758 61.4347 108.381 62.2828 108.004C62.4948 107.91 62.3064 107.604 62.1061 107.698C61.258 108.075 60.4099 108.452 59.5617 108.829C59.3615 108.923 59.5382 109.229 59.7384 109.135Z" fill="#161616"/>
<path id="Path_167" d="M66.7707 104.741C67.8073 105.695 69.48 105.366 70.4342 106.402C70.5873 106.567 70.8347 106.32 70.6815 106.155C69.7038 105.095 68.0547 105.436 67.0181 104.494C66.8532 104.329 66.6058 104.588 66.7707 104.741Z" fill="#161616"/>
<path id="Path_168" d="M44.3188 112.115C55.4505 112.115 66.5823 112.115 77.7258 112.115C80.8592 112.115 84.0043 112.115 87.1377 112.115C88.5041 112.115 88.5041 109.995 87.1377 109.995C76.006 109.995 64.8742 109.995 53.7307 109.995C50.5973 109.995 47.4522 109.995 44.3188 109.995C42.9523 109.995 42.9523 112.115 44.3188 112.115Z" fill="#161616"/>
<path id="Path_169" d="M45.9916 55.4082C56.0279 55.4082 66.0641 55.4082 76.1003 55.4082C78.9274 55.4082 81.7428 55.4082 84.5699 55.4082C85.9363 55.4082 85.9363 53.2878 84.5699 53.2878C74.5337 53.2878 64.4974 53.2878 54.4612 53.2878C51.6341 53.2878 48.8187 53.2878 45.9916 53.2878C44.6252 53.2878 44.6252 55.4082 45.9916 55.4082Z" fill="#161616"/>
<path id="Path_170" d="M43.1172 53.2878C42.2926 53.2878 41.4681 53.2878 40.6435 53.2878C39.277 53.2878 39.277 55.4082 40.6435 55.4082C41.4681 55.4082 42.2926 55.4082 43.1172 55.4082C44.4836 55.4082 44.4836 53.2878 43.1172 53.2878Z" fill="#161616"/>
<path id="Path_171" d="M36.014 55.1726C36.3321 55.1726 36.6501 55.1726 36.9682 55.1726C37.5218 55.1726 38.0519 54.6896 38.0284 54.1124C38.0048 53.5352 37.5572 53.0522 36.9682 53.0522C36.6501 53.0522 36.3321 53.0522 36.014 53.0522C35.4604 53.0522 34.9303 53.5352 34.9539 54.1124C34.9774 54.6778 35.4133 55.1726 36.014 55.1726Z" fill="#161616"/>
<path id="Path_172" d="M89.5995 111.962C91.2722 111.962 92.9567 111.962 94.6294 111.962C95.9959 111.962 95.9959 109.842 94.6294 109.842C92.9567 109.842 91.2722 109.842 89.5995 109.842C88.2331 109.842 88.2331 111.962 89.5995 111.962Z" fill="#161616"/>
<path id="Path_173" d="M98.2343 112.198C98.5288 112.198 98.8232 112.198 99.1177 112.198C99.6714 112.198 100.201 111.715 100.178 111.138C100.154 110.56 99.7067 110.077 99.1177 110.077C98.8232 110.077 98.5288 110.077 98.2343 110.077C97.6806 110.077 97.1505 110.56 97.1741 111.138C97.1977 111.715 97.6335 112.198 98.2343 112.198Z" fill="#161616"/>
<path id="Path_174" d="M61.1399 77.283C61.0574 78.0958 60.9868 78.9204 61.1517 79.7214C61.3284 80.5695 61.8585 81.1703 62.2472 81.9242C62.6948 82.7723 62.8244 83.7971 63.0364 84.7159C63.2602 85.6936 63.484 86.6713 63.7079 87.6491C63.8139 88.0967 64.4853 87.9082 64.3911 87.4606C64.179 86.5182 63.9552 85.5758 63.7432 84.6335C63.5429 83.7618 63.4016 82.843 63.0718 82.0184C62.7773 81.2763 62.1765 80.6755 61.9291 79.9098C61.6582 79.0617 61.7642 78.1429 61.8467 77.283C61.8938 76.8354 61.187 76.8354 61.1399 77.283Z" fill="#161616"/>
<path id="Path_175" d="M59.5383 76.9296C60.1862 77.2358 60.8458 77.3301 61.5526 77.2123C62.0002 77.1416 61.8117 76.4584 61.3641 76.5291C60.8576 76.6115 60.3511 76.5408 59.8917 76.317C59.4794 76.1168 59.126 76.7293 59.5383 76.9296Z" fill="#161616"/>
<path id="Path_176" d="M68.2667 80.9934C67.7013 81.3939 67.4186 81.9711 67.289 82.6308C67.1947 83.0784 67.1712 83.5378 67.0416 83.9854C66.912 84.4331 66.7 84.8454 66.488 85.2694C65.6987 86.8597 64.9095 88.5442 65.1333 90.3582C65.1922 90.8058 65.899 90.8058 65.8401 90.3582C65.628 88.6502 66.3584 87.107 67.1005 85.6228C67.4186 84.9867 67.713 84.3624 67.8308 83.6674C67.9604 82.9488 67.9722 82.0654 68.6201 81.606C68.997 81.335 68.6436 80.7225 68.2667 80.9934Z" fill="#161616"/>
<path id="Path_177" d="M61.3875 96.7783C61.8469 96.7783 61.8469 96.0715 61.3875 96.0715C60.9399 96.0715 60.9399 96.7783 61.3875 96.7783Z" fill="#161616"/>
<path id="Path_178" d="M60.1151 102.609C60.5745 102.609 60.5745 101.902 60.1151 101.902C59.6557 101.902 59.6557 102.609 60.1151 102.609Z" fill="#161616"/>
<path id="Path_179" d="M63.7553 89.0979C63.7907 89.3335 63.826 89.5808 63.8613 89.8164C63.8849 90.0049 64.1323 90.1109 64.2972 90.0638C64.4974 90.0049 64.5681 89.8164 64.5446 89.628C64.5092 89.3924 64.4739 89.145 64.4385 88.9094C64.415 88.7209 64.1676 88.6149 64.0027 88.662C63.8024 88.7209 63.7318 88.9094 63.7553 89.0979Z" fill="#161616"/>
<path id="Path_180" d="M65.5928 92.1135C65.5928 92.137 65.5928 92.1724 65.5928 92.1959C65.5928 92.3844 65.7577 92.5611 65.9462 92.5493C66.1346 92.5375 66.2996 92.3962 66.2996 92.1959C66.2996 92.1724 66.2996 92.137 66.2996 92.1135C66.2996 91.925 66.1346 91.7483 65.9462 91.7601C65.7577 91.7719 65.5928 91.9132 65.5928 92.1135Z" fill="#161616"/>
<path id="Path_181" d="M75.3108 68.4246C76.4416 68.0005 77.3369 67.1759 78.4206 66.6694C79.7517 66.0568 81.1535 66.799 82.4728 66.2924C82.8969 66.1275 82.7084 65.4443 82.2843 65.6092C81.5658 65.8802 80.8354 65.727 80.0815 65.6799C79.4572 65.6328 78.8682 65.7152 78.291 65.9508C77.1602 66.4102 76.2531 67.3055 75.1105 67.7413C74.71 67.9062 74.8867 68.5895 75.3108 68.4246Z" fill="#161616"/>
<path id="Path_182" d="M77.4664 89.2863C76.3945 89.7458 77.3015 90.8766 77.7962 91.3713C78.8093 92.3844 79.7163 93.5035 80.5055 94.6932C82.0487 97.0138 83.1206 99.6171 83.6978 102.338C83.7449 102.562 84.0865 102.468 84.0394 102.244C83.5447 99.9351 82.6966 97.7088 81.5186 95.6591C80.9532 94.6696 80.3053 93.7273 79.5867 92.8438C79.2216 92.3962 78.8446 91.9603 78.4441 91.5363C78.0907 91.1711 76.6772 90.0049 77.6431 89.5926C77.8551 89.4984 77.6667 89.1921 77.4664 89.2863Z" fill="#161616"/>
<path id="Path_183" d="M78.7742 90.1933C82.3434 93.1618 83.7923 97.697 85.0998 101.985C85.1705 102.197 85.5121 102.114 85.4414 101.891C84.1103 97.5438 82.6379 92.9498 79.0215 89.9342C78.8448 89.7928 78.5975 90.0402 78.7742 90.1933Z" fill="#161616"/>
<path id="Path_184" d="M83.8511 103.516C84.0749 103.834 84.3459 104.211 84.7699 104.246C85.0998 104.27 85.4532 104.081 85.5003 103.728C85.5356 103.504 85.194 103.41 85.1587 103.634C85.1233 103.858 84.8877 103.94 84.6875 103.869C84.4519 103.787 84.287 103.54 84.1574 103.339C84.0278 103.151 83.7216 103.328 83.8511 103.516Z" fill="#161616"/>
<path id="Path_185" d="M84.5463 108.487C85.0764 108.723 85.7361 108.558 86.0188 108.028C86.2897 107.521 86.0777 106.826 85.5829 106.544C85.0764 106.261 84.3814 106.461 84.0869 106.956C83.7924 107.474 84.0044 108.134 84.4756 108.452C84.6641 108.581 84.8408 108.275 84.6523 108.146C84.3343 107.934 84.1929 107.474 84.3932 107.133C84.5817 106.803 85.0646 106.661 85.4062 106.85C85.7478 107.027 85.8892 107.51 85.7125 107.851C85.5358 108.205 85.0646 108.334 84.723 108.181C84.5228 108.087 84.3343 108.393 84.5463 108.487Z" fill="#161616"/>
<path id="Path_186" d="M48.4651 57.2103C48.5829 62.6643 50.8564 67.9534 54.7437 71.77C54.9086 71.9349 55.156 71.6757 54.991 71.5226C51.1627 67.7649 48.9245 62.5701 48.8185 57.2103C48.8067 56.9865 48.4534 56.9865 48.4651 57.2103Z" fill="#161616"/>
<path id="Path_187" d="M48.8424 57.0574C48.5361 56.7511 48.1003 56.7629 47.7705 57.0338C47.3346 57.399 47.3817 58.0586 47.4288 58.5769C47.5466 60.1201 47.8529 61.6396 48.3123 63.1121C49.2311 66.0334 50.7743 68.7427 52.8121 71.0162C52.9653 71.1811 53.2126 70.9338 53.0595 70.7688C51.3986 68.9194 50.0793 66.7991 49.1722 64.4903C48.7364 63.4066 48.4066 62.2757 48.1592 61.1331C48.0296 60.5088 47.9236 59.8845 47.8529 59.2601C47.8176 58.9657 47.7822 58.6829 47.7705 58.3885C47.7587 58.2589 47.7469 58.1293 47.7587 58.0115C47.7705 57.7288 48.0767 56.7864 48.595 57.3165C48.7599 57.4696 49.0073 57.2105 48.8424 57.0574Z" fill="#161616"/>
<path id="Path_188" opacity="0.25" d="M84.6285 55.5966C84.6403 55.9735 74.4863 56.5861 54.1782 57.4577C53.8248 59.0598 53.5892 61.2508 54.1782 63.6774C56.0629 71.5108 64.5678 74.5264 65.416 74.8091C65.522 77.8247 65.6398 80.8521 65.7458 83.8677C64.8388 84.2093 63.649 84.7276 62.3415 85.5168C61.5051 86.0233 59.5144 87.3191 57.665 89.4276C56.6166 90.6292 53.2476 94.4929 52.9767 100.347C52.8118 103.822 53.813 106.626 54.614 108.31C64.1791 108.852 73.7559 109.406 83.321 109.948C70.2927 110.054 57.2762 110.172 44.248 110.278C43.8357 107.651 43.447 102.621 45.5555 96.9666C45.9442 95.9418 49.1719 87.6725 57.7828 82.996C59.1492 82.2539 60.3389 81.7709 61.1635 81.4646C61.1282 80.0039 61.0928 78.5551 61.0575 77.0944C59.8678 76.7881 58.1008 76.2227 56.1454 75.1272C55.0028 74.4911 47.4167 70.0855 45.9914 61.4864C45.7675 60.1199 45.5791 57.9643 46.0974 55.2667C71.777 55.0665 84.6167 55.1725 84.6285 55.5966Z" fill="#474747"/>
<path id="Path_189" opacity="0.3" d="M67.5013 55.3022C61.3877 56.1622 55.2741 57.0221 49.1605 57.8702C49.3254 59.9081 49.9615 64.1134 52.8475 68.3776C56.4167 73.6431 61.2581 75.8106 63.1311 76.5409C63.2371 78.779 63.3549 81.0172 63.4609 83.2553C59.4676 84.0327 56.8408 85.6583 55.4037 86.7185C54.4495 87.4253 45.8268 93.7392 46.7928 102.821C46.9577 104.388 47.5231 107.074 49.6905 110.042C47.8294 110.066 45.98 110.089 44.1188 110.101C43.7418 107.215 43.4002 101.266 46.4865 95.1292C48.8424 90.4644 52.2114 87.602 54.1668 85.9764C56.7937 83.7972 59.3027 82.3836 61.1403 81.5001C61.1992 80.0512 61.2699 78.6023 61.3288 77.1534C58.9847 76.6587 54.3082 75.304 50.7036 71.1341C50.4444 70.8396 49.5492 69.7794 48.6539 68.1892C46.0389 63.548 45.8622 58.6948 46.1095 55.5261C53.2598 55.4436 60.3864 55.3729 67.5013 55.3022Z" fill="#474747"/>
</g>
<g id="hand_r">
<path id="Path_190" d="M60.8691 50.2488C57.182 52.9346 54.3432 56.2446 54.6141 56.5745C54.7437 56.7394 55.4622 56.5273 58.1244 54.8193C57.665 55.0902 56.5813 55.7852 56.0159 57.1399C55.8509 57.5404 55.3091 58.6595 55.8038 59.3898C56.3339 60.1555 57.7357 60.0848 58.6427 59.7785C60.3979 59.1895 61.2342 57.3637 61.3285 57.4344C61.4698 57.5286 59.5144 60.3204 59.7971 60.5442C60.0916 60.7916 63.1543 58.1883 65.4985 54.5366C66.217 53.4175 66.7118 52.4398 67.0416 51.7213C69.1266 51.7684 71.7063 51.9451 74.6277 52.428C79.9049 53.2879 81.9193 54.4188 85.512 53.8298C87.7148 53.4764 91.284 52.3456 91.4136 50.6729C91.5785 48.5997 86.4191 46.6914 85.3 46.2791C76.7951 43.1339 68.8203 46.0435 67.5246 46.5382C64.2969 47.7751 62.0706 49.3771 60.8691 50.2488Z" fill="white" stroke="#161616"/>
<path id="Path_191" d="M55.5093 59.2012C55.5682 59.319 55.6035 59.3426 55.7095 59.4133C55.7684 59.4604 55.8745 59.4368 55.9216 59.3897C57.0878 57.9997 58.1008 56.3859 59.7617 55.526C59.962 55.42 59.7853 55.1137 59.585 55.2197C57.8888 56.0914 56.8639 57.717 55.6742 59.1423C55.7449 59.1306 55.8156 59.1188 55.8862 59.1188C55.8627 59.0835 55.8391 59.0599 55.8156 59.0246C55.7095 58.8243 55.4033 59.001 55.5093 59.2012Z" fill="#161616"/>
<path id="Path_192" d="M56.6167 60.1084C57.3353 60.2733 57.995 59.2956 58.419 58.8362C59.114 58.0823 59.7737 57.3284 60.6807 56.8101C60.881 56.6923 60.7043 56.3978 60.504 56.5038C59.8208 56.8926 59.2672 57.4109 58.7371 57.9763C58.4661 58.2708 58.207 58.5653 57.9243 58.8598C57.6651 59.1425 57.1233 59.861 56.711 59.7668C56.4872 59.7197 56.3929 60.0613 56.6167 60.1084Z" fill="#161616"/>
<path id="Path_193" opacity="0.33" d="M55.5565 57.8938C58.3836 55.903 59.0668 55.4436 59.0786 55.4672C59.1022 55.4908 57.9713 56.174 56.9936 57.4815C56.4989 58.153 56.1808 58.7891 55.9806 59.2602C56.0159 59.3309 56.1219 59.5194 56.334 59.6372C56.6049 59.7903 56.8523 59.755 56.9347 59.7432C57.0054 59.7079 57.1114 59.649 57.2292 59.5665C57.6415 59.2956 57.8889 58.9775 57.9831 58.8715C58.0302 58.8126 58.7723 57.882 59.1139 57.5169C59.4202 57.187 59.9385 56.763 60.7867 56.4567C60.0917 57.5169 59.3849 58.5888 58.6899 59.649C59.4084 59.2956 59.8796 58.8951 60.1741 58.5888C60.4686 58.2943 60.5628 58.1176 61.0929 57.458C61.5877 56.8454 61.9528 56.4567 62.0942 56.2918C63.3311 54.8782 65.1805 51.5092 66.3584 50.3784C68.8793 47.94 72.9432 49.9308 80.9651 49.9897C85.0173 50.025 88.3745 49.5185 90.6833 49.0591C90.8836 49.2004 91.2605 49.5185 91.4019 50.0368C91.4019 50.0368 91.5786 50.6847 91.131 51.4975C90.6362 52.4163 88.1625 54.0654 82.897 53.9241C78.5974 53.8063 77.2899 52.6283 71.5297 51.9804C69.5978 51.7684 68.0076 51.7095 66.9945 51.6859C66.0404 53.9476 64.9449 55.6086 64.0849 56.7276C62.1884 59.2131 60.0445 60.9447 59.7265 60.7091C59.7029 60.6973 59.644 60.6385 59.6087 60.5324C59.5262 60.2968 59.7029 60.0259 59.7972 59.8846C59.9739 59.6018 60.1977 59.2249 60.4804 58.683C60.2919 58.9186 59.9856 59.2367 59.538 59.5076C58.3247 60.2497 56.3457 60.4853 55.6743 59.5194C55.5801 59.4016 55.2738 58.9068 55.5565 57.8938Z" fill="#828181"/>
<path id="Path_194" opacity="0.51" d="M68.6436 51.6742C68.6554 51.5682 71.3529 51.6389 74.3331 51.792C82.0724 52.1925 84.0985 52.7579 87.0905 51.6742C88.9752 50.991 90.3181 49.9897 91.0484 49.3772C91.2722 49.813 91.5078 50.4609 91.3311 51.1088C90.8953 52.6873 88.3627 53.2056 86.7253 53.5354C85.8183 53.7239 84.2751 53.9477 81.8368 53.7357C79.6693 53.559 78.8094 53.2056 76.5124 52.7226C71.9183 51.7685 68.6318 51.7802 68.6436 51.6742Z" fill="#828181"/>
</g>
</g>
</svg>
