<svg width="41" height="40" viewBox="0 0 41 40" fill="none" xmlns="http://www.w3.org/2000/svg">
<g id="material-symbols:add-rounded">
<path id="Vector" d="M20.5754 31.6667C20.1031 31.6667 19.707 31.5067 19.387 31.1867C19.067 30.8667 18.9076 30.4711 18.9087 30V21.6667H10.5754C10.1031 21.6667 9.70703 21.5067 9.38703 21.1867C9.06703 20.8667 8.90759 20.4711 8.9087 20C8.9087 19.5278 9.0687 19.1317 9.3887 18.8117C9.7087 18.4917 10.1043 18.3322 10.5754 18.3333H18.9087V10C18.9087 9.52778 19.0687 9.13167 19.3887 8.81167C19.7087 8.49167 20.1043 8.33222 20.5754 8.33333C21.0476 8.33333 21.4437 8.49333 21.7637 8.81333C22.0837 9.13333 22.2431 9.52889 22.242 10V18.3333H30.5754C31.0476 18.3333 31.4437 18.4933 31.7637 18.8133C32.0837 19.1333 32.2431 19.5289 32.242 20C32.242 20.4722 32.082 20.8683 31.762 21.1883C31.442 21.5083 31.0465 21.6678 30.5754 21.6667H22.242V30C22.242 30.4722 22.082 30.8683 21.762 31.1883C21.442 31.5083 21.0465 31.6678 20.5754 31.6667Z" fill="#A3A3A3"/>
</g>
</svg>
