<svg width="25" height="24" viewBox="0 0 25 24" fill="none" xmlns="http://www.w3.org/2000/svg">
<g id="mingcute:bling-line" clip-path="url(#clip0_107_6001)">
<g id="Group">
<path id="Vector" d="M10.8274 2.6139C11.1654 1.8539 12.2064 1.8169 12.6144 2.4999L12.6734 2.6139L13.7154 4.9589C14.6253 7.00582 16.1384 8.72617 18.0524 9.8899L18.3744 10.0789L20.2244 11.1189C20.3715 11.2012 20.4956 11.3191 20.5855 11.4617C20.6753 11.6043 20.7281 11.7671 20.7389 11.9353C20.7498 12.1035 20.7183 12.2717 20.6475 12.4246C20.5767 12.5776 20.4687 12.7104 20.3334 12.8109L20.2254 12.8809L18.3744 13.9209C16.4218 15.0193 14.8511 16.6876 13.8724 18.7029L13.7154 19.0409L12.6734 21.3859C12.3354 22.1459 11.2944 22.1829 10.8864 21.4999L10.8274 21.3859L9.78539 19.0409C8.87552 16.994 7.36241 15.2736 5.44839 14.1099L5.12639 13.9209L3.27639 12.8809C3.12932 12.7986 3.00519 12.6807 2.91532 12.5381C2.82545 12.3956 2.77269 12.2327 2.76186 12.0645C2.75102 11.8963 2.78245 11.7281 2.85328 11.5752C2.92412 11.4222 3.0321 11.2894 3.16739 11.1889L3.27539 11.1189L5.12639 10.0789C7.07901 8.98055 8.6497 7.31216 9.62839 5.2969L9.78539 4.9589L10.8274 2.6139ZM11.7504 5.4619C10.5064 8.2619 8.46439 10.4959 5.79039 11.9999C8.46439 13.5039 10.5064 15.7379 11.7504 18.5379C12.9984 15.7309 15.0404 13.5019 17.7104 11.9999C15.0364 10.4959 12.9944 8.2619 11.7504 5.4619ZM19.9704 2.1219C20.4672 3.24928 21.314 4.18659 22.3854 4.7949C22.5454 4.8849 22.5454 5.1149 22.3854 5.2049C21.3137 5.81373 20.4669 6.75178 19.9704 7.8799C19.9514 7.92237 19.9205 7.95843 19.8815 7.98374C19.8424 8.00905 19.7969 8.02251 19.7504 8.02251C19.7039 8.02251 19.6583 8.00905 19.6193 7.98374C19.5803 7.95843 19.5494 7.92237 19.5304 7.8799C19.0337 6.75215 18.1869 5.81448 17.1154 5.2059C17.0792 5.18527 17.0492 5.15544 17.0282 5.11944C17.0073 5.08344 16.9963 5.04254 16.9963 5.0009C16.9963 4.95927 17.0073 4.91837 17.0282 4.88237C17.0492 4.84636 17.0792 4.81653 17.1154 4.7959C18.1872 4.18681 19.0341 3.24839 19.5304 2.1199C19.5494 2.07743 19.5803 2.04137 19.6193 2.01607C19.6583 1.99076 19.7039 1.97729 19.7504 1.97729C19.7969 1.97729 19.8424 1.99076 19.8815 2.01607C19.9205 2.04137 19.9514 2.07743 19.9704 2.1199V2.1219Z" fill="#A3A3A3"/>
</g>
</g>
<defs>
<clipPath id="clip0_107_6001">
<rect width="24" height="24" fill="white" transform="translate(0.75)"/>
</clipPath>
</defs>
</svg>
