<svg width="57" height="57" viewBox="0 0 57 57" fill="none" xmlns="http://www.w3.org/2000/svg">
<g id="material-symbols:add-rounded">
<path id="Vector" d="M28.5 45.125C27.8271 45.125 27.2626 44.897 26.8066 44.441C26.3506 43.985 26.1234 43.4213 26.125 42.75V30.875H14.25C13.5771 30.875 13.0126 30.647 12.5566 30.191C12.1006 29.735 11.8734 29.1713 11.875 28.5C11.875 27.8271 12.103 27.2626 12.559 26.8066C13.015 26.3506 13.5787 26.1234 14.25 26.125H26.125V14.25C26.125 13.5771 26.353 13.0126 26.809 12.5566C27.265 12.1006 27.8287 11.8734 28.5 11.875C29.1729 11.875 29.7374 12.103 30.1934 12.559C30.6494 13.015 30.8766 13.5787 30.875 14.25V26.125H42.75C43.4229 26.125 43.9874 26.353 44.4434 26.809C44.8994 27.265 45.1266 27.8287 45.125 28.5C45.125 29.1729 44.897 29.7374 44.441 30.1934C43.985 30.6494 43.4213 30.8766 42.75 30.875H30.875V42.75C30.875 43.4229 30.647 43.9874 30.191 44.4434C29.735 44.8994 29.1713 45.1266 28.5 45.125Z" fill="#F6C447"/>
</g>
</svg>
