<svg width="25" height="24" viewBox="0 0 25 24" fill="none" xmlns="http://www.w3.org/2000/svg">
<g id="mingcute:bling-fill" clip-path="url(#clip0_76_2991)">
<g id="Group">
<path id="Vector" d="M10.8269 2.61402C11.1649 1.85403 12.2059 1.81702 12.6139 2.50002L12.6729 2.61402L13.7149 4.95902C14.6248 7.00594 16.1379 8.72629 18.0519 9.89003L18.3739 10.079L20.2239 11.119C20.371 11.2014 20.4951 11.3192 20.585 11.4618C20.6748 11.6044 20.7276 11.7672 20.7384 11.9354C20.7493 12.1036 20.7178 12.2718 20.647 12.4248C20.5762 12.5777 20.4682 12.7105 20.3329 12.811L20.2249 12.881L18.3739 13.921C16.4213 15.0194 14.8506 16.6878 13.8719 18.703L13.7149 19.041L12.6729 21.386C12.3349 22.146 11.2939 22.183 10.8859 21.5L10.8269 21.386L9.7849 19.041C8.87503 16.9941 7.36192 15.2738 5.4479 14.11L5.1259 13.921L3.2759 12.881C3.12883 12.7987 3.0047 12.6809 2.91483 12.5383C2.82496 12.3957 2.7722 12.2329 2.76137 12.0647C2.75053 11.8965 2.78196 11.7282 2.85279 11.5753C2.92363 11.4223 3.03161 11.2895 3.1669 11.189L3.2749 11.119L5.1259 10.079C7.07852 8.98067 8.64922 7.31229 9.6279 5.29702L9.7849 4.95902L10.8269 2.61402ZM19.9709 2.12102C20.4673 3.24863 21.3138 4.18628 22.3849 4.79502C22.5449 4.88502 22.5449 5.11502 22.3849 5.20502C21.3132 5.81386 20.4664 6.7519 19.9699 7.88002C19.9509 7.92249 19.92 7.95856 19.881 7.98386C19.842 8.00917 19.7964 8.02263 19.7499 8.02263C19.7034 8.02263 19.6579 8.00917 19.6188 7.98386C19.5798 7.95856 19.5489 7.92249 19.5299 7.88002C19.0333 6.75227 18.1864 5.8146 17.1149 5.20602C17.0787 5.1854 17.0487 5.15557 17.0278 5.11956C17.0068 5.08356 16.9958 5.04266 16.9958 5.00102C16.9958 4.95939 17.0068 4.91849 17.0278 4.88249C17.0487 4.84648 17.0787 4.81665 17.1149 4.79602C18.1867 4.18693 19.0336 3.24852 19.5299 2.12002C19.5489 2.07756 19.5798 2.04149 19.6188 2.01619C19.6579 1.99088 19.7034 1.97742 19.7499 1.97742C19.7964 1.97742 19.842 1.99088 19.881 2.01619C19.92 2.04149 19.9509 2.07756 19.9699 2.12002L19.9709 2.12102Z" fill="#262626"/>
</g>
</g>
<defs>
<clipPath id="clip0_76_2991">
<rect width="24" height="24" fill="white" transform="translate(0.75)"/>
</clipPath>
</defs>
</svg>
