<svg width="17" height="16" viewBox="0 0 17 16" fill="none" xmlns="http://www.w3.org/2000/svg">
<g id="mingcute:warning-fill" clip-path="url(#clip0_312_327)">
<g id="Group">
<path id="Vector" d="M8.40918 0C12.8276 0 16.4092 3.5816 16.4092 8C16.4092 12.4184 12.8276 16 8.40918 16C3.99078 16 0.40918 12.4184 0.40918 8C0.40918 3.5816 3.99078 0 8.40918 0ZM8.40918 10.4C8.19701 10.4 7.99352 10.4843 7.84349 10.6343C7.69347 10.7843 7.60918 10.9878 7.60918 11.2C7.60918 11.4122 7.69347 11.6157 7.84349 11.7657C7.99352 11.9157 8.19701 12 8.40918 12C8.62135 12 8.82484 11.9157 8.97486 11.7657C9.12489 11.6157 9.20918 11.4122 9.20918 11.2C9.20918 10.9878 9.12489 10.7843 8.97486 10.6343C8.82484 10.4843 8.62135 10.4 8.40918 10.4ZM8.40918 3.2C8.21323 3.20003 8.02411 3.27196 7.87768 3.40217C7.73125 3.53238 7.63771 3.7118 7.61478 3.9064L7.60918 4V8.8C7.60941 9.0039 7.68748 9.20003 7.82746 9.3483C7.96743 9.49656 8.15874 9.58579 8.3623 9.59774C8.56585 9.60969 8.76628 9.54346 8.92265 9.41259C9.07901 9.28172 9.1795 9.09608 9.20358 8.8936L9.20918 8.8V4C9.20918 3.78783 9.12489 3.58434 8.97486 3.43431C8.82484 3.28429 8.62135 3.2 8.40918 3.2Z" fill="#EF4444"/>
</g>
</g>
<defs>
<clipPath id="clip0_312_327">
<rect width="16" height="16" fill="white" transform="translate(0.5)"/>
</clipPath>
</defs>
</svg>
