<svg width="25" height="24" viewBox="0 0 25 24" fill="none" xmlns="http://www.w3.org/2000/svg">
<g id="solar:user-outline">
<path id="Vector" fill-rule="evenodd" clip-rule="evenodd" d="M12.2501 1.25C10.9903 1.25 9.7821 1.75044 8.8913 2.64124C8.0005 3.53204 7.50006 4.74022 7.50006 6C7.50006 7.25978 8.0005 8.46796 8.8913 9.35876C9.7821 10.2496 10.9903 10.75 12.2501 10.75C13.5098 10.75 14.718 10.2496 15.6088 9.35876C16.4996 8.46796 17.0001 7.25978 17.0001 6C17.0001 4.74022 16.4996 3.53204 15.6088 2.64124C14.718 1.75044 13.5098 1.25 12.2501 1.25ZM9.00006 6C9.00006 5.13805 9.34247 4.3114 9.95196 3.7019C10.5615 3.09241 11.3881 2.75 12.2501 2.75C13.112 2.75 13.9387 3.09241 14.5482 3.7019C15.1576 4.3114 15.5001 5.13805 15.5001 6C15.5001 6.86195 15.1576 7.6886 14.5482 8.2981C13.9387 8.90759 13.112 9.25 12.2501 9.25C11.3881 9.25 10.5615 8.90759 9.95196 8.2981C9.34247 7.6886 9.00006 6.86195 9.00006 6ZM12.2501 12.25C9.93706 12.25 7.80506 12.776 6.22606 13.664C4.67006 14.54 3.50006 15.866 3.50006 17.5V17.602C3.49906 18.764 3.49806 20.222 4.77706 21.264C5.40606 21.776 6.28706 22.141 7.47706 22.381C8.66906 22.623 10.2241 22.75 12.2501 22.75C14.2761 22.75 15.8301 22.623 17.0241 22.381C18.2141 22.141 19.0941 21.776 19.7241 21.264C21.0031 20.222 21.0011 18.764 21.0001 17.602V17.5C21.0001 15.866 19.8301 14.54 18.2751 13.664C16.6951 12.776 14.5641 12.25 12.2501 12.25ZM5.00006 17.5C5.00006 16.649 5.62206 15.725 6.96106 14.972C8.27706 14.232 10.1451 13.75 12.2511 13.75C14.3551 13.75 16.2231 14.232 17.5391 14.972C18.8791 15.725 19.5001 16.649 19.5001 17.5C19.5001 18.808 19.4601 19.544 18.7761 20.1C18.4061 20.402 17.7861 20.697 16.7261 20.911C15.6691 21.125 14.2241 21.25 12.2501 21.25C10.2761 21.25 8.83006 21.125 7.77406 20.911C6.71406 20.697 6.09406 20.402 5.72406 20.101C5.04006 19.544 5.00006 18.808 5.00006 17.5Z" fill="#A3A3A3"/>
</g>
</svg>
