<svg width="12" height="13" viewBox="0 0 12 13" fill="none" xmlns="http://www.w3.org/2000/svg">
<g id="mingcute:bling-fill" clip-path="url(#clip0_1704_12286)">
<g id="Group">
<path id="Vector" d="M5.03869 1.49213C5.2077 1.11213 5.7282 1.09363 5.9322 1.43513L5.9617 1.49213L6.4827 2.66463C6.93763 3.68809 7.69419 4.54826 8.6512 5.13013L8.8122 5.22463L9.7372 5.74463C9.81073 5.7858 9.87279 5.84472 9.91773 5.91601C9.96267 5.98731 9.98904 6.06871 9.99446 6.15281C9.99988 6.23691 9.98416 6.32103 9.94875 6.39751C9.91333 6.47398 9.85934 6.54037 9.79169 6.59063L9.73769 6.62563L8.8122 7.14563C7.83589 7.69481 7.05054 8.529 6.56119 9.53663L6.4827 9.70563L5.9617 10.8781C5.7927 11.2581 5.27219 11.2766 5.06819 10.9351L5.03869 10.8781L4.51769 9.70563C4.06276 8.68217 3.3062 7.822 2.34919 7.24013L2.18819 7.14563L1.26319 6.62563C1.18966 6.58446 1.1276 6.52555 1.08266 6.45425C1.03772 6.38296 1.01135 6.30155 1.00593 6.21745C1.00051 6.13335 1.01623 6.04923 1.05164 5.97276C1.08706 5.89629 1.14105 5.82989 1.20869 5.77963L1.26269 5.74463L2.18819 5.22463C3.1645 4.67546 3.94985 3.84126 4.43919 2.83363L4.51769 2.66463L5.03869 1.49213ZM9.61069 1.24563C9.85889 1.80943 10.2821 2.27826 10.8177 2.58263C10.8977 2.62763 10.8977 2.74263 10.8177 2.78763C10.2819 3.09205 9.85843 3.56107 9.61019 4.12513C9.6007 4.14637 9.58526 4.1644 9.56574 4.17705C9.54622 4.1897 9.52346 4.19644 9.50019 4.19644C9.47693 4.19644 9.45417 4.1897 9.43465 4.17705C9.41513 4.1644 9.39969 4.14637 9.39019 4.12513C9.14187 3.56126 8.71845 3.09242 8.18269 2.78813C8.16461 2.77782 8.14958 2.7629 8.13912 2.7449C8.12866 2.7269 8.12316 2.70645 8.12316 2.68563C8.12316 2.66481 8.12866 2.64437 8.13912 2.62636C8.14958 2.60836 8.16461 2.59345 8.18269 2.58313C8.71861 2.27859 9.14205 1.80938 9.39019 1.24513C9.39969 1.2239 9.41513 1.20587 9.43465 1.19321C9.45417 1.18056 9.47693 1.17383 9.50019 1.17383C9.52346 1.17383 9.54622 1.18056 9.56574 1.19321C9.58526 1.20587 9.6012 1.2244 9.61069 1.24563Z" fill="#0085FF"/>
</g>
</g>
<defs>
<clipPath id="clip0_1704_12286">
<rect width="12" height="12" fill="white" transform="translate(0 0.185547)"/>
</clipPath>
</defs>
</svg>
