<svg width="32" height="32" viewBox="0 0 32 32" fill="none" xmlns="http://www.w3.org/2000/svg">
<path d="M15.9993 28C23.3631 28 29.3327 22.0305 29.3327 14.6667C29.3327 7.30288 23.3631 1.33334 15.9993 1.33334C8.63555 1.33334 2.66602 7.30288 2.66602 14.6667C2.66602 22.0305 8.63555 28 15.9993 28Z" fill="#FFF59D"/>
<path d="M24.6673 14.6667C24.6673 9.53333 20.2673 5.46666 15.0006 6.06666C11.0006 6.53333 7.8006 9.73333 7.4006 13.7333C7.06727 16.8 8.33393 19.5333 10.4673 21.2667C11.4006 22.0667 12.0006 23.2 12.0006 24.4667V24.6667H20.0006V24.6C20.0006 23.4 20.5339 22.2 21.4673 21.4C23.4006 19.8 24.6673 17.4 24.6673 14.6667Z" fill="#FBC02D"/>
<path d="M20.4004 13.4667L18.4004 12.1333C18.2004 12 17.8671 12 17.6671 12.1333L16.0004 13.2L14.4004 12.1333C14.2004 12 13.8671 12 13.6671 12.1333L11.6671 13.4667C11.5337 13.6 11.4004 13.7333 11.4004 13.9333C11.4004 14.1333 11.4004 14.3333 11.5337 14.4667L14.0671 17.6V24.6667H15.4004V17.3333C15.4004 17.2 15.3337 17.0667 15.2671 16.9333L13.0671 14.2L14.0671 13.5333L15.6671 14.6C15.8671 14.7333 16.2004 14.7333 16.4004 14.6L18.0004 13.5333L19.0004 14.2L16.8004 16.9333C16.7337 17.0667 16.6671 17.2 16.6671 17.3333V24.6667H18.0004V17.6L20.5337 14.4667C20.6671 14.3333 20.7337 14.1333 20.6671 13.9333C20.6004 13.7333 20.5337 13.5333 20.4004 13.4667Z" fill="#FFF59D"/>
<path d="M16 31.3333C17.1046 31.3333 18 30.4379 18 29.3333C18 28.2288 17.1046 27.3333 16 27.3333C14.8954 27.3333 14 28.2288 14 29.3333C14 30.4379 14.8954 31.3333 16 31.3333Z" fill="#5C6BC0"/>
<path d="M17.3333 30H14.6667C13.2 30 12 28.8 12 27.3333V24H20V27.3333C20 28.8 18.8 30 17.3333 30Z" fill="#9FA8DA"/>
<path d="M20 27.3333L12.2667 28.4C12.4667 28.8667 12.8667 29.3333 13.3333 29.6L19.6 28.7333C19.8667 28.3333 20 27.8667 20 27.3333ZM12 25.8V27.1333L20 26V24.6667L12 25.8Z" fill="#5C6BC0"/>
</svg>
