<svg width="122" height="53" viewBox="0 0 122 53" fill="none" xmlns="http://www.w3.org/2000/svg">
<g filter="url(#filter0_f_978_49966)">
<rect x="51.0586" y="22" width="20" height="5" fill="#F6C447"/>
</g>
<circle cx="61" cy="12" r="10.85" stroke="#262626" stroke-width="2.3"/>
<path d="M11.1134 52.294L9.90736 49.684H3.57136L2.36536 52.294H0.943359L6.81136 40L12.5534 52.294H11.1134ZM4.16536 48.424H9.33136L6.84736 42.88L4.16536 48.424Z" fill="#262626"/>
<path d="M27.3626 40.594L21.8366 52.294H21.0986L15.7706 40.594H17.1926L21.4586 50.026L25.9586 40.594H27.3626Z" fill="#262626"/>
<path d="M40.7416 52.294L39.5356 49.684H33.1996L31.9936 52.294H30.5716L36.4396 40L42.1816 52.294H40.7416ZM33.7936 48.424H38.9596L36.4756 42.88L33.7936 48.424Z" fill="#262626"/>
<path d="M49.4728 52.33L49.5268 41.89H45.1528L45.7828 40.63H55.0708L54.4408 41.89H50.8048L50.7508 52.33H49.4728Z" fill="#262626"/>
<path d="M68.2605 52.294L67.0545 49.684H60.7185L59.5125 52.294H58.0905L63.9585 40L69.7005 52.294H68.2605ZM61.3125 48.424H66.4785L63.9945 42.88L61.3125 48.424Z" fill="#262626"/>
<path d="M79.3591 40.594C80.4991 40.594 81.4051 40.726 82.0771 40.99C82.7491 41.242 83.2411 41.65 83.5531 42.214C83.8531 42.766 84.0031 43.54 84.0031 44.536C84.0031 45.532 83.7871 46.33 83.3551 46.93C82.9231 47.53 82.2511 47.956 81.3391 48.208L84.7231 52.294H83.0851L79.8271 48.424H76.2091V52.294H74.9311V40.594H79.3591ZM82.7251 44.536C82.7251 43.828 82.6231 43.288 82.4191 42.916C82.2271 42.532 81.9091 42.256 81.4651 42.088H81.4831C80.9071 41.932 80.2051 41.854 79.3771 41.854H76.2091V47.164H79.6471C80.7271 47.164 81.5071 46.96 81.9871 46.552C82.4791 46.132 82.7251 45.46 82.7251 44.536Z" fill="#262626"/>
<path d="M91.6042 40.594V52.294H90.3262V40.594H91.6042Z" fill="#262626"/>
<path d="M97.6837 43.51C97.6837 42.886 97.8517 42.34 98.1877 41.872C98.5357 41.392 99.0217 41.02 99.6457 40.756C100.246 40.492 100.96 40.36 101.788 40.36C102.52 40.36 103.198 40.438 103.822 40.594C104.446 40.738 104.968 40.948 105.388 41.224C105.676 41.404 105.874 41.548 105.982 41.656C106.03 41.704 106.054 41.752 106.054 41.8C106.054 41.872 106.018 41.962 105.946 42.07L105.55 42.646C105.502 42.694 105.448 42.718 105.388 42.718C105.34 42.718 105.292 42.7 105.244 42.664L104.668 42.322C104.308 42.094 103.876 41.92 103.372 41.8C102.88 41.68 102.358 41.62 101.806 41.62C100.954 41.62 100.264 41.794 99.7357 42.142C99.2197 42.478 98.9617 42.928 98.9617 43.492C98.9617 43.984 99.2077 44.422 99.6997 44.806C100.204 45.178 100.996 45.526 102.076 45.85L102.652 46.012C103.612 46.288 104.302 46.528 104.722 46.732C105.154 46.924 105.508 47.206 105.784 47.578C106.072 47.986 106.216 48.538 106.216 49.234C106.216 50.278 105.826 51.088 105.046 51.664C104.266 52.24 103.18 52.528 101.788 52.528C101.164 52.528 100.546 52.45 99.9337 52.294C99.3337 52.15 98.8176 51.94 98.3857 51.664C98.0856 51.484 97.8817 51.346 97.7737 51.25C97.6777 51.154 97.6297 51.052 97.6297 50.944C97.6297 50.884 97.6537 50.812 97.7017 50.728L98.1157 50.242C98.1637 50.17 98.2357 50.134 98.3317 50.134C98.3797 50.134 98.4337 50.152 98.4937 50.188C99.1057 50.62 99.6337 50.908 100.078 51.052C100.534 51.196 101.104 51.268 101.788 51.268C103.888 51.268 104.938 50.59 104.938 49.234C104.938 48.874 104.854 48.58 104.686 48.352C104.518 48.112 104.248 47.914 103.876 47.758C103.552 47.602 103.036 47.428 102.328 47.236L101.824 47.092C100.384 46.672 99.3337 46.18 98.6737 45.616C98.0136 45.04 97.6837 44.338 97.6837 43.51Z" fill="#262626"/>
<path d="M115.458 52.33L115.512 41.89H111.138L111.768 40.63H121.056L120.426 41.89H116.79L116.736 52.33H115.458Z" fill="#262626"/>
<defs>
<filter id="filter0_f_978_49966" x="44.0586" y="15" width="34" height="19" filterUnits="userSpaceOnUse" color-interpolation-filters="sRGB">
<feFlood flood-opacity="0" result="BackgroundImageFix"/>
<feBlend mode="normal" in="SourceGraphic" in2="BackgroundImageFix" result="shape"/>
<feGaussianBlur stdDeviation="3.5" result="effect1_foregroundBlur_978_49966"/>
</filter>
</defs>
</svg>
