<svg width="182" height="34" viewBox="0 0 182 34" fill="none" xmlns="http://www.w3.org/2000/svg">
<g filter="url(#filter0_f_904_5543)">
<rect x="7" y="22" width="20" height="5" fill="#F6C447"/>
</g>
<circle cx="17" cy="12" r="10.85" stroke="#262626" stroke-width="2.3"/>
<path d="M55.16 20.268L53.72 16.908H45.128L43.688 20.268H41L48.08 3.78002H50.768L57.848 20.268H55.16ZM46.064 14.724H52.784L49.424 6.90002L46.064 14.724Z" fill="#262626"/>
<path d="M72.3444 3.78002H75.0324L67.9524 20.268H65.2644L58.1844 3.78002H60.8724L66.6084 17.148L72.3444 3.78002Z" fill="#262626"/>
<path d="M89.5288 20.268L88.0888 16.908H79.4968L78.0568 20.268H75.3688L82.4488 3.78002H85.1368L92.2168 20.268H89.5288ZM80.4328 14.724H87.1528L83.7928 6.90002L80.4328 14.724Z" fill="#262626"/>
<path d="M98.8756 20.268V6.03602H93.4756V3.78002H106.724V6.03602H101.3V20.268H98.8756Z" fill="#262626"/>
<path d="M122.116 20.268L120.676 16.908H112.084L110.644 20.268H107.956L115.036 3.78002H117.724L124.804 20.268H122.116ZM113.02 14.724H119.74L116.38 6.90002L113.02 14.724Z" fill="#262626"/>
<path d="M141.482 9.15602C141.482 11.7 139.754 13.644 137.258 14.292L141.458 20.268H138.674L134.642 14.532H130.85V20.268H128.426V3.78002H135.362C138.842 3.78002 141.482 6.01202 141.482 9.15602ZM130.85 6.03602V12.276H135.026C137.402 12.276 139.01 11.1 139.01 9.15602C139.01 7.21202 137.402 6.03602 135.026 6.03602H130.85Z" fill="#262626"/>
<path d="M145.47 20.268V3.78002H147.894V20.268H145.47Z" fill="#262626"/>
<path d="M158.621 20.532C155.861 20.532 153.581 19.572 151.829 17.892L153.293 16.092C154.757 17.484 156.485 18.396 158.717 18.396C160.997 18.396 162.173 17.196 162.173 15.876C162.173 14.316 160.805 13.716 158.045 13.092C154.685 12.3 152.453 11.292 152.453 8.31602C152.453 5.55602 154.853 3.46802 158.165 3.46802C160.709 3.46802 162.605 4.40402 164.189 5.79602L162.797 7.62002C161.405 6.34802 159.749 5.60402 158.069 5.60402C156.221 5.60402 154.925 6.78002 154.925 8.10002C154.925 9.63602 156.341 10.164 159.053 10.812C162.341 11.58 164.621 12.684 164.621 15.636C164.621 18.42 162.509 20.532 158.621 20.532Z" fill="#262626"/>
<path d="M173.383 20.268V6.03602H167.983V3.78002H181.231V6.03602H175.807V20.268H173.383Z" fill="#262626"/>
<defs>
<filter id="filter0_f_904_5543" x="0" y="15" width="34" height="19" filterUnits="userSpaceOnUse" color-interpolation-filters="sRGB">
<feFlood flood-opacity="0" result="BackgroundImageFix"/>
<feBlend mode="normal" in="SourceGraphic" in2="BackgroundImageFix" result="shape"/>
<feGaussianBlur stdDeviation="3.5" result="effect1_foregroundBlur_904_5543"/>
</filter>
</defs>
</svg>
