<svg width="182" height="34" viewBox="0 0 182 34" fill="none" xmlns="http://www.w3.org/2000/svg">
<g filter="url(#filter0_f_850_5661)">
<rect x="7" y="22" width="20" height="5" fill="#F6C447"/>
</g>
<circle cx="17" cy="12" r="10.85" stroke="#262626" stroke-width="2.3"/>
<path d="M55.16 20.2678L53.72 16.9078H45.128L43.688 20.2678H41L48.08 3.77977H50.768L57.848 20.2678H55.16ZM46.064 14.7238H52.784L49.424 6.89977L46.064 14.7238Z" fill="#262626"/>
<path d="M72.3444 3.77977H75.0324L67.9524 20.2678H65.2644L58.1844 3.77977H60.8724L66.6084 17.1478L72.3444 3.77977Z" fill="#262626"/>
<path d="M89.5288 20.2678L88.0888 16.9078H79.4968L78.0568 20.2678H75.3688L82.4488 3.77977H85.1368L92.2168 20.2678H89.5288ZM80.4328 14.7238H87.1528L83.7928 6.89977L80.4328 14.7238Z" fill="#262626"/>
<path d="M98.8756 20.2678V6.03577H93.4756V3.77977H106.724V6.03577H101.3V20.2678H98.8756Z" fill="#262626"/>
<path d="M122.116 20.2678L120.676 16.9078H112.084L110.644 20.2678H107.956L115.036 3.77977H117.724L124.804 20.2678H122.116ZM113.02 14.7238H119.74L116.38 6.89977L113.02 14.7238Z" fill="#262626"/>
<path d="M141.482 9.15577C141.482 11.6998 139.754 13.6438 137.258 14.2918L141.458 20.2678H138.674L134.642 14.5318H130.85V20.2678H128.426V3.77977H135.362C138.842 3.77977 141.482 6.01177 141.482 9.15577ZM130.85 6.03577V12.2758H135.026C137.402 12.2758 139.01 11.0998 139.01 9.15577C139.01 7.21177 137.402 6.03577 135.026 6.03577H130.85Z" fill="#262626"/>
<path d="M145.47 20.2678V3.77977H147.894V20.2678H145.47Z" fill="#262626"/>
<path d="M158.621 20.5318C155.861 20.5318 153.581 19.5718 151.829 17.8918L153.293 16.0918C154.757 17.4838 156.485 18.3958 158.717 18.3958C160.997 18.3958 162.173 17.1958 162.173 15.8758C162.173 14.3158 160.805 13.7158 158.045 13.0918C154.685 12.2998 152.453 11.2918 152.453 8.31577C152.453 5.55577 154.853 3.46777 158.165 3.46777C160.709 3.46777 162.605 4.40377 164.189 5.79577L162.797 7.61977C161.405 6.34777 159.749 5.60377 158.069 5.60377C156.221 5.60377 154.925 6.77977 154.925 8.09977C154.925 9.63577 156.341 10.1638 159.053 10.8118C162.341 11.5798 164.621 12.6838 164.621 15.6358C164.621 18.4198 162.509 20.5318 158.621 20.5318Z" fill="#262626"/>
<path d="M173.383 20.2678V6.03577H167.983V3.77977H181.231V6.03577H175.807V20.2678H173.383Z" fill="#262626"/>
<defs>
<filter id="filter0_f_850_5661" x="0" y="15" width="34" height="19" filterUnits="userSpaceOnUse" color-interpolation-filters="sRGB">
<feFlood flood-opacity="0" result="BackgroundImageFix"/>
<feBlend mode="normal" in="SourceGraphic" in2="BackgroundImageFix" result="shape"/>
<feGaussianBlur stdDeviation="3.5" result="effect1_foregroundBlur_850_5661"/>
</filter>
</defs>
</svg>
