<svg width="150" height="34" viewBox="0 0 150 34" fill="none" xmlns="http://www.w3.org/2000/svg">
<g filter="url(#filter0_f_1451_13727)">
<rect x="7" y="22" width="20" height="5" fill="#F6C447"/>
</g>
<circle cx="17" cy="13.5" r="9.4" stroke="#262626" stroke-width="1.2"/>
<path d="M44.792 18.45L43.586 15.84H37.25L36.044 18.45H34.622L40.49 6.156L46.232 18.45H44.792ZM37.844 14.58H43.01L40.526 9.036L37.844 14.58ZM60.3212 6.75L54.7952 18.45H54.0572L48.7292 6.75H50.1512L54.4172 16.182L58.9172 6.75H60.3212ZM72.9803 18.45L71.7743 15.84H65.4383L64.2323 18.45H62.8103L68.6783 6.156L74.4203 18.45H72.9803ZM66.0323 14.58H71.1983L68.7143 9.036L66.0323 14.58ZM80.9914 18.486L81.0454 8.046H76.6714L77.3014 6.786H86.5894L85.9594 8.046H82.3234L82.2694 18.486H80.9914ZM99.0592 18.45L97.8532 15.84H91.5172L90.3112 18.45H88.8892L94.7572 6.156L100.499 18.45H99.0592ZM92.1112 14.58H97.2772L94.7932 9.036L92.1112 14.58ZM109.438 6.75C110.578 6.75 111.484 6.882 112.156 7.146C112.828 7.398 113.32 7.806 113.632 8.37C113.932 8.922 114.082 9.696 114.082 10.692C114.082 11.688 113.866 12.486 113.434 13.086C113.002 13.686 112.33 14.112 111.418 14.364L114.802 18.45H113.164L109.906 14.58H106.288V18.45H105.01V6.75H109.438ZM112.804 10.692C112.804 9.984 112.702 9.444 112.498 9.072C112.306 8.688 111.988 8.412 111.544 8.244H111.562C110.986 8.088 110.284 8.01 109.456 8.01H106.288V13.32H109.726C110.806 13.32 111.586 13.116 112.066 12.708C112.558 12.288 112.804 11.616 112.804 10.692ZM120.963 6.75V18.45H119.685V6.75H120.963ZM126.322 9.666C126.322 9.042 126.49 8.496 126.826 8.028C127.174 7.548 127.66 7.176 128.284 6.912C128.884 6.648 129.598 6.516 130.426 6.516C131.158 6.516 131.836 6.594 132.46 6.75C133.084 6.894 133.606 7.104 134.026 7.38C134.314 7.56 134.512 7.704 134.62 7.812C134.668 7.86 134.692 7.908 134.692 7.956C134.692 8.028 134.656 8.118 134.584 8.226L134.188 8.802C134.14 8.85 134.086 8.874 134.026 8.874C133.978 8.874 133.93 8.856 133.882 8.82L133.306 8.478C132.946 8.25 132.514 8.076 132.01 7.956C131.518 7.836 130.996 7.776 130.444 7.776C129.592 7.776 128.902 7.95 128.374 8.298C127.858 8.634 127.6 9.084 127.6 9.648C127.6 10.14 127.846 10.578 128.338 10.962C128.842 11.334 129.634 11.682 130.714 12.006L131.29 12.168C132.25 12.444 132.94 12.684 133.36 12.888C133.792 13.08 134.146 13.362 134.422 13.734C134.71 14.142 134.854 14.694 134.854 15.39C134.854 16.434 134.464 17.244 133.684 17.82C132.904 18.396 131.818 18.684 130.426 18.684C129.802 18.684 129.184 18.606 128.572 18.45C127.972 18.306 127.456 18.096 127.024 17.82C126.724 17.64 126.52 17.502 126.412 17.406C126.316 17.31 126.268 17.208 126.268 17.1C126.268 17.04 126.292 16.968 126.34 16.884L126.754 16.398C126.802 16.326 126.874 16.29 126.97 16.29C127.018 16.29 127.072 16.308 127.132 16.344C127.744 16.776 128.272 17.064 128.716 17.208C129.172 17.352 129.742 17.424 130.426 17.424C132.526 17.424 133.576 16.746 133.576 15.39C133.576 15.03 133.492 14.736 133.324 14.508C133.156 14.268 132.886 14.07 132.514 13.914C132.19 13.758 131.674 13.584 130.966 13.392L130.462 13.248C129.022 12.828 127.972 12.336 127.312 11.772C126.652 11.196 126.322 10.494 126.322 9.666ZM143.376 18.486L143.43 8.046H139.056L139.686 6.786H148.974L148.344 8.046H144.708L144.654 18.486H143.376Z" fill="#262626"/>
<defs>
<filter id="filter0_f_1451_13727" x="0" y="15" width="34" height="19" filterUnits="userSpaceOnUse" color-interpolation-filters="sRGB">
<feFlood flood-opacity="0" result="BackgroundImageFix"/>
<feBlend mode="normal" in="SourceGraphic" in2="BackgroundImageFix" result="shape"/>
<feGaussianBlur stdDeviation="3.5" result="effect1_foregroundBlur_1451_13727"/>
</filter>
</defs>
</svg>
