<svg width="159" height="34" viewBox="0 0 159 34" fill="none" xmlns="http://www.w3.org/2000/svg">
<g filter="url(#filter0_f_1186_26434)">
<rect x="7.55078" y="22" width="20" height="5" fill="#F6C447"/>
</g>
<circle cx="18" cy="12" r="10.85" stroke="#262626" stroke-width="2.3"/>
<path d="M48.17 18.0298L46.964 15.4198H40.628L39.422 18.0298H38L43.868 5.73584L49.61 18.0298H48.17ZM41.222 14.1598H46.388L43.904 8.61584L41.222 14.1598Z" fill="#262626"/>
<path d="M64.4192 6.32984L58.8932 18.0298H58.1552L52.8272 6.32984H54.2492L58.5152 15.7618L63.0152 6.32984H64.4192Z" fill="#262626"/>
<path d="M77.7983 18.0298L76.5923 15.4198H70.2563L69.0503 18.0298H67.6283L73.4963 5.73584L79.2383 18.0298H77.7983ZM70.8503 14.1598H76.0163L73.5323 8.61584L70.8503 14.1598Z" fill="#262626"/>
<path d="M86.5294 18.0658L86.5834 7.62584H82.2094L82.8394 6.36584H92.1274L91.4974 7.62584H87.8614L87.8074 18.0658H86.5294Z" fill="#262626"/>
<path d="M105.317 18.0298L104.111 15.4198H97.7752L96.5692 18.0298H95.1472L101.015 5.73584L106.757 18.0298H105.317ZM98.3692 14.1598H103.535L101.051 8.61584L98.3692 14.1598Z" fill="#262626"/>
<path d="M116.416 6.32984C117.556 6.32984 118.462 6.46184 119.134 6.72584C119.806 6.97784 120.298 7.38584 120.61 7.94984C120.91 8.50184 121.06 9.27584 121.06 10.2718C121.06 11.2678 120.844 12.0658 120.412 12.6658C119.98 13.2658 119.308 13.6918 118.396 13.9438L121.78 18.0298H120.142L116.884 14.1598H113.266V18.0298H111.988V6.32984H116.416ZM119.782 10.2718C119.782 9.56384 119.68 9.02384 119.476 8.65184C119.284 8.26784 118.966 7.99184 118.522 7.82384H118.54C117.964 7.66784 117.262 7.58984 116.434 7.58984H113.266V12.8998H116.704C117.784 12.8998 118.564 12.6958 119.044 12.2878C119.536 11.8678 119.782 11.1958 119.782 10.2718Z" fill="#262626"/>
<path d="M128.661 6.32984V18.0298H127.383V6.32984H128.661Z" fill="#262626"/>
<path d="M134.74 9.24584C134.74 8.62184 134.908 8.07584 135.244 7.60784C135.592 7.12784 136.078 6.75584 136.702 6.49184C137.302 6.22784 138.016 6.09584 138.844 6.09584C139.576 6.09584 140.254 6.17384 140.878 6.32984C141.502 6.47384 142.024 6.68384 142.444 6.95984C142.732 7.13984 142.93 7.28384 143.038 7.39184C143.086 7.43984 143.11 7.48784 143.11 7.53584C143.11 7.60784 143.074 7.69784 143.002 7.80584L142.606 8.38184C142.558 8.42984 142.504 8.45384 142.444 8.45384C142.396 8.45384 142.348 8.43584 142.3 8.39984L141.724 8.05784C141.364 7.82984 140.932 7.65584 140.428 7.53584C139.936 7.41584 139.414 7.35584 138.862 7.35584C138.01 7.35584 137.32 7.52984 136.792 7.87784C136.276 8.21384 136.018 8.66384 136.018 9.22784C136.018 9.71984 136.264 10.1578 136.756 10.5418C137.26 10.9138 138.052 11.2618 139.132 11.5858L139.708 11.7478C140.668 12.0238 141.358 12.2638 141.778 12.4678C142.21 12.6598 142.564 12.9418 142.84 13.3138C143.128 13.7218 143.272 14.2738 143.272 14.9698C143.272 16.0138 142.882 16.8238 142.102 17.3998C141.322 17.9758 140.236 18.2638 138.844 18.2638C138.22 18.2638 137.602 18.1858 136.99 18.0298C136.39 17.8858 135.874 17.6758 135.442 17.3998C135.142 17.2198 134.938 17.0818 134.83 16.9858C134.734 16.8898 134.686 16.7878 134.686 16.6798C134.686 16.6198 134.71 16.5478 134.758 16.4638L135.172 15.9778C135.22 15.9058 135.292 15.8698 135.388 15.8698C135.436 15.8698 135.49 15.8878 135.55 15.9238C136.162 16.3558 136.69 16.6438 137.134 16.7878C137.59 16.9318 138.16 17.0038 138.844 17.0038C140.944 17.0038 141.994 16.3258 141.994 14.9698C141.994 14.6098 141.91 14.3158 141.742 14.0878C141.574 13.8478 141.304 13.6498 140.932 13.4938C140.608 13.3378 140.092 13.1638 139.384 12.9718L138.88 12.8278C137.44 12.4078 136.39 11.9158 135.73 11.3518C135.07 10.7758 134.74 10.0738 134.74 9.24584Z" fill="#262626"/>
<path d="M152.514 18.0658L152.568 7.62584H148.194L148.824 6.36584H158.112L157.482 7.62584H153.846L153.792 18.0658H152.514Z" fill="#262626"/>
<defs>
<filter id="filter0_f_1186_26434" x="0.550781" y="15" width="34" height="19" filterUnits="userSpaceOnUse" color-interpolation-filters="sRGB">
<feFlood flood-opacity="0" result="BackgroundImageFix"/>
<feBlend mode="normal" in="SourceGraphic" in2="BackgroundImageFix" result="shape"/>
<feGaussianBlur stdDeviation="3.5" result="effect1_foregroundBlur_1186_26434"/>
</filter>
</defs>
</svg>
