<svg width="66" height="40" viewBox="0 0 66 40" fill="none" xmlns="http://www.w3.org/2000/svg">
<path d="M2 26.6782C2 28.997 5.15 30.8145 9 30.8145V7.81445L2 9.50655V26.6782Z" fill="#851A1A"/>
<path d="M66 2.81445H15.5667C8.11017 2.81445 2 5.31589 2 7.36252V24.8145C2 22.711 8.11017 21.0623 15.5667 21.0623H66V2.81445Z" fill="#B92C2C"/>
<path d="M10.1584 14.3496V8.54986H11.7886L13.1132 11.5359L14.4769 8.54986H16.0522V14.3496H14.8609V10.3995L13.6696 12.9937H12.5489L11.3497 10.3838V14.3496H10.1584ZM19.1154 14.428C18.6504 14.428 18.2559 14.3287 17.932 14.1302C17.608 13.9264 17.3598 13.6625 17.1874 13.3386C17.0202 13.0094 16.9366 12.6541 16.9366 12.2727C16.9366 11.8912 17.0202 11.5386 17.1874 11.2146C17.3598 10.8854 17.608 10.6216 17.932 10.423C18.2559 10.2192 18.6504 10.1174 19.1154 10.1174C19.5804 10.1174 19.9749 10.2192 20.2989 10.423C20.6228 10.6216 20.8684 10.8854 21.0356 11.2146C21.208 11.5386 21.2942 11.8912 21.2942 12.2727C21.2942 12.6541 21.208 13.0094 21.0356 13.3386C20.8684 13.6625 20.6228 13.9264 20.2989 14.1302C19.9749 14.3287 19.5804 14.428 19.1154 14.428ZM19.1154 13.4561C19.3244 13.4561 19.4995 13.4013 19.6405 13.2915C19.7868 13.1818 19.8992 13.0381 19.9775 12.8605C20.0559 12.6776 20.0951 12.4817 20.0951 12.2727C20.0951 12.0584 20.0559 11.8625 19.9775 11.6849C19.8992 11.5072 19.7868 11.3635 19.6405 11.2538C19.4995 11.1441 19.3244 11.0892 19.1154 11.0892C18.9064 11.0892 18.7288 11.1441 18.5825 11.2538C18.4362 11.3635 18.3238 11.5072 18.2455 11.6849C18.1723 11.8625 18.1357 12.0584 18.1357 12.2727C18.1357 12.4817 18.1723 12.6776 18.2455 12.8605C18.3238 13.0381 18.4362 13.1818 18.5825 13.2915C18.7288 13.4013 18.9064 13.4561 19.1154 13.4561ZM23.8979 14.428C23.553 14.428 23.2683 14.381 23.0436 14.2869C22.8189 14.1929 22.6387 14.0779 22.5028 13.9421C22.3722 13.801 22.2729 13.6625 22.205 13.5267C22.1423 13.3856 22.1005 13.268 22.0796 13.174C22.0639 13.0799 22.0561 13.0329 22.0561 13.0329H23.1612C23.1612 13.0329 23.169 13.059 23.1847 13.1113C23.2003 13.1635 23.2343 13.2236 23.2866 13.2915C23.344 13.3595 23.425 13.4196 23.5295 13.4718C23.634 13.5241 23.7751 13.5502 23.9527 13.5502C24.1722 13.5502 24.3211 13.5058 24.3995 13.4169C24.4831 13.3281 24.5249 13.2393 24.5249 13.1505C24.5249 12.9624 24.3707 12.837 24.0625 12.7743L23.4982 12.6645C23.2578 12.6175 23.0305 12.5496 22.8163 12.4608C22.6073 12.3667 22.4375 12.2387 22.3069 12.0767C22.1815 11.9095 22.1188 11.6953 22.1188 11.4341C22.1188 11.1833 22.1841 10.9586 22.3147 10.76C22.4453 10.5615 22.6308 10.4047 22.8712 10.2898C23.1167 10.1748 23.4093 10.1174 23.749 10.1174C24.0677 10.1174 24.3316 10.1618 24.5406 10.2506C24.7548 10.3342 24.9246 10.4413 25.05 10.5719C25.1754 10.6973 25.2694 10.8253 25.3321 10.956C25.3948 11.0814 25.434 11.1885 25.4497 11.2773C25.4706 11.3609 25.4811 11.4027 25.4811 11.4027H24.4152C24.4152 11.4027 24.3995 11.3687 24.3681 11.3008C24.3368 11.2277 24.2715 11.1571 24.1722 11.0892C24.0781 11.0161 23.9318 10.9795 23.7333 10.9795C23.5295 10.9795 23.3884 11.0213 23.3101 11.1049C23.2317 11.1833 23.1925 11.2669 23.1925 11.3557C23.1925 11.4602 23.2369 11.5386 23.3257 11.5908C23.4198 11.6431 23.54 11.6849 23.6863 11.7162L24.2271 11.8259C24.6242 11.9043 24.9507 12.0428 25.2067 12.2413C25.4628 12.4346 25.5908 12.7168 25.5908 13.0878C25.5908 13.3386 25.5255 13.5659 25.3948 13.7696C25.2642 13.9734 25.0735 14.1354 24.8227 14.2556C24.5719 14.3705 24.2636 14.428 23.8979 14.428ZM28.219 14.428C27.8951 14.428 27.6365 14.381 27.4431 14.2869C27.2498 14.1876 27.1035 14.0648 27.0042 13.9185C26.905 13.767 26.8396 13.6077 26.8083 13.4405C26.7769 13.2733 26.7613 13.1191 26.7613 12.978V11.1441H26.0559V10.1957H26.7613V9.16902H27.9526V10.1957H28.8382V11.1441H27.9526V12.9467C27.9526 13.1191 27.997 13.2524 28.0858 13.3464C28.1799 13.4405 28.334 13.4875 28.5482 13.4875C28.6423 13.4875 28.7285 13.4796 28.8069 13.464C28.8852 13.4483 28.9244 13.4405 28.9244 13.4405V14.3574C28.9244 14.3574 28.8539 14.3679 28.7128 14.3888C28.5717 14.4149 28.4071 14.428 28.219 14.428ZM31.6044 14.3496V8.54986H33.9949C34.4703 8.54986 34.8648 8.64391 35.1783 8.83201C35.497 9.02011 35.7348 9.26307 35.8915 9.5609C36.0535 9.8535 36.1345 10.1592 36.1345 10.4779C36.1345 10.8071 36.0535 11.1206 35.8915 11.4184C35.7348 11.711 35.497 11.9513 35.1783 12.1394C34.8648 12.3275 34.4703 12.4216 33.9949 12.4216H32.8114V14.3496H31.6044ZM33.9949 9.60792H32.8114V11.3714H33.9949C34.1986 11.3714 34.3684 11.3296 34.5043 11.246C34.6401 11.1571 34.742 11.0474 34.81 10.9168C34.8831 10.7809 34.9197 10.6372 34.9197 10.4857C34.9197 10.3394 34.8831 10.1983 34.81 10.0625C34.742 9.92665 34.6401 9.81692 34.5043 9.73332C34.3684 9.64972 34.1986 9.60792 33.9949 9.60792ZM38.7627 14.428C38.2977 14.428 37.9032 14.3287 37.5793 14.1302C37.2553 13.9264 37.0071 13.6625 36.8347 13.3386C36.6675 13.0094 36.5839 12.6541 36.5839 12.2727C36.5839 11.8912 36.6675 11.5386 36.8347 11.2146C37.0071 10.8854 37.2553 10.6216 37.5793 10.423C37.9032 10.2192 38.2977 10.1174 38.7627 10.1174C39.2278 10.1174 39.6223 10.2192 39.9462 10.423C40.2702 10.6216 40.5157 10.8854 40.6829 11.2146C40.8554 11.5386 40.9416 11.8912 40.9416 12.2727C40.9416 12.6541 40.8554 13.0094 40.6829 13.3386C40.5157 13.6625 40.2702 13.9264 39.9462 14.1302C39.6223 14.3287 39.2278 14.428 38.7627 14.428ZM38.7627 13.4561C38.9717 13.4561 39.1468 13.4013 39.2879 13.2915C39.4342 13.1818 39.5465 13.0381 39.6249 12.8605C39.7032 12.6776 39.7424 12.4817 39.7424 12.2727C39.7424 12.0584 39.7032 11.8625 39.6249 11.6849C39.5465 11.5072 39.4342 11.3635 39.2879 11.2538C39.1468 11.1441 38.9717 11.0892 38.7627 11.0892C38.5537 11.0892 38.3761 11.1441 38.2298 11.2538C38.0835 11.3635 37.9712 11.5072 37.8928 11.6849C37.8196 11.8625 37.7831 12.0584 37.7831 12.2727C37.7831 12.4817 37.8196 12.6776 37.8928 12.8605C37.9712 13.0381 38.0835 13.1818 38.2298 13.2915C38.3761 13.4013 38.5537 13.4561 38.7627 13.4561ZM41.8299 15.8779V10.1957H43.0212V10.7287H43.0761C43.1022 10.6921 43.1597 10.6242 43.2485 10.5249C43.3425 10.4256 43.4758 10.3342 43.6482 10.2506C43.8206 10.1618 44.0401 10.1174 44.3066 10.1174C44.6148 10.1174 44.8813 10.1801 45.106 10.3055C45.3359 10.4256 45.5266 10.5902 45.6781 10.7992C45.8296 11.003 45.942 11.2329 46.0151 11.4889C46.0935 11.7449 46.1327 12.0062 46.1327 12.2727C46.1327 12.5391 46.0935 12.8004 46.0151 13.0564C45.942 13.3124 45.8296 13.545 45.6781 13.754C45.5266 13.9577 45.3359 14.1223 45.106 14.2477C44.8813 14.3679 44.6148 14.428 44.3066 14.428C44.0401 14.428 43.8206 14.3862 43.6482 14.3026C43.4758 14.2138 43.3425 14.1197 43.2485 14.0204C43.1597 13.9212 43.1022 13.8532 43.0761 13.8167H43.0212V15.8779H41.8299ZM42.9977 12.2727C42.9977 12.466 43.0317 12.6541 43.0996 12.837C43.1727 13.0198 43.2798 13.1714 43.4209 13.2915C43.5672 13.4065 43.7475 13.464 43.9617 13.464C44.1759 13.464 44.3536 13.4065 44.4947 13.2915C44.641 13.1714 44.7481 13.0198 44.816 12.837C44.8891 12.6541 44.9257 12.466 44.9257 12.2727C44.9257 12.0793 44.8891 11.8912 44.816 11.7084C44.7481 11.5255 44.641 11.3766 44.4947 11.2616C44.3536 11.1415 44.1759 11.0814 43.9617 11.0814C43.7475 11.0814 43.5672 11.1415 43.4209 11.2616C43.2798 11.3766 43.1727 11.5255 43.0996 11.7084C43.0317 11.8912 42.9977 12.0793 42.9977 12.2727ZM48.2799 14.428C47.9873 14.428 47.7444 14.3653 47.551 14.2399C47.3629 14.1145 47.2219 13.9473 47.1278 13.7383C47.0338 13.5241 46.9867 13.2837 46.9867 13.0172V10.1957H48.1702V12.7821C48.1702 12.9807 48.2224 13.1426 48.3269 13.268C48.4314 13.3882 48.5856 13.4483 48.7894 13.4483C48.9618 13.4483 49.0976 13.4065 49.1969 13.3229C49.3014 13.2393 49.3772 13.1322 49.4242 13.0016C49.4712 12.8709 49.4947 12.7325 49.4947 12.5862V10.1957H50.686V14.3496H49.4947V13.7618H49.4477C49.3589 13.9238 49.2204 14.0753 49.0323 14.2164C48.8494 14.3574 48.5986 14.428 48.2799 14.428ZM51.6727 14.3496V8.39311H52.864V14.3496H51.6727ZM55.5776 10.1174C55.844 10.1174 56.0635 10.1618 56.2359 10.2506C56.4083 10.3342 56.539 10.4256 56.6278 10.5249C56.7218 10.6242 56.7793 10.6921 56.8002 10.7287H56.8629V10.1957H58.0542V14.3496H56.8629V13.8167H56.8002C56.7793 13.8532 56.7218 13.9212 56.6278 14.0204C56.539 14.1197 56.4083 14.2138 56.2359 14.3026C56.0635 14.3862 55.844 14.428 55.5776 14.428C55.2693 14.428 55.0002 14.3679 54.7703 14.2477C54.5456 14.1223 54.3575 13.9577 54.206 13.754C54.0545 13.545 53.9395 13.3124 53.8611 13.0564C53.788 12.8004 53.7514 12.5391 53.7514 12.2727C53.7514 12.0062 53.788 11.7449 53.8611 11.4889C53.9395 11.2329 54.0545 11.003 54.206 10.7992C54.3575 10.5902 54.5456 10.4256 54.7703 10.3055C55.0002 10.1801 55.2693 10.1174 55.5776 10.1174ZM55.9224 11.0814C55.7082 11.0814 55.5279 11.1415 55.3816 11.2616C55.2405 11.3766 55.1334 11.5255 55.0603 11.7084C54.9924 11.8912 54.9584 12.0793 54.9584 12.2727C54.9584 12.466 54.9924 12.6541 55.0603 12.837C55.1334 13.0198 55.2405 13.1714 55.3816 13.2915C55.5279 13.4065 55.7082 13.464 55.9224 13.464C56.1366 13.464 56.3143 13.4065 56.4554 13.2915C56.6017 13.1714 56.7088 13.0198 56.7767 12.837C56.8498 12.6541 56.8864 12.466 56.8864 12.2727C56.8864 12.0793 56.8498 11.8912 56.7767 11.7084C56.7088 11.5255 56.6017 11.3766 56.4554 11.2616C56.3143 11.1415 56.1366 11.0814 55.9224 11.0814ZM58.9649 14.3496V10.1957H60.1484V10.7992H60.1876C60.2346 10.6895 60.2999 10.5824 60.3835 10.4779C60.4671 10.3734 60.5821 10.2872 60.7284 10.2192C60.8747 10.1513 61.0628 10.1174 61.2927 10.1174C61.4076 10.1174 61.4991 10.1252 61.567 10.1409C61.6349 10.1513 61.6689 10.1565 61.6689 10.1565V11.3322C61.6689 11.3322 61.6297 11.3243 61.5513 11.3087C61.4782 11.293 61.3815 11.2851 61.2613 11.2851C60.8904 11.2851 60.6134 11.387 60.4306 11.5908C60.2477 11.7894 60.1562 12.1159 60.1562 12.5705V14.3496H58.9649Z" fill="white"/>
</svg>
