<svg width="211" height="138" viewBox="0 0 211 138" fill="none" xmlns="http://www.w3.org/2000/svg">
<path d="M16.7467 123.328C14.8092 121.744 12.7869 120.231 10.9909 118.491C10.1565 117.685 9.37873 116.808 8.78477 115.804C8.47365 115.295 8.21909 114.744 8.03525 114.178C7.87969 113.711 7.72413 112.99 8.40294 112.919C8.65749 112.891 8.92619 112.947 9.1666 113.018C9.4353 113.089 9.54843 112.679 9.27974 112.608C8.47365 112.41 7.31401 112.467 7.44129 113.598C7.59685 114.871 8.43122 116.172 9.19489 117.148C11.1748 119.693 13.9748 121.602 16.4497 123.625C16.6618 123.794 16.9588 123.497 16.7467 123.328Z" fill="#E8E8E8"/>
<path d="M9.35063 112.678C8.5304 111.703 7.89402 110.571 7.52633 109.341C7.35663 108.789 7.28592 108.224 7.11621 107.686C7.00308 107.347 6.79095 107.036 7.10207 106.739C7.24349 106.612 7.45562 106.527 7.61118 106.414C8.09201 106.088 8.3607 105.707 7.76674 105.296C7.42734 105.07 7.00308 105.028 6.63539 104.844C6.14042 104.575 5.75859 104.137 5.47575 103.67C4.88179 102.708 4.55653 101.577 4.20298 100.516C3.77873 99.2578 3.36861 97.9709 3.00092 96.6981C2.26554 94.1243 1.65744 91.5222 1.16248 88.906C1.12005 88.9908 1.06348 89.0757 1.02106 89.1605C3.67973 88.2837 6.32427 90.5323 8.21928 92.1303C10.1709 93.7708 11.9245 95.6516 13.4659 97.6881C16.6479 101.931 18.8681 106.824 20.254 111.929C21.1025 115.054 21.6399 118.265 21.9369 121.489C21.9652 121.758 22.3895 121.758 22.3612 121.489C21.3288 110.359 17.2277 99.0881 8.44555 91.7485C6.4374 90.0797 3.72216 87.8312 0.922064 88.7504C0.808929 88.7928 0.752361 88.8918 0.780645 89.005C1.3039 91.8051 1.96856 94.5769 2.77465 97.3204C3.15648 98.6073 3.55246 99.8801 3.99086 101.139C4.3444 102.157 4.66967 103.246 5.29191 104.137C5.53232 104.476 5.80102 104.787 6.14042 105.028C6.55054 105.325 7.03136 105.353 7.44148 105.608C7.97887 105.933 7.20107 106.187 6.91823 106.385C6.7061 106.541 6.50811 106.725 6.46569 107.008C6.40912 107.432 6.77681 107.927 6.8758 108.323C7.01722 108.931 7.1445 109.525 7.37077 110.119C7.78088 111.165 8.3607 112.127 9.08194 112.99C9.22336 113.188 9.52034 112.891 9.35063 112.678Z" fill="#E8E8E8"/>
<path d="M3.29793 91.1833C9.20924 97.8582 13.8054 105.65 16.8034 114.051C17.6378 116.384 18.3308 118.76 18.9106 121.164C18.9813 121.433 19.3773 121.32 19.3207 121.051C17.2277 112.34 13.466 104.038 8.26174 96.7269C6.81926 94.6905 5.26365 92.7389 3.60905 90.8721C3.41107 90.6883 3.11409 90.9853 3.29793 91.1833Z" fill="#E8E8E8"/>
<path d="M4.25872 100.489C4.93753 100.658 5.6022 100.885 6.25273 101.153C6.50728 101.252 6.62042 100.842 6.36586 100.743C5.71534 100.474 5.05067 100.248 4.37186 100.078C4.1173 100.008 4.00417 100.418 4.25872 100.489Z" fill="#E8E8E8"/>
<path d="M9.23653 109.879C10.1558 109.851 10.9194 110.332 11.6689 110.784C12.3477 111.194 13.0124 111.605 13.6629 112.057C15.0064 112.99 16.2226 114.094 17.0287 115.536C17.156 115.776 17.5237 115.564 17.3964 115.324C16.5479 113.825 15.2751 112.665 13.8751 111.704C13.1397 111.194 12.3619 110.714 11.5841 110.261C10.8487 109.823 10.0992 109.455 9.22239 109.469C8.96783 109.455 8.96783 109.879 9.23653 109.879Z" fill="#E8E8E8"/>
<path d="M14.8648 107.334C14.483 105.043 14.4971 102.723 14.9072 100.446C14.9497 100.178 14.5396 100.065 14.4971 100.333C14.0729 102.695 14.0587 105.085 14.4547 107.447C14.4971 107.715 14.9072 107.602 14.8648 107.334Z" fill="#E8E8E8"/>
<path d="M14.1439 97.6465C14.4409 94.8464 15.0349 92.0463 16.0248 89.4159C16.8592 87.1956 18.1037 85.0178 20.2391 83.8299C20.126 83.7733 20.027 83.7026 19.9138 83.646C20.1401 87.5775 22.4452 91.0705 22.5442 95.0161C22.6008 94.9454 22.6432 94.8747 22.6998 94.8181C22.1624 94.9595 21.625 95.1009 21.0876 95.2424C20.9321 95.2848 20.8755 95.4828 20.9886 95.5959C21.6392 96.2182 21.7664 97.095 21.7947 97.9576C21.8089 98.4101 22.0493 100.602 21.526 100.744C21.3987 100.786 21.328 100.942 21.3987 101.055C22.9685 103.572 22.2473 106.556 21.8089 109.271C21.3563 112.071 21.2997 114.9 21.625 117.7C21.6533 117.968 22.0776 117.968 22.0493 117.7C21.6816 114.546 21.8654 111.449 22.4028 108.338C22.8412 105.821 23.1948 103.119 21.7806 100.828C21.7381 100.927 21.6957 101.041 21.6533 101.14C22.0351 101.041 22.1624 100.744 22.219 100.376C22.318 99.6971 22.2473 98.9475 22.2331 98.2687C22.219 97.1939 22.1058 96.0767 21.2856 95.2989C21.2573 95.4121 21.229 95.5393 21.1866 95.6525C21.724 95.5111 22.2614 95.3696 22.7988 95.2282C22.8836 95.1999 22.9543 95.1151 22.9543 95.0302C22.8554 91.0705 20.5644 87.5916 20.324 83.6601C20.3098 83.5046 20.1543 83.3915 19.9987 83.4763C17.8915 84.6501 16.6188 86.7289 15.742 88.9209C14.6248 91.7069 14.0025 94.6908 13.6914 97.6748C13.6914 97.9152 14.1157 97.9152 14.1439 97.6465Z" fill="#E8E8E8"/>
<path d="M19.2778 85.7669C17.7646 91.4944 16.9868 97.4057 16.9727 103.331C16.9727 103.6 17.3969 103.6 17.3969 103.331C17.4111 97.434 18.1747 91.5792 19.6738 85.8801C19.7586 85.6114 19.3485 85.4982 19.2778 85.7669Z" fill="#E8E8E8"/>
<path d="M185.318 77.2961C186.223 80.2093 186.902 83.1791 187.326 86.2055C187.538 87.7328 187.694 89.2884 187.765 90.8299C187.793 91.2258 187.807 91.636 187.821 92.0319C187.835 92.2723 187.765 92.6683 187.85 92.8946C187.934 93.1067 188.231 93.2481 188.401 93.3895C188.698 93.63 188.995 93.8704 189.278 94.1108C189.292 93.9977 189.306 93.8845 189.32 93.7714C188.924 94.0118 188.542 94.1249 188.076 94.1391C187.977 94.1391 187.906 94.2098 187.878 94.2946C187.468 95.5674 187.765 96.9109 188.684 97.9008C188.74 97.7735 188.783 97.6604 188.839 97.5331C187.369 97.4766 187.34 99.1736 187.482 100.22C187.68 101.677 187.963 103.133 188.373 104.548C189.193 107.319 190.565 109.95 192.813 111.845C193.025 112.014 193.322 111.717 193.11 111.548C191.215 109.95 189.943 107.8 189.122 105.467C188.74 104.364 188.443 103.232 188.217 102.101C188.033 101.153 187.114 97.9008 188.839 97.9574C189.037 97.9715 189.108 97.7311 188.995 97.5897C188.189 96.7129 187.934 95.525 188.302 94.4078C188.231 94.4643 188.161 94.5068 188.104 94.5633C188.641 94.5633 189.094 94.436 189.561 94.1391C189.66 94.0684 189.716 93.8987 189.603 93.7997C189.08 93.3754 188.359 93.0077 188.274 92.3006C188.189 91.5511 188.217 90.7733 188.161 90.0238C188.062 88.6237 187.92 87.2237 187.708 85.8236C187.284 82.8963 186.619 80.0113 185.742 77.1829C185.643 76.9142 185.233 77.0274 185.318 77.2961Z" fill="#E8E8E8"/>
<path d="M186.011 77.9326C185.431 77.1689 186.52 76.6032 187.157 76.7588C187.793 76.9285 188.316 77.4376 188.755 77.8901C189.561 78.7104 190.197 79.672 190.749 80.6761C191.894 82.7408 192.856 84.9469 193.704 87.1389C195.444 91.6502 196.646 96.3736 197.282 101.154C197.636 103.869 197.82 106.598 197.82 109.328C197.82 109.596 198.244 109.596 198.244 109.328C198.244 103.643 197.466 97.9716 195.939 92.5129C195.189 89.8542 194.27 87.2521 193.181 84.7065C192.177 82.359 191.102 79.8417 189.377 77.9184C188.684 77.1406 187.51 75.9386 186.35 76.3487C185.643 76.5891 185.177 77.4942 185.658 78.1447C185.813 78.3568 186.181 78.1588 186.011 77.9326Z" fill="#E8E8E8"/>
<path d="M196.192 93.4749C196.914 91.0567 197.748 88.695 198.696 86.3616C199.191 85.1595 199.714 83.9574 200.279 82.7837C200.548 82.2321 200.817 81.6665 201.1 81.1149C201.284 80.7614 201.835 79.2058 202.415 79.3472C202.585 79.3896 202.698 79.2482 202.669 79.0926C202.528 78.2158 203.518 77.4663 204.041 76.8865C204.508 76.3774 204.96 75.8683 205.427 75.3592C206.389 74.3127 207.336 73.2662 208.298 72.2055C208.185 72.1772 208.057 72.149 207.944 72.1065C209.401 75.7127 209.019 79.6583 208.171 83.3635C207.732 85.2585 207.181 87.1394 206.714 89.0344C206.389 90.3496 206.035 92.3436 204.423 92.6264C204.31 92.6406 204.253 92.782 204.282 92.881C204.692 94.5639 203.56 96.1195 202.811 97.5337C202.104 98.863 201.453 100.235 200.859 101.635C199.7 104.364 198.78 107.178 198.087 110.049C198.017 110.318 198.427 110.431 198.498 110.162C199.261 106.98 200.308 103.883 201.651 100.899C202.288 99.4852 202.995 98.0993 203.744 96.7417C204.423 95.5114 205.045 94.2103 204.706 92.782C204.663 92.8668 204.607 92.9517 204.564 93.0365C205.936 92.7961 206.53 91.4102 206.884 90.194C207.464 88.1576 207.987 86.0646 208.482 83.9999C209.429 80.0684 209.938 75.84 208.383 71.9934C208.326 71.852 208.142 71.7671 208.029 71.8944C206.827 73.2096 205.625 74.5389 204.423 75.8541C203.857 76.4764 203.249 77.0703 202.726 77.735C202.387 78.1876 202.203 78.6118 202.288 79.1775C202.372 79.0926 202.457 79.0078 202.542 78.9229C201.524 78.6684 201.029 80.3371 200.69 81.0018C200.011 82.3453 199.374 83.7029 198.795 85.0747C197.635 87.7616 196.645 90.5334 195.811 93.3335C195.697 93.6164 196.108 93.7295 196.192 93.4749Z" fill="#E8E8E8"/>
<path d="M207.253 75.8675C202.84 84.0981 198.343 92.5832 197.283 101.988C197.254 102.256 197.679 102.256 197.707 101.988C198.768 92.6539 203.25 84.2253 207.62 76.0796C207.762 75.8392 207.394 75.6271 207.253 75.8675Z" fill="#E8E8E8"/>
<path d="M188.853 81.5239C192.29 90.6172 194.34 100.205 194.948 109.907C194.962 110.175 195.387 110.175 195.373 109.907C194.764 100.163 192.714 90.5465 189.263 81.4108C189.164 81.1704 188.754 81.2694 188.853 81.5239Z" fill="#E8E8E8"/>
<path d="M10.1554 76.9707C18.782 75.4293 27.6914 75.5141 36.2897 77.2253C40.5464 78.0738 44.7182 79.3042 48.7345 80.9163C52.9347 82.5992 56.9651 84.6215 61.0804 86.4882C76.6082 93.5309 93.2249 98.1412 110.153 100.149C119.755 101.295 129.456 101.592 139.101 101.054C139.37 101.04 139.37 100.616 139.101 100.63C121.792 101.606 104.355 99.8382 87.5823 95.4401C79.1679 93.2339 70.9232 90.3631 62.9613 86.8701C58.8319 85.0599 54.8014 83.0235 50.6578 81.2557C46.6981 79.5729 42.6111 78.2152 38.4251 77.2536C29.1339 75.1323 19.4325 74.8919 10.0423 76.5748C9.77361 76.6031 9.88675 77.0132 10.1554 76.9707Z" fill="#E8E8E8"/>
<path d="M87.0881 95.1283C95.1348 95.5384 102.899 92.6393 110.465 90.3201C118.384 87.9018 126.332 85.5542 134.294 83.2633C142.213 80.9864 150.133 78.5964 158.179 76.7721C166.198 74.962 174.372 74.0993 182.588 73.8589C191.738 73.5761 200.888 73.9862 210.024 74.4104C210.292 74.4246 210.292 74.0003 210.024 73.9862C193.888 73.2508 177.54 72.5296 161.588 75.6266C153.498 77.1964 145.579 79.6005 137.66 81.8491C129.698 84.1259 121.75 86.4593 113.816 88.8493C109.418 90.1786 105.034 91.6211 100.608 92.8373C96.1955 94.0535 91.6701 94.9303 87.0739 94.704C86.8194 94.6899 86.8194 95.1142 87.0881 95.1283Z" fill="#E8E8E8"/>
<path d="M52.7522 80.6186C58.3383 82.2307 64.1364 81.1135 69.7083 80.0387C75.6762 78.8932 81.7007 78.1154 87.7817 77.875C99.8306 77.4225 111.809 79.1478 123.815 79.6286C130.462 79.8973 137.137 79.7418 143.699 78.6528C143.967 78.6104 143.854 78.2003 143.586 78.2427C131.777 80.2084 119.785 79.0347 107.934 78.1437C102.008 77.6912 96.0688 77.3094 90.1151 77.4083C84.2179 77.5073 78.3208 78.073 72.4943 79.1054C66.0456 80.2367 59.3423 82.1035 52.8512 80.2226C52.5966 80.1377 52.4835 80.5478 52.7522 80.6186Z" fill="#E8E8E8"/>
<path d="M77.784 107.871C79.5941 107.121 81.5457 106.739 83.5114 106.796C85.3357 106.852 86.9762 107.446 88.7439 107.814C90.0591 108.097 91.3743 108.097 92.435 107.164C92.8451 106.81 93.1986 106.442 93.7926 106.626C94.231 106.753 94.5987 107.05 95.0088 107.234C95.4896 107.461 95.9846 107.545 96.4937 107.446C97.7099 107.206 98.6291 106.202 99.6898 105.622C101.486 104.66 103.211 105.947 104.965 106.414C108.613 107.39 112.516 107.093 116.25 107.05C120.846 107.008 125.456 107.036 130.024 106.471C130.293 106.442 130.293 106.018 130.024 106.046C125.923 106.541 121.779 106.57 117.65 106.612C113.719 106.654 109.561 107.022 105.686 106.145C104.781 105.947 103.932 105.65 103.07 105.297C102.32 104.986 101.542 104.689 100.722 104.802C99.4352 104.972 98.4736 105.99 97.3846 106.612C96.819 106.937 96.1967 107.164 95.5462 106.98C94.8391 106.768 94.2593 106.145 93.4815 106.117C92.7461 106.103 92.3925 106.697 91.8552 107.079C91.1056 107.602 90.1581 107.616 89.2813 107.475C87.4146 107.178 85.6751 106.457 83.766 106.372C81.6871 106.273 79.6083 106.654 77.6708 107.461C77.4163 107.56 77.5294 107.97 77.784 107.871Z" fill="#E8E8E8"/>
<path d="M86.8049 95.2557C87.0595 95.2981 87.2999 95.3547 87.5545 95.3971C87.8232 95.4537 87.9222 95.086 87.6676 94.987C87.512 94.9304 87.3565 94.8739 87.1868 94.8173C86.9605 94.7324 86.8049 95.1001 87.0171 95.1991C88.3181 95.8779 89.6757 96.4153 91.0899 96.7972C91.3586 96.8679 91.4718 96.4578 91.2031 96.387C89.8172 96.0194 88.502 95.4961 87.2292 94.8314C87.1726 94.9587 87.1161 95.086 87.0595 95.2133C87.2151 95.2698 87.3706 95.3264 87.5403 95.383C87.5827 95.2415 87.611 95.1143 87.6535 94.9729C87.3989 94.9304 87.1585 94.8739 86.9039 94.8314C86.6494 94.789 86.5362 95.1991 86.8049 95.2557Z" fill="#E8E8E8"/>
<path d="M67.7979 114.857C67.4868 114.49 67.204 114.108 66.9636 113.684C66.8504 113.471 66.709 113.245 66.6383 113.005C66.5393 112.849 66.5252 112.665 66.5817 112.481C66.5393 112.284 66.5959 112.128 66.7373 112.015C66.9494 111.435 66.6949 110.827 66.5535 110.233C66.3413 109.3 66.1292 108.366 65.9171 107.433C65.8039 106.938 65.6908 106.457 65.5918 105.962C65.5352 105.736 65.4928 105.524 65.4362 105.297C65.3514 104.901 65.2665 104.718 65.5635 104.392C65.7049 104.095 65.9171 104.039 66.1999 104.265C66.3272 104.392 66.4545 104.52 66.5817 104.647C66.7232 104.831 66.8222 105.043 66.9353 105.241C67.1333 105.609 67.3313 105.976 67.5151 106.344C67.9535 107.221 68.3353 108.126 68.6606 109.045C69.2828 110.77 69.7071 112.552 69.9617 114.377C70.0324 114.292 70.1031 114.193 70.1596 114.108C70.1879 114.136 70.2021 114.179 70.2303 114.207C70.3011 113.938 69.8909 113.825 69.8202 114.094C69.7637 114.348 69.8909 114.532 70.1596 114.532C70.3152 114.532 70.3859 114.405 70.3576 114.263C70.0324 111.93 69.4243 109.653 68.4909 107.489C68.0525 106.471 67.5858 105.34 66.9353 104.435C66.5817 103.94 65.9454 103.487 65.3373 103.841C64.6443 104.237 64.9696 105.213 65.111 105.821C65.3938 107.065 65.6767 108.31 65.9454 109.554C66.0726 110.148 66.3413 110.813 66.3696 111.421C66.3838 111.916 65.9736 112.142 66.0443 112.637C66.1858 113.556 66.8787 114.49 67.4585 115.168C67.6707 115.352 67.9676 115.055 67.7979 114.857Z" fill="#E8E8E8"/>
<path d="M69.0991 108.776C68.887 107.503 68.9153 106.202 69.2123 104.943C69.283 104.618 69.382 104.307 69.4951 103.996C69.6931 103.459 69.9759 103.515 70.2588 103.911C70.6265 104.434 70.9093 105.014 71.1214 105.608C71.9841 108.069 71.6022 110.713 71.2346 113.216C71.1921 113.485 71.6022 113.598 71.6447 113.33C72.1114 110.176 72.5922 106.598 70.683 103.784C70.4709 103.473 70.1881 102.949 69.7497 103.02C69.283 103.105 69.1274 103.741 69.0001 104.109C68.491 105.651 68.4062 107.291 68.6749 108.875C68.7456 109.158 69.1557 109.045 69.0991 108.776Z" fill="#E8E8E8"/>
<path d="M69.8645 105.523C70.2888 107.729 70.4443 109.949 70.3736 112.183C70.3595 112.452 70.7837 112.452 70.7979 112.183C70.8827 109.907 70.6989 107.644 70.2746 105.409C70.218 105.141 69.8221 105.254 69.8645 105.523Z" fill="#E8E8E8"/>
<path d="M17.8497 75.3727C17.4396 74.4677 16.5203 73.8313 15.9405 73.0393C15.3041 72.1625 14.7667 71.215 14.2435 70.2817C14.2011 70.3806 14.1586 70.4938 14.1162 70.5928C16.9587 70.0837 18.5992 72.8838 19.1507 75.2455C19.2073 75.5142 19.6174 75.401 19.5608 75.1323C18.9527 72.5161 17.086 69.6453 14.0031 70.1827C13.8617 70.2109 13.8192 70.3806 13.8758 70.4938C14.3991 71.4413 14.9223 72.3888 15.5728 73.2514C16.1527 74.0434 17.086 74.7081 17.482 75.5849C17.5951 75.8394 17.9628 75.6273 17.8497 75.3727Z" fill="#E8E8E8"/>
<path d="M19.0799 73.0962C19.292 70.8759 21.4133 69.49 22.2335 67.5243C22.1346 67.5667 22.0214 67.6091 21.9224 67.6515C22.8699 68.2596 22.1628 70.4658 21.8941 71.3143C21.4982 72.5588 20.8476 73.6901 20.0133 74.6801C19.8436 74.8922 20.1405 75.1892 20.3103 74.977C21.3568 73.7467 22.1063 72.3184 22.4881 70.7486C22.7285 69.7587 23.1811 67.9627 22.1346 67.2838C22.0073 67.199 21.8659 67.298 21.8234 67.4111C20.9749 69.4475 18.8819 70.7769 18.6556 73.0962C18.6274 73.3649 19.0516 73.3649 19.0799 73.0962Z" fill="#E8E8E8"/>
<path d="M144.66 79.5167C144.533 79.1915 144.405 78.8662 144.278 78.541C144.207 78.3854 144.151 78.2157 144.08 78.0601C143.995 77.947 143.995 77.8197 144.066 77.6924C144.193 77.8056 144.448 77.7349 144.434 77.5369C144.363 76.8298 144.292 76.1085 144.222 75.4014C144.207 75.2317 144.038 74.5671 144.137 74.4398C144.575 73.8317 144.872 74.8358 144.914 74.9913C145.296 76.2924 145.282 77.7914 145.268 79.1349C145.268 79.4036 145.692 79.4036 145.692 79.1349C145.706 78.0318 145.65 76.9429 145.494 75.854C145.395 75.161 145.282 74.157 144.603 73.7468C144.165 73.4782 143.797 73.761 143.712 74.2277C143.628 74.6802 143.769 75.2176 143.811 75.656C143.868 76.2782 143.939 76.9005 143.995 77.5227C144.123 77.4662 144.236 77.4237 144.363 77.3672C144.123 77.1409 143.755 77.1833 143.613 77.4945C143.514 77.7066 143.599 77.9328 143.67 78.145C143.84 78.6399 144.066 79.1208 144.25 79.6157C144.349 79.8844 144.759 79.7713 144.66 79.5167Z" fill="#E8E8E8"/>
<path d="M145.607 77.2111C145.551 75.2312 145.961 73.2938 146.824 71.4978C146.71 71.5119 146.597 71.526 146.484 71.5402C147.403 72.3038 146.795 74.3686 146.64 75.3585C146.428 76.6878 146.159 78.0172 145.819 79.3182C145.749 79.5869 146.159 79.7001 146.23 79.4314C146.64 77.8475 146.951 76.2353 147.177 74.609C147.318 73.5625 147.729 72.021 146.781 71.2291C146.682 71.1442 146.512 71.1442 146.442 71.2715C145.551 73.1241 145.112 75.1322 145.169 77.1969C145.197 77.4798 145.621 77.4798 145.607 77.2111Z" fill="#E8E8E8"/>
<path d="M71.3903 120.498C72.2812 119.593 73.6671 120.81 74.6995 120.753C75.1945 120.725 75.647 120.541 76.0996 120.385C76.7077 120.187 77.2875 120.117 77.9239 120.173C80.4411 120.385 82.8877 120.569 85.4191 120.399C85.6878 120.385 85.6878 119.961 85.4191 119.975C84.0473 120.06 82.6897 120.088 81.3179 120.032C79.932 119.975 78.4895 119.636 77.1178 119.735C76.5662 119.777 76.0571 119.961 75.5339 120.131C74.7702 120.371 74.1904 120.329 73.455 120.06C72.6489 119.763 71.7438 119.523 71.0792 120.201C70.8953 120.399 71.1923 120.696 71.3903 120.498Z" fill="#E8E8E8"/>
<path d="M44.6771 123.935C45.667 122.86 47.4065 122.79 48.453 123.808C48.4671 123.695 48.4813 123.582 48.4954 123.469C47.76 123.822 47.0105 123.978 46.2044 123.935C45.9357 123.921 45.9357 124.345 46.2044 124.36C47.0954 124.402 47.9156 124.232 48.7217 123.836C48.849 123.78 48.8631 123.596 48.7641 123.497C47.5479 122.323 45.5256 122.38 44.3801 123.624C44.1963 123.836 44.4932 124.133 44.6771 123.935Z" fill="#E8E8E8"/>
<path d="M5.26412 127.753C4.54289 127.696 3.82165 127.909 3.27011 128.404C2.93071 128.715 2.44988 129.295 2.88828 129.705C3.38325 130.157 4.57117 129.86 5.15099 129.804C6.21163 129.69 7.24399 129.493 8.27635 129.224C8.54504 129.153 8.43191 128.743 8.16321 128.814C6.91872 129.139 5.66009 129.351 4.37318 129.436C4.11863 129.45 3.84993 129.478 3.59538 129.478C2.95899 129.45 3.25597 128.969 3.56709 128.701C4.03378 128.276 4.64188 128.121 5.26412 128.177C5.54696 128.191 5.53282 127.767 5.26412 127.753Z" fill="#E8E8E8"/>
<path d="M25.4731 116.087C25.5014 115.974 25.5863 115.903 25.6994 115.903C25.7984 115.889 25.8974 115.875 25.9823 115.86C26.2085 115.832 26.4207 115.846 26.6469 115.875C27.0853 115.931 27.4813 116.087 27.8631 116.327C27.8773 116.2 27.8914 116.073 27.9197 115.945C27.3964 116.129 26.8732 116.172 26.3217 116.087C26.053 116.044 25.9398 116.454 26.2085 116.497C26.8308 116.596 27.4247 116.553 28.0328 116.355C28.2025 116.299 28.245 116.073 28.0894 115.974C27.354 115.507 26.3924 115.281 25.5297 115.521C25.063 115.648 24.6953 116.37 25.36 116.511C25.6287 116.553 25.7418 116.143 25.4731 116.087Z" fill="#E8E8E8"/>
<path d="M37.1808 18.8331C33.815 17.6452 31.4109 14.3784 31.0432 10.8429C30.6614 7.19434 32.7119 3.71543 35.7949 1.8487C39.1182 -0.159446 43.8416 -0.173588 46.571 2.86692C47.971 4.40839 48.8337 6.51553 49.3428 8.50954C49.866 10.5601 49.9509 12.837 48.7771 14.6895C47.5892 16.5421 45.4679 17.5745 43.4739 18.3523C41.3668 19.1867 38.8354 19.8372 36.7707 18.5361C36.5444 18.3947 36.3323 18.7624 36.5585 18.9038C38.4111 20.0635 40.6455 19.7665 42.6254 19.116C44.5628 18.4796 46.6134 17.5886 48.1125 16.1462C51.4641 12.9359 50.0923 7.63274 47.9993 4.11141C46.8962 2.24468 45.2416 0.872912 43.1345 0.307236C41.1264 -0.230156 38.9768 -0.0463113 37.0676 0.731493C33.5604 2.17397 30.8169 5.53974 30.5906 9.38633C30.3361 13.6289 33.0655 17.829 37.0676 19.2432C37.3222 19.3422 37.4353 18.9321 37.1808 18.8331Z" fill="#E8E8E8"/>
<path d="M143.514 100.926C153.159 100.318 162.747 99.0168 172.194 97.0227C174.923 96.4429 177.639 95.8065 180.34 95.1136C180.608 95.0429 180.495 94.6328 180.227 94.7035C170.865 97.0935 161.333 98.8188 151.717 99.8228C148.987 100.106 146.258 100.332 143.528 100.502C143.246 100.516 143.246 100.94 143.514 100.926Z" fill="#E8E8E8"/>
<path d="M121.412 111.138C122.656 111.35 123.929 111.336 125.159 111.039C125.923 110.855 126.474 110.558 127.266 110.812C127.761 110.968 128.228 111.024 128.737 110.926C129.303 110.812 129.826 110.53 130.307 110.218C130.83 109.865 131.353 109.37 131.99 109.243C132.725 109.101 133.39 109.681 134.097 109.837C134.606 109.95 135.129 109.936 135.638 109.851C135.907 109.808 135.794 109.398 135.525 109.441C134.634 109.596 133.941 109.37 133.135 109.016C132.796 108.861 132.471 108.776 132.089 108.804C130.943 108.931 130.151 110.006 129.091 110.388C128.412 110.629 127.86 110.544 127.196 110.332C126.687 110.176 126.319 110.261 125.824 110.416C124.424 110.855 122.996 110.982 121.553 110.742C121.27 110.685 121.143 111.095 121.412 111.138Z" fill="#E8E8E8"/>
<path d="M51.3375 129.536C62.3257 129.536 73.314 129.536 84.3022 129.536C84.8538 129.536 84.8538 128.688 84.3022 128.688C73.314 128.688 62.3257 128.688 51.3375 128.688C50.7859 128.688 50.7859 129.536 51.3375 129.536Z" fill="#161616"/>
<path d="M86.6637 129.282C87.9506 129.282 89.2375 129.282 90.5244 129.282C91.0759 129.282 91.0759 128.434 90.5244 128.434C89.2375 128.434 87.9506 128.434 86.6637 128.434C86.1121 128.434 86.1121 129.282 86.6637 129.282Z" fill="#161616"/>
<path d="M93.3824 129.153C93.7925 129.153 94.2168 129.153 94.6269 129.153C95.1784 129.153 95.1784 128.305 94.6269 128.305C94.2168 128.305 93.7925 128.305 93.3824 128.305C92.8309 128.305 92.8309 129.153 93.3824 129.153Z" fill="#161616"/>
<path d="M15.8835 132.647C24.0151 132.647 32.1326 132.647 40.2641 132.647C40.8157 132.647 40.8157 131.799 40.2641 131.799C32.1326 131.799 24.0151 131.799 15.8835 131.799C15.3461 131.799 15.3461 132.647 15.8835 132.647Z" fill="#161616"/>
<path d="M42.6257 132.647C44.747 132.647 46.8541 132.647 48.9754 132.647C49.5269 132.647 49.5269 131.799 48.9754 131.799C46.8541 131.799 44.747 131.799 42.6257 131.799C42.0883 131.799 42.0883 132.647 42.6257 132.647Z" fill="#161616"/>
<path d="M52.5831 132.391C52.7104 132.391 52.8377 132.391 52.9508 132.391C53.1771 132.391 53.3892 132.193 53.3751 131.967C53.3609 131.741 53.1912 131.543 52.9508 131.543C52.8235 131.543 52.6963 131.543 52.5831 131.543C52.3569 131.543 52.1447 131.741 52.1589 131.967C52.173 132.193 52.3427 132.391 52.5831 132.391Z" fill="#161616"/>
<path d="M11.4156 132.761C11.7126 132.761 11.9954 132.761 12.2924 132.761C12.8439 132.761 12.8439 131.912 12.2924 131.912C11.9954 131.912 11.7126 131.912 11.4156 131.912C10.8641 131.912 10.8641 132.761 11.4156 132.761Z" fill="#161616"/>
<path d="M123.476 117.218C134.875 117.218 146.273 117.218 157.685 117.218C158.237 117.218 158.237 116.369 157.685 116.369C146.287 116.369 134.889 116.369 123.476 116.369C122.925 116.369 122.925 117.218 123.476 117.218Z" fill="#161616"/>
<path d="M162.153 116.724C172.477 116.724 182.8 116.724 193.124 116.724C193.675 116.724 193.675 115.875 193.124 115.875C182.8 115.875 172.477 115.875 162.153 115.875C161.616 115.875 161.616 116.724 162.153 116.724Z" fill="#161616"/>
<path d="M195.869 116.47C196.703 116.47 197.523 116.47 198.358 116.47C198.909 116.47 198.909 115.621 198.358 115.621C197.523 115.621 196.703 115.621 195.869 115.621C195.317 115.621 195.317 116.47 195.869 116.47Z" fill="#161616"/>
<path d="M184.921 111.745C187.283 111.745 189.645 111.745 192.007 111.745C192.558 111.745 192.558 110.896 192.007 110.896C189.645 110.896 187.283 110.896 184.921 110.896C184.37 110.896 184.37 111.745 184.921 111.745Z" fill="#161616"/>
<path d="M194.368 111.618C194.948 111.618 195.528 111.618 196.107 111.618C196.659 111.618 196.659 110.77 196.107 110.77C195.528 110.77 194.948 110.77 194.368 110.77C193.83 110.77 193.83 111.618 194.368 111.618Z" fill="#161616"/>
<path d="M116.632 119.708C119.658 119.708 122.684 119.708 125.711 119.708C126.262 119.708 126.262 118.859 125.711 118.859C122.684 118.859 119.658 118.859 116.632 118.859C116.094 118.859 116.094 119.708 116.632 119.708Z" fill="#161616"/>
<path d="M128.949 119.581C130.236 119.581 131.523 119.581 132.81 119.581C133.361 119.581 133.361 118.732 132.81 118.732C131.523 118.732 130.236 118.732 128.949 118.732C128.397 118.732 128.397 119.581 128.949 119.581Z" fill="#161616"/>
<path d="M134.548 121.702C135.425 121.702 136.288 121.702 137.165 121.702C137.716 121.702 137.716 120.854 137.165 120.854C136.288 120.854 135.425 120.854 134.548 120.854C133.997 120.854 133.997 121.702 134.548 121.702Z" fill="#161616"/>
<path d="M74.3176 50.7946C73.8085 50.1582 75.7318 49.7623 76.0429 49.635C76.651 49.3663 77.0329 48.8713 77.1743 48.2208C77.3157 47.5561 77.1743 46.849 77.3723 46.1985C77.6692 45.2369 78.7723 45.2934 79.5925 45.3359C80.1441 45.3641 80.1299 44.5156 79.5925 44.4873C78.6592 44.4308 77.5844 44.4591 76.9339 45.2227C76.354 45.9015 76.4672 46.8208 76.3965 47.6551C76.3399 48.4046 76.0571 48.7723 75.3217 48.9845C74.8974 49.1117 74.4732 49.1825 74.1196 49.4512C73.4691 49.9178 73.2004 50.7381 73.7236 51.3886C74.0489 51.827 74.657 51.2189 74.3176 50.7946Z" fill="#161616"/>
<path d="M77.33 51.5009C76.9482 51.0483 77.825 50.5958 78.1078 50.4261C78.4897 50.1998 78.8149 49.9877 79.0978 49.6483C79.6776 48.9553 80.0594 47.6401 81.1059 47.5836C81.6433 47.5553 81.6575 46.7068 81.1059 46.7351C79.3665 46.8199 79.2251 48.6301 78.0371 49.4786C77.528 49.8321 76.9199 50.0301 76.5947 50.5958C76.2977 51.1049 76.3543 51.6564 76.7219 52.0948C77.0755 52.5191 77.6836 51.911 77.33 51.5009Z" fill="#161616"/>
<path d="M143.599 5.7242C143.543 6.62928 142.836 7.7182 143.684 8.48187C144.42 9.13239 145.339 8.65157 146.173 8.70814C147.092 8.77885 146.696 9.62736 146.583 10.2496C146.498 10.7163 146.456 11.2254 146.668 11.6779C147.008 12.385 147.927 12.8376 148.606 12.3285C149.03 12.0032 148.606 11.2678 148.181 11.5931C147.488 12.1163 147.347 10.8577 147.418 10.4759C147.488 10.0658 147.63 9.65564 147.644 9.23139C147.658 8.63743 147.347 8.17075 146.795 7.97276C146.117 7.73235 145.509 8.00104 144.83 7.9869C143.599 7.95862 144.42 6.45958 144.462 5.7242C144.49 5.17266 143.642 5.17266 143.599 5.7242Z" fill="#161616"/>
<path d="M148.464 6.69977C148.111 7.46343 147.771 8.36852 148.337 9.13218C148.549 9.41502 148.832 9.58472 149.171 9.64129C149.398 9.66957 149.695 9.57058 149.892 9.65543C150.218 9.78271 150.402 10.1645 150.246 10.5039C150.006 10.9989 150.741 11.4232 150.981 10.9282C151.278 10.2918 151.165 9.55644 150.6 9.08975C150.288 8.8352 150.006 8.8352 149.624 8.79277C148.591 8.69378 148.874 7.83112 149.2 7.13817C149.426 6.6432 148.69 6.20481 148.464 6.69977Z" fill="#161616"/>
<path d="M193.535 36.0294C193.224 35.2233 193.973 34.0636 194.921 34.3606C195.642 34.601 195.967 35.6758 195.486 36.2698C195.147 36.694 195.741 37.288 196.08 36.8637C196.957 35.8031 196.519 33.9505 195.147 33.5404C193.634 33.0878 192.177 34.8131 192.729 36.2415C192.912 36.7647 193.733 36.5385 193.535 36.0294Z" fill="#161616"/>
<path d="M28.4413 69.6018C28.3565 68.5977 29.6292 68.0321 30.1666 68.9796C30.6192 69.7998 29.7282 70.521 28.9504 70.2523C28.4413 70.0685 28.215 70.8887 28.7241 71.0726C30.2939 71.6382 31.7788 69.8564 30.8313 68.4422C29.8131 66.929 27.4514 67.8199 27.6069 69.6018C27.6352 70.1392 28.4837 70.1533 28.4413 69.6018Z" fill="#161616"/>
<path d="M33.3631 29.9628C33.0379 30.5002 33.0096 31.1931 33.4338 31.6881C33.646 31.9285 33.9429 32.0841 34.2541 32.1406C34.6925 32.2113 35.0177 31.9709 35.3996 32.1548C35.7814 32.3527 35.6965 32.5932 35.739 32.9891C35.7531 33.2295 35.7673 33.4558 35.7955 33.6962C35.8238 33.9508 35.8521 34.2053 36.0359 34.4033C36.2056 34.5872 36.4178 34.6579 36.6582 34.7003C36.8279 34.7286 36.9976 34.7144 37.1814 34.7144C37.3229 34.7144 37.4784 34.7144 37.6198 34.7427C37.8885 34.8134 38.0017 34.9973 37.9734 35.266C37.7613 35.4215 37.9592 35.7892 38.1855 35.6337C38.6098 35.3225 38.4684 34.8417 38.1007 34.5306C37.931 34.3892 37.7471 34.3185 37.5208 34.2902C36.7855 34.1912 36.3612 34.474 36.1915 33.4417C36.1067 32.9326 36.2905 31.8719 35.7673 31.5325C35.5268 31.377 35.3147 31.4477 35.0743 31.5467C34.6925 31.7022 34.3813 31.8295 33.9854 31.5891C33.448 31.2638 33.4338 30.6274 33.7308 30.1466C33.8722 29.9486 33.5045 29.7365 33.3631 29.9628Z" fill="#5E5E5E"/>
<path d="M39.0758 31.6448C38.7929 32.1398 38.4535 32.8893 38.8919 33.3984C39.1748 33.7378 39.6556 33.6954 40.0233 33.9075C40.6031 34.2328 40.8718 34.9116 40.7586 35.548C40.7162 35.8167 41.1263 35.9298 41.1688 35.6611C41.2819 35.0247 41.1405 34.4025 40.7021 33.9217C40.5182 33.7095 40.2778 33.554 40.0233 33.4408C39.7263 33.3136 39.2172 33.158 39.1182 32.7903C39.0475 32.5216 39.3303 32.0691 39.4434 31.8569C39.5707 31.6165 39.203 31.4044 39.0758 31.6448Z" fill="#5E5E5E"/>
<path d="M118.682 76.3066C118.202 75.3167 119.107 74.157 120.181 74.5389C121.299 74.9348 121.256 76.4622 120.196 76.8864C119.941 76.9854 120.054 77.3955 120.309 77.2965C121.68 76.745 121.864 74.7793 120.436 74.1853C118.965 73.5631 117.664 75.1611 118.329 76.5329C118.442 76.7733 118.81 76.547 118.682 76.3066Z" fill="#494949"/>
<path d="M66.5967 72.9539C65.6916 72.7701 67.1482 71.7943 67.3037 71.6953C67.53 71.5397 67.7421 71.37 67.8553 71.1013C68.2371 70.2387 67.5442 68.5134 69.0715 68.4285C69.3402 68.4144 69.3402 67.9901 69.0715 68.0043C68.4775 68.0325 68.0391 68.3578 67.7704 68.8669C67.332 69.6871 67.8553 70.8043 67.0068 71.37C66.5259 71.6953 66.0168 71.9074 65.9603 72.5438C65.932 72.9256 66.0875 73.265 66.4835 73.3499C66.7522 73.4206 66.8654 73.0105 66.5967 72.9539Z" fill="#7F7F7F"/>
<path d="M69.3116 71.7234C68.9156 71.1718 69.1419 70.394 69.8066 70.1819C70.2591 70.0405 70.5985 70.1112 70.8531 69.6445C71.1076 69.1637 71.0652 68.598 71.348 68.103C71.7016 67.4667 72.2955 67.0283 72.9743 66.8161C73.2289 66.7313 73.1299 66.3212 72.8612 66.406C72.2248 66.604 71.6733 66.9576 71.2632 67.4808C71.051 67.7495 70.8672 68.0606 70.7541 68.4C70.5985 68.8526 70.6692 69.4607 70.1601 69.7011C69.849 69.8566 69.5379 69.7718 69.2409 69.9981C69.0429 70.1395 68.9015 70.3516 68.8166 70.5637C68.6186 71.0304 68.6611 71.5254 68.958 71.9355C69.0995 72.1618 69.4672 71.9496 69.3116 71.7234Z" fill="#7F7F7F"/>
<path d="M54.9308 6.68606C54.6763 6.17695 55.7652 6.36079 55.8076 6.37493C55.9632 6.4315 56.1187 6.55878 56.2601 6.64363C56.4864 6.77091 56.741 6.89818 57.0097 6.91233C57.3632 6.92647 57.6602 6.77091 57.8865 6.51635C58.537 5.72441 58.2966 3.67383 59.8239 4.28193C60.2764 4.46578 60.7856 4.73447 61.2805 4.5082C61.6765 4.32436 61.7613 3.92839 61.7048 3.53241C61.6765 3.33443 61.4502 2.93845 61.5068 2.74047C61.6199 2.35863 61.9735 2.33035 62.2422 2.45763C62.3694 2.5142 62.4826 2.59905 62.624 2.64147C63.0483 2.79703 63.4584 2.76875 63.7129 2.37278C63.8543 2.14651 63.4867 1.93438 63.3452 2.16065C63.0624 2.61319 61.931 1.67982 61.4219 1.96266C61.0118 2.17479 61.026 2.59905 61.125 2.99502C61.2381 3.4617 61.5209 4.14051 60.6583 4.12637C60.2764 4.12637 59.9229 3.80111 59.5552 3.7304C59.1168 3.64555 58.7208 3.75868 58.438 4.09809C57.7309 4.93246 57.9996 7.11031 56.3591 6.21937C55.8783 5.96482 55.4823 5.71026 54.9449 5.95068C54.5348 6.13452 54.3368 6.48807 54.549 6.89818C54.6904 7.1386 55.0439 6.92647 54.9308 6.68606Z" fill="#303030"/>
<path d="M71.773 18.2251C71.1366 18.0696 71.0517 17.2493 71.3629 16.7685C71.8013 16.0897 72.8336 16.1321 73.5266 16.2594C74.6862 16.4715 75.761 16.9241 76.9348 16.4857C78.0661 16.0614 78.9146 15.1422 80.1874 15.1139C81.5167 15.0856 82.7754 15.6655 84.1189 15.623C86.4664 15.5523 88.6018 14.3927 90.8504 13.8553C92.1797 13.53 93.4808 13.5017 94.8101 13.8411C96.0829 14.1664 97.2708 14.6897 98.5436 15.0008C99.8729 15.3402 101.188 15.2836 102.532 15.1705C104.002 15.0574 105.516 14.9442 106.845 15.7079C106.817 15.623 106.774 15.5523 106.746 15.4675C106.039 17.5463 103.748 18.3948 101.726 18.508C99.1941 18.6494 96.7334 17.7302 94.1879 17.8292C91.6141 17.9282 89.4362 19.4979 86.9048 19.7383C84.3168 19.9929 81.8703 18.7625 79.2965 18.8332C76.6802 18.9039 73.272 20.3323 71.2073 17.9989C71.0235 17.8009 70.7265 18.0979 70.9103 18.2958C72.5366 20.1202 75.1105 19.7949 77.2742 19.4696C78.8722 19.2292 80.3288 19.2151 81.9269 19.5262C83.2845 19.7949 84.6421 20.1626 86.028 20.1909C88.8281 20.2616 91.1898 18.4514 93.9475 18.2676C96.7334 18.0837 99.4345 19.2009 102.22 18.8898C104.299 18.6635 106.463 17.6877 107.17 15.5665C107.198 15.4816 107.156 15.3685 107.071 15.326C104.582 13.8694 101.584 15.2412 98.9113 14.6331C97.4405 14.2937 96.0688 13.6432 94.5839 13.332C93.2969 13.0492 92.0242 13.1199 90.7514 13.431C89.3938 13.7563 88.1069 14.2937 86.7775 14.7038C85.2502 15.1705 83.7936 15.3119 82.2097 14.9866C80.9511 14.7179 79.7914 14.5058 78.6035 15.0998C78.052 15.3826 77.5429 15.7644 76.9772 16.019C76.0156 16.4433 75.0963 16.1887 74.1205 15.9483C73.0882 15.7079 71.5326 15.5382 70.9528 16.6837C70.5851 17.4049 70.8396 18.4373 71.6881 18.6353C71.9285 18.6918 72.0417 18.2817 71.773 18.2251Z" fill="#E8E8E8"/>
<path d="M12.8853 40.0168C14.8086 39.7622 16.6329 40.7522 18.542 40.5118C19.3198 40.4128 20.0411 40.0734 20.7623 39.7764C21.1017 39.635 21.4552 39.5077 21.8229 39.4228C22.5159 39.2673 23.1381 39.4511 23.8169 39.5925C25.712 40.0026 27.8332 39.5501 29.7283 39.2814C30.6616 39.1541 31.5808 39.0127 32.5142 38.8572C33.5748 38.6733 34.6355 38.3905 35.6961 38.2773C36.8133 38.1642 38.1285 38.6592 37.676 40.0309C37.2942 41.2047 35.8658 41.5441 34.791 41.629C32.9243 41.7704 31.0717 41.233 29.205 41.5865C27.4655 41.9118 25.9099 42.8169 24.2271 43.3119C23.2937 43.5947 22.3603 43.7078 21.3987 43.5805C20.437 43.4391 19.5319 43.1987 18.542 43.2694C16.5339 43.3967 14.3984 44.5705 12.3903 44.1038C11.1599 43.821 10.5236 42.6896 11.1175 41.5158C11.6973 40.3845 13.0267 40.0875 14.1863 40.0875C14.455 40.0875 14.455 39.6632 14.1863 39.6632C12.56 39.6632 10.6367 40.3703 10.467 42.2371C10.3114 43.9624 12.0085 44.6695 13.4651 44.6129C14.5257 44.5705 15.5722 44.2594 16.6046 44.0189C17.9481 43.7078 19.1784 43.5947 20.536 43.8492C21.5401 44.0331 22.4735 44.1321 23.4917 43.9341C24.5382 43.7361 25.5281 43.3119 26.5039 42.9159C27.4938 42.5199 28.4979 42.1098 29.5585 41.9542C30.803 41.7704 32.0475 41.9684 33.292 42.0391C34.9183 42.1381 37.5063 42.0674 38.1003 40.1441C38.3124 39.4511 38.1568 38.645 37.5487 38.1925C36.9548 37.7541 36.1487 37.7824 35.4557 37.8672C32.9102 38.2208 30.4071 38.8006 27.8332 39.0834C26.3908 39.239 25.0049 39.4228 23.5907 39.0834C22.4452 38.8006 21.5401 38.9986 20.4653 39.437C19.8996 39.6632 19.3481 39.9178 18.7541 40.0309C18.0188 40.1724 17.2551 40.0734 16.5197 39.9461C15.3177 39.7198 14.1439 39.4087 12.9277 39.5642C12.6166 39.6208 12.6166 40.0451 12.8853 40.0168Z" fill="#E8E8E8"/>
<path d="M185.205 56.8316C182.532 57.765 179.406 55.5588 177.483 53.8901C177.455 54.0032 177.427 54.1305 177.384 54.2436C178.742 53.6921 180.17 53.6638 181.613 53.7487C183.041 53.8194 184.469 53.9184 185.898 53.9608C188.938 54.0457 191.993 53.975 195.019 53.7487C196.589 53.6355 198.144 53.48 199.7 53.2961C200.464 53.1971 201.383 53.0133 202.104 53.3668C203.108 53.876 203.023 54.979 202.062 55.4033C201.567 55.6154 201.029 55.6861 200.506 55.7851C199.686 55.9265 198.866 56.0821 198.045 56.2235C196.546 56.4922 195.047 56.7609 193.534 57.0296C192.672 57.1852 191.809 57.3407 190.946 57.4963C190.14 57.6377 189.306 57.8498 188.471 57.864C187.057 57.8781 185.997 56.6336 184.582 56.7892C184.314 56.8175 184.314 57.2417 184.582 57.2134C185.388 57.1145 186.025 57.5529 186.718 57.8781C187.283 58.1468 187.835 58.2882 188.457 58.2882C190.084 58.2741 191.766 57.7791 193.364 57.4821C195.09 57.171 196.829 56.8599 198.555 56.5488C199.375 56.4074 200.195 56.2518 201.015 56.1104C201.567 56.0114 202.147 55.8841 202.627 55.5588C203.434 55.0073 203.462 53.9891 202.783 53.3244C201.722 52.2779 199.898 52.8295 198.611 52.9709C195.132 53.3527 191.625 53.5507 188.118 53.5366C186.195 53.5366 184.271 53.4658 182.348 53.3386C180.637 53.2396 178.897 53.1547 177.285 53.8052C177.158 53.8618 177.059 54.0457 177.186 54.1588C179.223 55.9265 182.475 58.2034 185.318 57.2134C185.572 57.1569 185.473 56.7468 185.205 56.8316Z" fill="#E8E8E8"/>
<path d="M120.35 131.544C120.223 130.737 121.368 130.865 121.821 131.02C122.174 131.133 122.514 131.275 122.881 131.317C123.758 131.43 124.621 131.133 125.441 130.865C126.233 130.596 127.067 130.299 127.916 130.384C128.934 130.483 129.754 131.317 129.599 132.392C129.429 133.509 128.284 134.032 127.265 133.721C126.572 133.509 125.964 133.071 125.243 132.958C123.716 132.731 122.118 134.061 120.647 133.354C120.407 133.241 120.18 133.594 120.435 133.721C121.312 134.146 122.188 133.948 123.079 133.693C123.645 133.538 124.239 133.34 124.833 133.354C125.526 133.368 126.092 133.707 126.7 133.962C127.562 134.329 128.467 134.4 129.231 133.778C129.882 133.255 130.164 132.42 129.966 131.614C129.373 129.281 126.686 130.002 125.073 130.539C124.31 130.794 123.504 131.034 122.683 130.865C122.16 130.752 121.665 130.426 121.1 130.44C120.421 130.455 119.813 130.95 119.926 131.657C119.982 131.925 120.392 131.812 120.35 131.544Z" fill="#E8E8E8"/>
<path d="M104.044 126.835C104.723 126.199 105.656 125.93 106.575 126.128C106.957 126.213 108.018 126.496 107.353 127.005C107 127.273 106.222 127.245 105.798 127.245C105.529 127.245 105.529 127.669 105.798 127.669C106.42 127.669 107.509 127.641 107.975 127.146C108.371 126.722 107.919 126.255 107.537 126.043C106.321 125.336 104.751 125.605 103.747 126.538C103.549 126.722 103.846 127.019 104.044 126.835Z" fill="#E8E8E8"/>
<path d="M96.1813 136.211C96.0681 136.169 95.9692 136.126 95.856 136.084C95.8419 136.197 95.8277 136.31 95.8136 136.423C96.6762 135.801 97.652 136.254 98.5713 136.466C99.3491 136.65 100.028 136.565 100.792 136.381C101.739 136.155 102.701 136.013 103.676 135.957C104.129 135.928 104.582 135.914 105.034 135.9C105.458 135.886 106.519 135.674 106.151 136.395C105.713 137.258 104.44 137.286 103.662 137.031C102.998 136.819 102.375 136.508 101.668 136.678C100.933 136.848 100.311 137.314 99.5471 137.47C98.5288 137.682 97.5248 137.583 96.549 137.229C96.2944 137.145 96.1813 137.54 96.4358 137.639C97.3975 137.979 98.4016 138.092 99.4198 137.922C100.565 137.724 101.583 136.833 102.771 137.159C103.62 137.399 104.313 137.781 105.218 137.512C105.798 137.343 106.618 136.833 106.731 136.183C106.873 135.419 105.925 135.447 105.43 135.462C104.285 135.49 103.125 135.546 101.979 135.716C101.357 135.815 100.763 135.985 100.155 136.098C99.4056 136.239 98.7975 136.098 98.0763 135.9C97.2278 135.66 96.351 135.518 95.5873 136.056C95.4742 136.14 95.4459 136.282 95.5449 136.395C95.757 136.635 95.9833 136.692 96.2803 136.635C96.5631 136.579 96.45 136.169 96.1813 136.211Z" fill="#E8E8E8"/>
<path d="M154.588 128.108C155.408 127.769 156.27 127.585 157.161 127.599C158.081 127.613 158.858 127.967 159.735 128.165C161.022 128.476 161.984 127.684 163.03 127.076C164.685 126.1 166.325 126.736 168.051 127.09C169.281 127.345 170.596 127.387 171.657 126.637C171.883 126.482 171.671 126.114 171.445 126.27C170.115 127.231 168.475 126.765 167.018 126.411C165.646 126.086 164.289 125.902 163.002 126.609C162.436 126.92 161.913 127.33 161.319 127.599C160.414 128.009 159.679 127.684 158.802 127.429C157.373 127.019 155.86 127.132 154.489 127.698C154.22 127.797 154.333 128.207 154.588 128.108Z" fill="#E8E8E8"/>
<path d="M56.2593 58.4726C57.5179 57.9918 59.724 60.5798 60.813 62.2768C62.4817 64.8365 62.7504 67.0709 63.5706 72.2468C63.8818 74.255 64.3909 77.4369 65.0838 81.4532C66.3283 82.6694 66.795 83.8573 66.9788 84.5927C67.2334 85.5402 67.3041 86.7564 66.9788 86.8696C66.6253 86.9968 66.003 85.8089 65.7485 85.9221C65.4091 86.0776 66.5122 87.9868 65.8475 88.8636C65.1687 89.7545 62.6231 89.6131 61.2938 88.2979C60.0493 87.0675 60.5443 85.4978 60.3463 81.7502C60.2756 80.4774 60.0776 77.0127 59.0169 73.5903C57.7159 69.4185 56.3583 69.2063 55.5946 65.5153C55.0572 62.9132 54.9017 58.9959 56.2593 58.4726Z" fill="white" stroke="#161616"/>
<path opacity="0.15" d="M58.126 62.1212C58.9038 61.9515 60.2615 65.4728 60.3463 65.6708C61.5908 68.9234 60.9968 70.3093 61.5484 75.1034C62.0009 79.0066 62.2555 81.2269 63.5141 83.9704C64.7303 86.6008 66.1445 88.1423 65.6071 88.8494C65.0697 89.5706 62.9626 88.8776 61.308 88.213C61.1524 87.8594 60.9261 87.3079 60.7423 86.6291C60.2756 84.9745 60.3039 83.6593 60.3039 83.0229C60.3039 82.6693 60.2897 78.5682 59.4837 74.9903C59.0453 73.0811 58.8473 73.364 58.3382 71.3841C57.221 67.085 57.2634 62.305 58.126 62.1212Z" fill="#6D6C6C"/>
<path opacity="0.17" d="M60.0351 68.9668C60.1907 70.4376 60.3887 72.6295 60.4735 75.3024C60.6008 79.4177 60.4028 82.84 60.2897 82.84C60.1907 82.84 60.318 80.3793 59.7806 77.0135C59.427 74.7791 58.9038 72.969 58.5078 71.7669C58.7765 71.4982 59.1018 71.1305 59.3988 70.6214C59.7664 69.9709 59.9503 69.3769 60.0351 68.9668Z" fill="#6D6C6C"/>
<path d="M59.0593 119.128C58.6916 119.807 58.6351 120.542 59.4836 126.948C59.5826 127.74 59.6816 128.391 59.7381 128.843C61.9018 129.183 64.9565 129.451 68.5768 129.098C70.7688 128.886 73.3285 128.645 73.4699 127.811C73.5831 127.132 72.0982 125.916 65.31 123.597C64.9989 121.334 64.6737 119.071 64.3625 116.809C60.3887 117.077 59.3563 118.605 59.0593 119.128Z" fill="#161616"/>
<path d="M50.531 78.809C51.8603 80.6192 53.7553 83.2213 55.9756 86.4032C61.2364 93.9267 63.8668 97.6885 64.786 100.206C67.5013 107.659 66.7942 114.899 66.5255 117.36C66.3699 118.774 66.1719 119.934 66.0164 120.726C64.9416 121.136 63.4001 121.588 61.5192 121.744C59.8364 121.885 58.3939 121.73 57.3332 121.546C57.008 119.623 56.7393 117.459 56.612 115.111C56.4282 111.618 56.5979 108.493 56.9231 105.82C53.2887 103.034 50.9411 100.163 49.5128 98.1693C45.6945 92.7812 44.6762 88.1144 44.0681 85.1163C43.2055 80.9586 43.7994 79.8273 44.351 79.2333C46.1894 77.3241 50.1774 78.6959 50.531 78.809Z" fill="white" stroke="#161616"/>
<path opacity="0.19" d="M50.9402 90.7441C52.3968 91.9745 54.2918 93.7988 56.1303 96.3019C56.6394 97.009 58.7465 100.021 60.5991 104.858C63.1446 111.561 63.3568 117.812 63.2436 121.347C62.6214 121.573 61.7446 121.814 60.6981 121.899C59.298 121.998 58.1526 121.757 57.4172 121.531C56.9646 118.773 56.6252 115.591 56.5969 112.056C56.5828 109.765 56.6818 107.63 56.8656 105.678C56.5121 105.48 49.6816 101.633 49.7664 95.1988C49.7806 93.4028 50.3462 91.8755 50.9402 90.7441Z" fill="#6D6C6C"/>
<path opacity="0.15" d="M52.7656 101.578C53.0767 101.153 56.9657 102.341 58.5072 105.226C59.6668 107.39 58.7334 109.059 58.7759 112.142C58.8041 114.447 59.3981 117.728 61.9578 121.702C60.4729 121.673 58.988 121.645 57.489 121.617C57.0788 118.986 56.7536 115.988 56.6687 112.693C56.598 110.091 56.6829 107.687 56.8526 105.495C56.301 105.212 55.5939 104.774 54.8444 104.123C54.01 103.388 52.5393 101.889 52.7656 101.578Z" fill="#6D6C6C"/>
<path d="M34.0715 118.011C32.9967 118.704 32.8129 119.665 31.8371 121.786C31.1583 123.257 30.1401 125.223 28.5703 127.457C29.4613 128.461 30.9462 129.861 33.124 130.894C36.1079 132.308 40.2939 132.987 40.9445 131.756C41.6374 130.427 38.003 127.273 36.914 126.34C37.211 125.675 37.6918 124.615 38.2858 123.328C39.8555 119.962 40.1667 119.467 39.9121 118.859C39.3182 117.417 36.0231 116.766 34.0715 118.011Z" fill="#161616"/>
<path d="M38.6116 75.6133C37.7631 77.9467 36.9004 80.2801 36.0519 82.5994C34.6518 86.644 35.2599 89.4441 35.7125 90.7875C36.2074 92.2724 37.0701 93.5452 38.7813 96.0766C40.1106 98.0282 41.3127 99.5979 42.1895 100.687C40.4359 102.511 38.4419 104.873 36.561 107.843C34.0296 111.859 32.5306 115.635 31.6113 118.591C32.4457 119.227 33.7043 120.033 35.3589 120.641C37.2115 121.32 38.852 121.475 39.9692 121.49C41.9349 119.976 44.6219 117.615 47.125 114.15C49.0907 111.449 51.7352 107.814 52.5838 102.723C54.0262 94.0543 49.317 86.9975 47.6341 84.4803C44.5936 79.9124 40.945 77.1406 38.6116 75.6133Z" fill="white" stroke="#161616"/>
<path d="M44.5651 80.7046C45.6541 82.2177 46.7288 83.7451 47.7612 85.2865C47.8885 85.2158 48.0016 85.1451 48.1289 85.0744C47.2097 83.8441 46.3894 82.5289 45.6823 81.1571C45.5834 81.2561 45.4844 81.3551 45.3854 81.4541C45.9652 81.8501 46.2904 82.444 46.644 83.0238C47.0541 83.7026 47.4784 84.3815 47.8885 85.0603C48.6946 86.3755 49.5007 87.7048 50.3067 89.02C50.434 88.9493 50.5472 88.8786 50.6744 88.8079C49.4441 86.8846 48.2137 84.9613 46.9693 83.038C46.8278 82.8117 46.4601 83.0238 46.6016 83.2501C48.1289 85.7956 49.6704 88.327 51.1977 90.8726C51.3391 91.113 51.7068 90.9009 51.5654 90.6605C50.4482 88.7654 49.3451 86.8563 48.2279 84.9613C48.1148 85.0461 48.0016 85.131 47.8885 85.2158C49.4865 86.9836 49.7694 89.5574 51.5088 91.212C51.7068 91.3958 52.0038 91.0989 51.8058 90.915C50.0663 89.2746 49.7835 86.6866 48.1855 84.9188C48.0158 84.735 47.7329 84.9754 47.8461 85.1734C48.9633 87.0684 50.0663 88.9776 51.1835 90.8726C51.3108 90.8019 51.424 90.7312 51.5512 90.6605C50.0239 88.1149 48.4824 85.5835 46.9551 83.038C46.8278 83.1087 46.7147 83.1794 46.5874 83.2501C47.8178 85.1734 49.0481 87.0967 50.2926 89.02C50.434 89.2463 50.8017 89.0341 50.6603 88.8079C49.7552 87.323 48.8501 85.8381 47.945 84.3673C47.2804 83.2642 46.6723 81.8359 45.5692 81.0864C45.3854 80.9591 45.1874 81.1995 45.2722 81.3834C45.9793 82.7551 46.7854 84.0562 47.7188 85.3007C47.8743 85.5128 48.242 85.3148 48.0865 85.0886C47.0541 83.5329 45.9935 82.0056 44.8904 80.5066C44.7773 80.2662 44.4096 80.4783 44.5651 80.7046Z" fill="white"/>
<path opacity="0.2" d="M45.4548 81.3272C44.7195 82.3878 43.7012 84.1414 43.2628 86.4465C41.9194 93.4326 47.5761 96.5297 46.3175 102.653C45.6528 105.877 43.9699 105.581 40.2082 112.284C38.299 115.692 37.0828 118.69 36.3616 120.726C35.4424 120.444 34.4383 120.076 33.3777 119.595C32.7554 119.312 32.1756 119.029 31.6523 118.732C32.4867 116.13 33.7453 112.991 35.6404 109.625C37.7899 105.821 40.1516 102.851 42.1456 100.659C41.5941 99.952 40.7739 98.8773 39.8264 97.5338C37.2101 93.8286 35.8808 91.9336 35.4424 89.7557C34.9474 87.3516 35.3575 85.301 35.6404 83.9151C36.0646 81.8221 36.7859 80.1817 37.3657 79.0645C40.0526 79.814 42.7537 80.5776 45.4548 81.3272Z" fill="#6D6C6C"/>
<path opacity="0.17" d="M42.1317 80.464C40.5336 82.2883 38.4406 85.2864 38.6103 88.9067C38.8649 94.5776 44.4651 96.7414 43.659 101.394C43.4327 102.681 41.6508 104.746 38.0729 108.833C36.1072 111.081 34.4385 112.877 33.293 114.079C34.1698 111.93 35.4425 109.356 37.281 106.641C38.9073 104.237 40.576 102.313 42.0609 100.8C41.6225 100.135 40.8447 98.9475 39.869 97.4767C36.4608 92.3574 35.7961 91.5513 35.4143 89.7694C34.9617 87.6764 35.2587 85.9087 35.485 84.5935C35.8951 82.1469 36.7577 80.266 37.4083 79.0781C38.978 79.5307 40.5619 79.9973 42.1317 80.464Z" fill="#6D6C6C"/>
<path d="M49.4422 55.8564C47.434 57.0444 43.6157 59.6606 40.7025 64.4689C36.9973 70.5923 36.9973 76.5743 37.1246 78.8936C37.8175 79.1199 38.5246 79.3461 39.2459 79.5583C44.0683 81.0007 48.7351 81.9765 53.1474 82.5988C53.515 81.3401 53.911 80.0674 54.3353 78.7522C54.9717 76.8147 55.6363 74.9621 56.3151 73.1944C58.6627 71.9782 59.4829 70.4085 59.7516 69.7579C60.8405 67.2124 59.8082 64.5537 58.691 61.6829C58.0687 60.0707 57.7435 59.2505 56.9657 58.3737C54.5333 55.616 50.517 55.7857 49.4422 55.8564Z" fill="#B5B5B5"/>
<path opacity="0.27" d="M54.2073 59.2076C50.3466 59.7167 48.2819 61.4703 47.4475 62.2906C42.7383 66.9433 44.3646 74.792 44.803 76.9133C45.1989 78.8225 45.7929 80.3498 46.2596 81.3821C43.2756 80.576 40.3058 79.7558 37.3219 78.9497C37.1381 76.786 36.9542 71.2283 40.1644 65.3028C43.1484 59.8157 47.4334 57.0015 49.3425 55.8984C49.6112 55.9126 49.8799 55.9409 50.1486 55.955C50.5587 56.4358 51.0537 56.9449 51.6618 57.4682C52.5669 58.2601 53.4578 58.8117 54.2073 59.2076Z" fill="#6D6C6C"/>
<path opacity="0.2" d="M41.8338 62.7578C41.4378 64.8367 41.1126 67.8489 41.5368 71.4127C42.046 75.5987 43.3894 78.8371 44.4359 80.8736C42.0035 80.2513 39.557 79.6291 37.1246 79.021C37.0114 77.0694 37.068 74.142 38.0014 70.7763C39.0196 67.0994 40.66 64.4124 41.8338 62.7578Z" fill="#6D6C6C"/>
<path d="M161.391 109.483C160.5 111.477 160.67 113.344 160.811 114.22C163.597 115.451 166.072 116.016 167.967 116.299C168.589 116.398 176.282 117.487 177.032 115.38C177.216 114.857 176.919 114.319 176.622 113.796C174.967 110.897 170.781 110.727 170.215 110.713C170.06 107.701 168.122 105.467 166.143 105.311C163.342 105.099 161.589 109.044 161.391 109.483Z" fill="#161616"/>
<path d="M165.068 60.834C166.907 63.4785 169.381 67.5938 171.177 73.0526C174.105 81.9478 173.624 89.4148 173.299 93.6432C173.016 97.4049 172.252 102.751 170.117 108.916C169.537 109.284 166.977 110.811 163.739 110.118C161.815 109.708 160.514 108.69 159.892 108.124C161.038 105.607 162.424 101.817 162.947 97.0938C163.527 91.9462 162.82 87.9157 161.886 82.7398C159.765 71.0444 156.838 66.6039 159.369 63.3371C160.585 61.7532 162.664 61.0461 165.068 60.834Z" fill="white" stroke="#161616"/>
<path opacity="0.16" d="M166.072 67.2969C167.034 71.9778 167.798 77.3518 168.095 83.3196C168.604 93.9119 167.458 103.048 165.973 110.161C165.337 110.246 163.796 110.345 162.155 109.525C161.179 109.03 160.515 108.379 160.133 107.927C161.901 103.854 162.537 100.389 162.791 98.0555C163.187 94.3927 162.862 91.4512 162.254 85.9642C161.901 82.754 161.49 80.1236 161.193 78.3276C162.82 74.6648 164.446 70.9738 166.072 67.2969Z" fill="#6D6C6C"/>
<path opacity="0.22" d="M162.975 74.3398C164.192 77.5076 166.016 83.5462 165.394 91.2253C164.8 98.6215 162.198 104.123 160.543 107.036C163.315 99.0316 163.456 94.1244 163.032 91.0838C162.919 90.306 162.438 87.2231 161.886 82.6836C161.66 80.8027 161.49 79.2612 161.391 78.2713C161.929 76.9561 162.452 75.6409 162.975 74.3398Z" fill="#6D6C6C"/>
<path d="M140.926 103.358C139.752 103.938 139.399 104.886 137.787 107.954C136.712 109.991 135.807 111.617 135.213 112.664C137.023 113.965 139.894 115.676 143.726 116.581C145.989 117.118 150.698 117.868 151.236 116.581C151.83 115.153 146.993 111.857 144.957 110.528C147.05 108.492 147.149 105.536 145.734 104.023C144.532 102.736 142.355 102.651 140.926 103.358Z" fill="#161616"/>
<path d="M161.432 60.5374C166.098 64.6527 160.64 78.3704 156.157 89.3445C154.219 94.082 151.193 100.941 146.738 108.959C145.96 109.072 143.627 109.299 141.138 107.955C138.635 106.612 137.546 104.505 137.221 103.812C138.522 101.563 140.092 98.5367 141.591 94.8457C142.185 93.3891 144.744 86.8838 146.187 77.6916C146.752 74.0571 147.261 69.263 147.191 63.5638C148.025 62.7153 152.678 58.1475 158.179 59.194C159.013 59.3495 160.385 59.6182 161.432 60.5374Z" fill="white" stroke="#161616"/>
<path d="M162.945 66.1951C162.931 66.6901 162.917 67.185 162.917 67.68C163.059 67.68 163.2 67.68 163.341 67.68C163.271 66.888 163.313 66.1385 163.469 65.3607C163.327 65.3466 163.186 65.3183 163.059 65.3042C163.143 66.9729 162.762 68.7265 162.465 70.367C162.168 72.0216 161.772 73.662 161.305 75.2742C161.446 75.3166 161.574 75.3449 161.715 75.3873C162.493 72.4458 163.143 69.4902 163.681 66.4921C163.723 66.2234 163.313 66.1102 163.271 66.3789C162.733 69.3629 162.083 72.3327 161.305 75.2742C161.234 75.5429 161.644 75.656 161.715 75.3873C162.21 73.6903 162.606 71.9508 162.917 70.2114C163.2 68.6275 163.568 66.9163 163.483 65.3042C163.469 65.0779 163.115 65.0072 163.073 65.2476C162.903 66.0537 162.861 66.8598 162.931 67.68C162.96 67.9487 163.356 67.9628 163.356 67.68C163.37 67.185 163.384 66.6901 163.384 66.1951C163.384 65.9264 162.96 65.9264 162.945 66.1951Z" fill="white"/>
<path d="M161.149 74.3821C161.163 75.471 161.191 76.5599 161.205 77.6488C161.205 77.9175 161.63 77.9175 161.63 77.6488C161.615 76.5599 161.587 75.471 161.573 74.3821C161.559 74.0992 161.135 74.0992 161.149 74.3821Z" fill="white"/>
<path opacity="0.19" d="M155.265 64.9355C155.308 67.7781 155.152 71.6529 154.318 76.1501C153.427 80.9159 152.069 84.6069 150.089 90.1647C148.477 94.7184 147.699 96.076 146.059 101.125C145.055 104.193 144.348 106.767 143.895 108.493C143.117 108.394 141.505 108.068 139.893 106.866C138.394 105.749 137.63 104.42 137.291 103.727C139.893 99.1589 141.548 95.1568 142.594 92.2435C145.833 83.2352 146.596 75.4005 147.035 70.5782C147.219 68.57 147.318 66.9013 147.36 65.8123C149.99 65.5154 152.635 65.2325 155.265 64.9355Z" fill="#6D6C6C"/>
<path opacity="0.24" d="M153.81 65.3457C152.707 70.1964 151.434 74.0147 150.43 76.6875C149.61 78.8936 148.351 81.8634 145.848 87.7889C144.929 89.9809 144.462 91.0698 144.236 91.5648C142.85 94.676 140.63 99.0458 137.08 104.193C140.262 98.4802 143.911 90.3344 145.848 80.0674C146.824 74.8915 147.177 70.1681 147.22 66.0811C147.206 66.0669 147.206 66.0669 153.81 65.3457Z" fill="#6D6C6C"/>
<path d="M158.278 30.5717C158.504 31.1233 158.9 31.9293 159.622 32.7496C160.145 33.3435 160.81 34.1072 161.799 34.4042C163.723 34.9981 165.59 33.4708 165.844 33.2587C167.711 34.3617 169.578 35.4648 171.43 36.5679C171.6 38.873 171.614 42.3519 170.709 46.4106C169.846 50.2714 169.012 50.7381 168.333 54.4857C167.301 60.1141 168.064 65.1345 167.81 65.1487C167.767 65.1487 167.711 65.0355 167.598 64.4274C160.315 64.979 153.031 65.5305 145.748 66.082C145.536 61.7122 145.565 58.0353 145.649 55.32C145.763 51.0775 146.102 45.944 147.516 39.9902C148.52 35.7335 149.312 34.291 150.514 33.1597C153.116 30.6849 156.68 30.5293 158.278 30.5717Z" fill="#686868"/>
<path opacity="0.3" d="M166.706 33.7676C166.466 36.3555 166.013 40.2021 165.15 44.8124C164.896 46.1983 164.175 50.0166 163.595 51.8833C162.888 54.1743 160.13 60.722 146.639 66.0394C150.754 65.5586 154.997 65.1343 159.338 64.7808C162.053 64.5545 164.74 64.3565 167.385 64.2009C168.318 60.8776 169.181 57.1158 169.803 52.9581C170.751 46.665 170.934 40.9799 170.779 36.1858C169.421 35.3798 168.064 34.5737 166.706 33.7676Z" fill="#3F3F3F"/>
<path d="M160.937 21.2799C160.357 23.8254 160.046 26.371 158.293 29.6378C157.868 30.4297 157.458 31.0661 157.189 31.4621C157.783 32.155 159.891 34.4036 163.355 34.9127C165.335 35.1955 166.962 34.7996 167.881 34.5026C167.867 33.5975 167.895 32.5793 168.008 31.4762C168.178 29.8216 168.503 28.3791 168.857 27.1771C170.568 26.9508 172.265 26.7387 173.976 26.5124C174.315 25.7629 174.641 25.0134 174.98 24.2638C175.447 24.2497 175.913 24.2356 176.38 24.2073C176.026 23.1749 175.489 21.5627 174.881 19.5405C173.721 15.7504 173.75 15.213 173.127 14.3645C171.416 12.0452 167.57 10.5462 165.052 11.8048C162.903 12.8655 162.224 15.6231 160.937 21.2799Z" fill="white" stroke="#161616"/>
<path d="M176.338 24.0224C175.504 24.0365 174.67 23.98 173.835 23.8527C173.566 23.8103 173.453 24.2204 173.722 24.2628C174.585 24.3901 175.461 24.4608 176.338 24.4466C176.621 24.4466 176.621 24.0224 176.338 24.0224Z" fill="#161616"/>
<path d="M176.917 17.291C176.181 16.8809 175.276 17.1213 174.795 17.8001C174.64 18.0264 175.008 18.2385 175.163 18.0122C175.517 17.5172 176.181 17.3758 176.705 17.6587C176.945 17.7859 177.157 17.4183 176.917 17.291Z" fill="#161616"/>
<path d="M176.535 19.923C176.62 19.5978 176.592 19.2584 176.436 18.9472C176.323 18.721 176.069 18.4805 175.786 18.5795C175.489 18.6927 175.517 19.0886 175.559 19.3432C175.616 19.6543 175.786 19.923 176.012 20.1351C176.139 20.2483 176.38 20.1776 176.38 19.9796C176.38 19.626 176.295 19.2866 176.139 18.9614C176.026 18.721 175.658 18.9331 175.772 19.1735C175.899 19.4281 175.955 19.6967 175.955 19.9796C176.083 19.923 176.196 19.8806 176.323 19.824C176.097 19.626 175.955 19.3432 175.97 19.0321C175.984 19.0038 175.97 18.9755 175.941 18.9755C175.97 18.9897 175.998 19.0179 176.012 19.0462C176.069 19.1169 176.097 19.1876 176.125 19.2725C176.182 19.4422 176.182 19.6119 176.139 19.7957C176.054 20.0786 176.464 20.1917 176.535 19.923Z" fill="#161616"/>
<path d="M172.647 17.8708C171.799 17.6021 170.894 17.9415 170.399 18.6769C170.243 18.9031 170.611 19.1153 170.767 18.889C171.163 18.3092 171.87 18.0688 172.534 18.2809C172.789 18.3516 172.902 17.9556 172.647 17.8708Z" fill="#161616"/>
<path d="M172.873 20.3047C172.901 19.9088 172.745 19.3007 172.335 19.131C171.798 18.9188 171.798 19.6684 171.869 19.9936C171.939 20.3189 172.194 20.8987 172.632 20.6583C172.802 20.5593 172.83 20.3755 172.774 20.1916C172.675 19.9229 172.519 19.6542 172.378 19.3997C172.265 19.4845 172.151 19.5694 172.038 19.6542C172.109 19.7108 172.137 19.7674 172.166 19.8522C172.236 20.1209 172.646 20.0078 172.576 19.7391C172.533 19.5835 172.463 19.4562 172.335 19.3431C172.151 19.1734 171.897 19.3855 171.996 19.5977C172.052 19.6966 172.095 19.8098 172.151 19.9088C172.194 19.9936 172.236 20.1633 172.307 20.2199C172.321 20.3189 172.364 20.3189 172.392 20.234C172.364 20.2058 172.349 20.1633 172.335 20.1209C172.293 20.0361 172.265 19.9371 172.25 19.8381C172.222 19.7391 172.236 19.6401 172.222 19.5552C172.222 19.4845 172.222 19.4845 172.222 19.5411C172.265 19.5835 172.293 19.6259 172.321 19.6684C172.434 19.8522 172.463 20.0502 172.448 20.2623C172.42 20.5876 172.844 20.5876 172.873 20.3047Z" fill="#161616"/>
<path d="M173.75 15.312C173.622 14.5342 173.325 13.2755 172.491 11.9603C172.194 11.4937 171.572 10.5179 170.554 9.8532C168.63 8.59457 165.675 8.69356 163.525 10.235C161.418 11.7482 160.372 14.4493 160.838 17.1504C165.137 16.5423 169.451 15.9342 173.75 15.312Z" fill="#4C4C4C"/>
<path d="M180.793 13.9254C174.16 14.7598 167.542 15.5941 160.909 16.4285C160.103 16.5275 160.103 17.8003 160.909 17.7013C167.542 16.8669 174.16 16.0325 180.793 15.1982C181.599 15.0992 181.613 13.8264 180.793 13.9254Z" fill="#161616"/>
<path d="M165.137 16.9816C166.311 17.4058 166.99 18.2119 167.768 19.1736C169.437 21.1959 168.942 21.9454 170.115 23.204C171.982 25.2122 173.877 24.0242 175.532 25.99C176.946 27.6587 176.762 29.9073 176.705 30.4305C176.649 30.9255 176.394 32.9336 174.754 34.3195C173.326 35.5075 171.402 35.7903 171.289 35.5216C171.247 35.4226 171.402 35.1822 172.463 34.4751C172.152 34.6872 171.671 34.9559 171.049 35.0691C170.327 35.1963 169.634 35.0691 169.634 34.9701C169.634 34.8852 170.016 34.8852 170.313 34.5741C170.497 34.3902 170.568 34.164 170.61 33.9801C170.03 34.362 169.309 34.6872 168.602 34.4751C166.707 33.8953 166.368 29.6951 166.255 28.2951C165.887 23.7838 167.188 21.309 165.618 19.7251C165.491 19.5978 164.855 18.9473 164.147 19.0746C163.256 19.2443 162.592 20.616 162.875 21.5211C163.129 22.2989 164.006 22.5252 163.949 22.6666C163.865 22.8505 162.366 22.5676 161.121 21.5635C160.669 21.1959 160.287 20.8989 160.103 20.3615C159.763 19.4281 160.159 18.3533 160.683 17.717C161.786 16.4159 163.865 16.5149 165.137 16.9816Z" fill="#161616" stroke="#161616"/>
<path opacity="0.22" d="M163.384 22.808C163.667 22.8363 164.062 22.8504 164.091 22.7514C164.105 22.709 164.006 22.6383 164.006 22.6383C164.006 22.6242 164.345 23.0626 164.755 23.1191C164.953 23.1474 165.137 23.0767 165.236 23.0201C164.487 24.5192 163.695 26.4283 163.087 28.7052C162.507 30.8406 162.238 32.7639 162.111 34.3619C161.446 34.2064 160.485 33.9094 159.438 33.2589C158.377 32.6083 157.67 31.8588 157.246 31.3214C158.236 29.8648 158.802 28.592 159.141 27.7152C159.382 27.0789 159.466 26.6687 160.032 24.8161C160.442 23.4585 160.767 22.3413 160.994 21.5918C161.107 21.6908 161.291 21.8464 161.531 22.0161C161.842 22.2565 162.507 22.709 163.384 22.808Z" fill="#6D6C6C"/>
<path d="M168.136 9.08943C166.411 9.42883 165.124 10.8006 164.926 12.4411C164.7 14.3785 166.114 15.7078 166.256 15.821C164.417 16.0472 162.593 16.2735 160.754 16.4998C160.726 16.0755 160.712 15.4957 160.825 14.8169C161.179 12.6532 162.451 11.3097 162.706 11.0269C163.13 10.5885 164.643 9.16014 166.878 9.03286C167.401 8.99043 167.839 9.03286 168.136 9.08943Z" fill="#383838"/>
<path d="M171.005 36.4263C172.136 36.2566 173.296 38.2224 173.833 39.1274C176.945 44.4165 175.643 50.5258 175.247 52.3077C174.936 53.7077 174.357 56.1826 172.546 58.912C170.821 61.5423 168.785 63.1687 167.484 64.0596C165.306 64.894 161.346 66.0395 156.58 65.2617C154.926 64.993 153.483 64.5404 152.281 64.0596C150.245 64.1869 148.208 64.3 146.172 64.4273C145.846 64.3707 145.394 64.2859 144.857 64.0879C144.206 63.8475 143.584 63.6071 143.584 63.3808C143.584 63.1262 144.291 62.7303 147.741 62.1929C147.572 62.2212 145.309 62.6596 143.796 61.0757C142.382 59.6049 142.297 57.0877 143.372 56.0977C144.277 55.2633 145.747 55.631 148.434 56.3523C151.093 57.0594 153.229 58.021 154.784 58.8412C155.378 59.1099 160.003 61.1039 164.231 58.6715C167.455 56.819 168.53 53.4956 168.785 52.5764C169.803 48.9278 167.95 47.6409 168.615 42.3659C168.7 41.4609 169.308 36.6668 171.005 36.4263Z" fill="white" stroke="#161616"/>
<path d="M142.834 59.2509C144.475 59.3782 146.045 59.7741 147.544 60.453C147.784 60.5661 148.01 60.1984 147.756 60.0853C146.186 59.364 144.546 58.9398 142.834 58.8125C142.566 58.8125 142.566 59.2368 142.834 59.2509Z" fill="#161616"/>
<path d="M142.736 57.5259C144.617 57.4693 146.215 58.6148 147.969 59.1522C148.223 59.2371 148.336 58.8269 148.082 58.7421C146.3 58.1906 144.674 57.0451 142.736 57.1016C142.467 57.1158 142.453 57.54 142.736 57.5259Z" fill="#161616"/>
<path d="M144.546 56.0272C146.088 56.1544 147.445 56.8898 148.775 57.6393C149.015 57.7666 149.227 57.4131 148.987 57.2717C147.587 56.4939 146.172 55.7443 144.546 55.6029C144.263 55.5746 144.263 55.9989 144.546 56.0272Z" fill="#161616"/>
<path opacity="0.18" d="M169.28 39.0281C168.446 42.3798 170.666 44.6425 171.415 48.4749C171.543 49.1537 172.547 54.6549 169.605 58.5581C166.324 62.9138 159.819 63.0694 158.546 63.1118C155.223 63.1966 153.964 62.2208 148.76 62.4895C148.265 62.5178 143.74 62.7724 143.697 63.4088C143.683 63.7482 144.942 64.13 145.889 64.2573C147.134 64.427 147.784 64.1441 149.368 64.0169C150.047 63.9603 151.023 63.9179 152.225 64.0169C153.667 64.6108 155.534 65.1906 157.769 65.4169C158.377 65.4735 160.272 65.6432 162.704 65.2896C162.704 65.2896 164.741 65.0068 166.353 64.4411C170.355 63.0552 174.315 57.2146 175.432 50.8508C176.69 43.6808 173.89 38.2786 172.321 37.0765C172.108 36.9068 171.5 36.4402 170.864 36.5957C169.832 36.822 169.407 38.5049 169.28 39.0281Z" fill="#6D6C6C"/>
<path opacity="0.17" d="M175.248 43.2852C175.022 43.2852 175.022 45.9863 174.399 49.3803C174.018 51.445 173.24 55.6452 171.359 58.5725C168.007 63.7909 161.163 64.9647 158.561 65.2758C160.795 65.5869 164.231 65.6576 167.583 63.8758C174.852 60.0009 175.559 50.6531 175.686 48.9561C175.884 46.0994 175.474 43.2852 175.248 43.2852Z" fill="#6D6C6C"/>
<path d="M53.1348 96.7975C58.9895 91.5933 64.8725 86.4174 70.7839 81.2839C81.9277 71.5967 93.1705 62.0368 104.526 52.59C103.635 49.9454 102.49 45.3634 103.169 39.7915C103.381 38.0238 105.191 24.9991 117.127 18.2676C118.117 17.7019 131.82 10.2915 144.661 18.4656C153.132 23.8536 157.516 33.6822 156.484 43.2846C154.956 57.5538 142.285 63.8752 141.55 64.2287C132.414 68.5844 121.426 67.2975 113.238 60.9337C100.934 71.0593 88.6592 81.199 76.3982 91.367C71.0243 95.8217 65.6645 100.276 60.3047 104.745C59.1875 104.208 57.3349 103.133 55.6662 101.167C54.2661 99.5269 53.5307 97.8865 53.1348 96.7975Z" fill="#161616"/>
<ellipse cx="130.109" cy="40.9078" rx="22.429" ry="21.4957" fill="white" stroke="#161616"/>
<path d="M131.934 20.6003C127.833 29.2835 123.519 37.8817 119.008 46.3669C117.735 48.7568 116.449 51.1468 115.147 53.5227C115.02 53.7631 115.388 53.9752 115.515 53.7348C120.14 45.3062 124.566 36.7787 128.78 28.138C129.968 25.7056 131.142 23.259 132.316 20.7983C132.429 20.572 132.061 20.3599 131.934 20.6003Z" fill="#E8E8E8"/>
<path d="M138.849 22.7081C134.352 29.8073 130.081 37.0338 126.022 44.3876C125.895 44.628 126.263 44.8401 126.39 44.5997C130.449 37.2459 134.72 30.0194 139.217 22.9202C139.358 22.6939 138.991 22.4818 138.849 22.7081Z" fill="#E8E8E8"/>
<path d="M125.272 46.8757C123.405 50.5102 121.411 54.0881 119.276 57.5811C119.135 57.8215 119.502 58.0336 119.644 57.7932C121.765 54.3002 123.773 50.7223 125.64 47.0878C125.767 46.8474 125.399 46.6211 125.272 46.8757Z" fill="#E8E8E8"/>
<path d="M133.12 36.2698C130.744 40.7387 128.383 45.2075 126.007 49.6763C125.88 49.9167 126.247 50.1289 126.375 49.8885C128.75 45.4196 131.112 40.9508 133.488 36.4819C133.615 36.2415 133.248 36.0294 133.12 36.2698Z" fill="#E8E8E8"/>
<path opacity="0.08" d="M129.445 19.3418C127.875 19.9075 117.538 23.7824 114.228 34.1625C113.847 35.3646 112.659 39.2394 113.55 43.7224C115.261 52.2641 123.802 59.1795 134.974 61.4988C134.126 61.7816 132.938 62.121 131.467 62.3049C122.586 63.4221 115.699 57.3694 114.893 56.6481C113.139 55.0501 107.723 49.6196 107.624 41.0213C107.61 40.2718 107.652 31.7867 114.087 25.6632C117.835 22.0995 122.219 20.7984 124.057 20.2752C126.207 19.6671 128.087 19.4408 129.445 19.3418Z" fill="#6D6C6C"/>
<path d="M46.6847 62.9708C47.7029 62.8435 49.2302 62.8294 50.3475 63.7345C52.7516 65.6861 50.899 69.9286 52.0869 74.4116C52.7233 76.8157 54.4062 80.0542 59.2993 83.2644C61.2367 84.2402 62.8489 84.9756 63.9661 85.4847C65.5641 86.2059 66.5824 86.6161 66.5682 87.1676C66.5541 87.7191 65.55 88.1292 64.8288 88.3697C65.6914 89.1757 66.1298 90.194 65.8328 90.9718C65.6066 91.5799 64.9843 91.8768 64.2914 92.2163C63.4994 92.6122 62.8348 92.6971 62.0711 92.7961C60.6428 92.9799 59.9357 93.0648 59.2851 92.7961C58.2811 92.3718 57.8285 91.4384 57.1639 90.095C56.7962 89.3596 56.3436 88.2141 56.1032 86.7292C54.5052 85.9938 52.2142 84.721 49.9373 82.5856C49.0464 81.7512 40.7875 73.8318 43.3896 66.9871C43.7856 66.0255 44.62 64.4699 46.6847 62.9708Z" fill="white" stroke="#161616"/>
<path d="M59.328 91.0425C59.6815 91.8203 60.2189 92.4708 60.9119 92.9941C61.124 93.1638 61.3362 92.7961 61.124 92.6264C60.5018 92.1597 60.021 91.5375 59.6957 90.8304C59.5826 90.59 59.2149 90.8021 59.328 91.0425Z" fill="#161616"/>
<path d="M61.0264 90.8159C61.4507 91.6362 62.0871 92.315 62.8649 92.8241C63.0911 92.9655 63.3033 92.5978 63.077 92.4564C62.3558 92.0039 61.776 91.3675 61.38 90.6038C61.2668 90.3634 60.8992 90.5755 61.0264 90.8159Z" fill="#161616"/>
<path d="M62.8072 89.8544C63.2031 90.6888 63.8819 91.3534 64.7163 91.7494C64.9567 91.8625 65.183 91.4948 64.9284 91.3817C64.1506 91.014 63.5425 90.4201 63.1749 89.6423C63.0476 89.3877 62.694 89.5998 62.8072 89.8544Z" fill="#161616"/>
<path opacity="0.2" d="M47.0389 63C46.7277 64.4 46.3883 66.6062 46.6853 69.2649C47.4631 75.9964 51.8188 80.437 52.5401 81.1582C56.1321 84.722 58.4797 84.2411 59.908 87.4231C60.2898 88.2716 60.9686 90.1949 62.8071 91.1989C63.5283 91.5808 64.2071 91.7222 64.6597 91.7788C64.4193 91.9767 64.0233 92.2454 63.5 92.4717C62.6232 92.8535 61.8596 92.8677 60.6575 92.8818C59.7666 92.896 59.314 92.896 58.9181 92.7121C58.0837 92.3303 57.6877 91.5383 57.5322 91.1424C56.9665 89.6151 56.4149 88.0877 55.8493 86.5604C53.0916 85.1462 49.1884 82.629 46.1055 78.3157C44.8186 76.5197 42.669 73.4367 42.8529 69.7315C42.9377 68.0487 43.4751 66.8749 43.6024 66.592C44.6065 64.5132 46.2752 63.4384 47.0389 63Z" fill="#6D6C6C"/>
<path opacity="0.32" d="M43.0371 70.5941C43.1219 70.5658 43.6593 72.2628 44.7199 74.2427C47.3079 79.1358 51.0414 82.1339 53.7142 84.2269C54.9304 85.1744 55.9628 85.8815 56.6133 86.3199C57.4052 87.6492 57.8578 88.7947 58.1265 89.6291C58.3527 90.322 58.48 90.9443 59.0033 91.5948C59.5407 92.3019 60.2336 92.6979 60.7427 92.9242C60.3609 92.9383 59.7811 92.91 59.173 92.6272C58.0133 92.0898 57.5042 90.9726 56.9668 89.7847C56.6557 89.1058 56.288 88.0876 56.09 86.7724C48.708 83.039 45.9361 78.3297 44.8896 76.0953C43.8149 73.8043 42.9239 70.6507 43.0371 70.5941Z" fill="#6D6C6C"/>
<path d="M54.7472 50.0597C53.7431 50.4556 54.3371 52.4355 52.7249 54.2315C51.933 55.1225 50.9713 55.5467 50.3066 55.7871C50.7309 56.4235 51.5653 57.4559 52.937 58.2761C53.9128 58.8701 54.8462 59.1529 55.4967 59.2802C55.7088 58.8983 56.0624 58.3044 56.5008 57.5973C58.0705 55.1225 58.6362 54.8538 58.7211 54.0335C58.9332 52.0254 56.0341 49.5505 54.7472 50.0597Z" fill="white" stroke="#161616"/>
<path d="M54.5635 53.8784C55.1433 55.0381 55.7514 56.1836 56.7131 57.0745C56.9111 57.2583 57.208 56.9614 57.01 56.7775C56.0767 55.9149 55.4969 54.7835 54.9312 53.6663C54.8039 53.4259 54.4362 53.638 54.5635 53.8784Z" fill="#161616"/>
<path d="M54.1376 53.114C54.7882 54.3868 55.4953 55.6454 56.7397 56.4232C56.9519 56.5505 57.164 56.2677 56.9943 56.0838C56.5842 55.6454 56.1599 55.207 55.764 54.7686C55.665 54.8676 55.566 54.9666 55.467 55.0656C55.7074 55.3202 55.9619 55.5606 56.2448 55.7585C56.3438 55.8293 56.6549 55.9707 56.7115 56.0555C56.7963 56.1969 56.7115 56.4232 56.669 56.5646C56.8105 56.6071 56.9377 56.6353 57.0791 56.6778C57.0933 56.6071 57.0933 56.5364 57.1074 56.4798C57.1357 56.2959 56.9094 56.098 56.7539 56.2677C56.7539 56.1121 56.7115 55.9565 56.6125 55.8293C56.4852 55.9 56.3721 55.9707 56.2448 56.0414C56.4003 56.2535 56.5559 56.4656 56.7115 56.6778C56.8246 56.5929 56.9377 56.5081 57.0509 56.4232C56.9236 56.2818 56.8246 56.1404 56.7256 55.9848C56.5983 55.801 56.2448 55.9141 56.3438 56.1545C56.4286 56.3384 56.4569 56.4091 56.5842 56.5646C56.7539 56.7768 57.0509 56.4798 56.8812 56.2677C56.8387 56.1969 56.7963 56.1262 56.7539 56.0414C56.6266 56.098 56.4993 56.1545 56.3721 56.2111C56.4993 56.3949 56.6266 56.5646 56.768 56.7343C56.9236 56.9182 57.2489 56.6778 57.1074 56.4798C56.9519 56.2677 56.7963 56.0555 56.6407 55.8434C56.4852 55.6171 56.1599 55.8151 56.2731 56.0555C56.4145 56.3384 56.6973 57.003 57.0791 56.5788C56.966 56.5081 56.8387 56.4374 56.7256 56.3667C56.7115 56.4374 56.7115 56.5081 56.6973 56.5646C56.6549 56.8333 57.0367 56.9465 57.1074 56.6778C57.2064 56.3384 57.4468 56.1828 57.164 55.8434C57.0367 55.6878 56.8246 55.6171 56.669 55.5181C56.3438 55.306 56.0609 55.0515 55.7922 54.7686C55.6084 54.5706 55.3114 54.8676 55.4953 55.0656C55.9054 55.504 56.3155 55.9424 56.7256 56.3808C56.8105 56.2677 56.8953 56.1545 56.9802 56.0414C55.8064 55.306 55.1558 54.0898 54.5336 52.8877C54.378 52.6473 54.0104 52.8736 54.1376 53.114Z" fill="#161616"/>
<path d="M67.7567 46.3127C67.4739 47.5713 66.8941 49.438 65.5647 51.3613C63.2313 54.7412 60.0635 56.1696 58.7059 56.6928C57.9281 56.3958 56.9099 55.8726 55.9482 54.9816C53.3178 52.5351 53.1199 49.1835 53.0916 48.3208C52.8087 48.2501 52.3986 48.0945 52.0451 47.7551C51.14 46.8783 50.9279 45.1389 51.7622 44.4176C52.7097 43.5974 54.5199 44.6015 54.7179 44.7005C55.1563 44.9409 55.4674 45.2379 55.6654 45.4641C56.4432 43.1166 58.3099 41.3488 60.5302 40.9812C63.5566 40.4862 66.8658 42.6923 67.7567 46.3127Z" fill="white" stroke="#161616"/>
<path d="M64.3349 49.6911C63.7692 50.9639 62.9349 52.0528 61.8601 52.9437C61.648 53.1134 61.9449 53.4104 62.1571 53.2407C63.2743 52.3356 64.1228 51.2184 64.7026 49.9032C64.8157 49.6487 64.4481 49.4365 64.3349 49.6911Z" fill="#161616"/>
<path d="M61.3232 51.9964C61.2667 52.4773 61.4364 52.944 61.7616 53.2975C61.9455 53.4955 62.2425 53.1985 62.0586 53.0005C61.8041 52.7177 61.7051 52.3783 61.7475 51.9964C61.7758 51.7277 61.3515 51.7277 61.3232 51.9964Z" fill="#161616"/>
<path d="M60.4598 49.579C60.8275 49.0699 61.2659 48.6174 61.7609 48.2073C61.6477 48.1366 61.5205 48.0658 61.4073 47.9951C61.2235 48.5608 60.8275 49.0134 60.3043 49.2962C60.3891 49.4093 60.474 49.5225 60.5588 49.6356C60.8841 49.2396 61.2093 48.8578 61.5346 48.4618C61.7043 48.2497 61.4073 47.9527 61.2376 48.1648C60.9124 48.5608 60.5871 48.9426 60.2618 49.3386C60.1063 49.5225 60.3043 49.7912 60.5164 49.678C61.1386 49.3386 61.5912 48.7871 61.8174 48.1224C61.8882 47.8961 61.6195 47.7972 61.4639 47.9103C60.9406 48.3345 60.4881 48.8154 60.1063 49.3669C59.9366 49.5932 60.3043 49.8053 60.4598 49.579Z" fill="#161616"/>
<path d="M65.1542 50.8223C65.338 50.5112 65.5784 50.2425 65.8471 50.0021C65.734 49.9313 65.6067 49.8606 65.4936 49.7899C65.3663 50.2142 65.1118 50.596 64.7441 50.8647C64.8431 50.9496 64.9562 51.0203 65.0552 51.1051C65.14 50.8789 65.2673 50.6667 65.4229 50.4829C65.5926 50.2708 65.2956 49.9738 65.1259 50.1859C64.9279 50.4405 64.7724 50.695 64.6592 50.992C64.5885 51.1617 64.8289 51.3455 64.9703 51.2324C65.4229 50.893 65.7481 50.4546 65.9037 49.9172C65.9744 49.7051 65.7057 49.5778 65.5502 49.7051C65.2532 49.9596 64.9986 50.2708 64.7865 50.6102C64.6309 50.8364 64.9986 51.0486 65.1542 50.8223Z" fill="#161616"/>
<path d="M59.0029 48.5322C59.215 49.0272 59.3281 49.5363 59.3281 50.0595C59.3281 50.201 59.5403 50.201 59.5403 50.0595C59.5403 49.4939 59.413 48.9423 59.1867 48.4191C59.1301 48.2918 58.9463 48.4049 59.0029 48.5322Z" fill="#161616"/>
<path d="M58.4085 48.1639C58.5499 48.3902 58.6489 48.6164 58.7337 48.8569C58.7762 48.9841 58.9742 48.9276 58.9317 48.8003C58.8469 48.5316 58.7337 48.2912 58.5923 48.0508C58.5216 47.9376 58.3378 48.0508 58.4085 48.1639Z" fill="#161616"/>
<path d="M61.6761 47.0045C62.1993 46.8489 62.6943 47.2025 62.7084 47.754C62.7084 47.952 63.0337 47.9661 63.0337 47.754C63.0054 47.0045 62.3266 46.4954 61.5912 46.6933C61.3932 46.7499 61.4781 47.061 61.6761 47.0045Z" fill="#161616"/>
<path d="M65.4652 49.0839C65.6915 48.9425 65.9602 48.9283 66.2006 49.0698C66.3703 49.1829 66.54 48.9001 66.3562 48.8011C66.0309 48.6031 65.6208 48.6031 65.3097 48.8152C65.14 48.9283 65.2955 49.197 65.4652 49.0839Z" fill="#161616"/>
<path d="M58.565 52.7183C58.9044 53.3264 59.4842 53.7648 60.163 53.9486C60.4317 54.0193 60.5449 53.6092 60.2762 53.5385C59.6964 53.3829 59.2297 53.0294 58.9327 52.5061C58.7913 52.2657 58.4236 52.4779 58.565 52.7183Z" fill="#161616"/>
<path d="M55.6523 46.0289C55.9635 45.4915 56.713 44.346 58.1555 43.5541C59.1454 43.0026 60.0788 42.847 60.6444 42.7904C60.9556 43.2006 61.4647 43.7379 62.2142 44.0773C63.9819 44.8834 65.4103 43.8228 66.4568 44.5299C67.0083 44.8976 67.5598 45.7885 67.3477 48.2209C68.2811 49.1826 68.9033 49.2391 69.2427 49.1684C70.6569 48.8856 71.6751 45.7037 70.7842 43.3844C70.5155 42.6914 70.1619 42.2955 67.1638 39.9055C62.9354 36.5397 62.4122 36.3417 61.8606 36.2145C58.9474 35.5356 56.3736 37.0064 55.9352 37.261C55.3695 37.5862 55.2422 37.7418 52.0037 41.15C49.4865 43.7945 49.2461 44.0349 49.0198 44.6854C48.4258 46.3259 48.539 48.7017 50.0522 50.4412C51.4805 52.0675 53.4038 52.3079 53.8987 52.3645C53.6866 51.8837 53.4603 51.2049 53.3472 50.3705C53.2058 49.2957 53.3472 48.4048 53.4745 47.825C53.3755 47.7542 52.8098 47.2876 52.7674 46.4956C52.7391 45.9158 53.0078 45.1804 53.6301 44.94C54.323 44.6713 55.2705 45.0814 55.6523 46.0289Z" fill="#232323"/>
<path d="M55.0434 38.9151C54.4636 37.7696 52.7665 37.5999 52.4696 37.5717C50.1079 37.3312 48.2128 39.4384 47.0956 40.6687C45.1158 42.8607 45.6814 43.5113 43.7581 46.1558C41.2126 49.663 39.3035 49.8185 38.9075 52.2368C38.8792 52.4206 38.5256 54.8531 40.1378 56.3238C41.5237 57.5966 43.7581 57.6107 45.2289 56.8471C47.2229 55.8147 47.0532 53.7358 48.4957 50.2428C51.3241 43.4264 56.1606 41.1213 55.0434 38.9151Z" fill="#232323"/>
<path opacity="0.12" d="M57.3203 44.0625C56.8678 45.1939 56.3304 46.9899 56.3587 49.2384C56.4011 52.8305 57.8719 55.4609 58.6072 56.5922C57.8011 56.2528 56.4577 55.5316 55.2839 54.1174C54.8031 53.5376 53.6717 52.1658 53.3747 50.0587C53.2333 49.1112 53.3182 48.3192 53.403 47.7818C53.3182 47.7111 52.7383 47.1879 52.7666 46.3676C52.7808 45.8302 53.0636 45.109 53.6717 44.8969C54.3505 44.6565 55.2839 45.0949 55.6516 46.0424C55.793 45.7595 55.991 45.406 56.288 45.0383C56.6556 44.5999 57.0233 44.2888 57.3203 44.0625Z" fill="#6D6C6C"/>
<path opacity="0.13" d="M54.8317 54.4158C54.7186 54.6704 54.5913 54.9249 54.4358 55.1795C53.7287 56.3674 52.8094 57.1593 52.0882 57.6402C51.8336 57.4846 51.4942 57.2442 51.1548 56.8765C50.7871 56.4805 50.5609 56.0846 50.4336 55.8017C50.9851 55.632 52.3569 55.1088 53.2903 53.737C53.6155 53.242 53.8135 52.7612 53.9266 52.3652C54.2236 53.0582 54.5206 53.737 54.8317 54.4158Z" fill="#6D6C6C"/>
<path opacity="0.18" d="M53.5873 47.543C53.658 48.5188 53.8419 49.7915 54.3227 51.2199C54.9873 53.1573 55.949 54.5856 56.6844 55.4907C55.949 54.8968 55.0722 54.0058 54.3651 52.7613C53.8984 51.927 53.2055 50.7249 53.2903 49.0844C53.3186 48.4481 53.46 47.9107 53.5873 47.543Z" fill="#6D6C6C"/>
<path opacity="0.32" d="M55.7507 37.6152C55.1568 38.1951 51.4516 41.9285 51.9607 47.2317C52.1728 49.4944 53.0779 51.2056 53.7285 52.2097C53.2759 52.1814 52.3991 52.0824 51.4516 51.5309C50.5041 50.9793 49.9667 50.2581 49.7263 49.8904C49.5425 49.5934 49.3162 49.1126 49.1748 48.5045C49.1748 48.5045 48.9202 47.3166 49.3869 45.8458C49.8819 44.2336 52.1163 41.0941 55.7507 37.6152Z" fill="#111111"/>
<path opacity="0.33" d="M48.0998 39.9057C48.4251 40.1178 46.6291 43.8937 44.6492 47.1888C42.8673 50.1444 41.9905 50.9646 41.8632 52.7748C41.736 54.6557 42.5279 56.2678 43.235 57.3568C42.8815 57.3851 41.5521 57.4275 40.3925 56.5083C39.7561 55.9992 39.4167 55.4052 39.2611 55.0375C38.9217 54.0476 38.6247 52.6051 39.2187 51.2475C39.6147 50.3283 40.0814 50.2575 41.538 48.7868C42.8249 47.4857 44.0977 46.1988 45.031 44.2897C45.5119 43.3139 45.6816 42.6068 46.5018 41.5037C47.0392 40.7683 47.916 39.7784 48.0998 39.9057Z" fill="#111111"/>
</svg>
