<svg width="72" height="14" viewBox="0 0 72 14" fill="none" xmlns="http://www.w3.org/2000/svg">
<path d="M5.9391 1.76306C6.15663 1.3223 6.78514 1.3223 7.00267 1.76306L8.1629 4.11394C8.24928 4.28897 8.41625 4.41029 8.60941 4.43835L11.2038 4.81533C11.6902 4.88601 11.8844 5.48376 11.5324 5.82685L9.65513 7.65676C9.51536 7.793 9.45159 7.98929 9.48458 8.18166L9.92775 10.7655C10.0108 11.25 9.50236 11.6194 9.0673 11.3907L6.74684 10.1707C6.57408 10.0799 6.36769 10.0799 6.19493 10.1707L3.87447 11.3907C3.43941 11.6194 2.93093 11.25 3.01402 10.7655L3.45719 8.18166C3.49018 7.98929 3.4264 7.793 3.28664 7.65676L1.40935 5.82685C1.05738 5.48376 1.2516 4.88601 1.73801 4.81533L4.33236 4.43835C4.52551 4.41029 4.69249 4.28897 4.77887 4.11394L5.9391 1.76306Z" fill="#FFA800"/>
<path d="M20.7648 1.76306C20.9823 1.3223 21.6108 1.3223 21.8284 1.76306L22.9886 4.11394C23.075 4.28897 23.2419 4.41029 23.4351 4.43835L26.0294 4.81533C26.5159 4.88601 26.7101 5.48376 26.3581 5.82685L24.4808 7.65676C24.341 7.793 24.2773 7.98929 24.3103 8.18166L24.7534 10.7655C24.8365 11.25 24.328 11.6194 23.893 11.3907L21.5725 10.1707C21.3998 10.0799 21.1934 10.0799 21.0206 10.1707L18.7002 11.3907C18.2651 11.6194 17.7566 11.25 17.8397 10.7655L18.2829 8.18166C18.3159 7.98929 18.2521 7.793 18.1123 7.65676L16.235 5.82685C15.8831 5.48376 16.0773 4.88601 16.5637 4.81533L19.158 4.43835C19.3512 4.41029 19.5182 4.28897 19.6046 4.11394L20.7648 1.76306Z" fill="#FFA800"/>
<path d="M35.5905 1.76306C35.808 1.3223 36.4365 1.3223 36.654 1.76306L37.8143 4.11394C37.9006 4.28897 38.0676 4.41029 38.2608 4.43835L40.8551 4.81533C41.3415 4.88601 41.5358 5.48376 41.1838 5.82685L39.3065 7.65676C39.1667 7.793 39.103 7.98929 39.1359 8.18166L39.5791 10.7655C39.6622 11.25 39.1537 11.6194 38.7187 11.3907L36.3982 10.1707C36.2254 10.0799 36.0191 10.0799 35.8463 10.1707L33.5258 11.3907C33.0908 11.6194 32.5823 11.25 32.6654 10.7655L33.1086 8.18166C33.1416 7.98929 33.0778 7.793 32.938 7.65676L31.0607 5.82685C30.7087 5.48376 30.903 4.88601 31.3894 4.81533L33.9837 4.43835C34.1769 4.41029 34.3439 4.28897 34.4302 4.11394L35.5905 1.76306Z" fill="#FFA800"/>
<path d="M50.4157 1.76306C50.6332 1.3223 51.2617 1.3223 51.4792 1.76306L52.6395 4.11394C52.7258 4.28897 52.8928 4.41029 53.086 4.43835L55.6803 4.81533C56.1667 4.88601 56.361 5.48376 56.009 5.82685L54.1317 7.65676C53.9919 7.793 53.9281 7.98929 53.9611 8.18166L54.4043 10.7655C54.4874 11.25 53.9789 11.6194 53.5439 11.3907L51.2234 10.1707C51.0506 10.0799 50.8443 10.0799 50.6715 10.1707L48.351 11.3907C47.916 11.6194 47.4075 11.25 47.4906 10.7655L47.9338 8.18166C47.9667 7.98929 47.903 7.793 47.7632 7.65676L45.8859 5.82685C45.5339 5.48376 45.7282 4.88601 46.2146 4.81533L48.8089 4.43835C49.0021 4.41029 49.1691 4.28897 49.2554 4.11394L50.4157 1.76306Z" fill="#FFA800"/>
<path d="M65.2413 1.76306C65.4589 1.3223 66.0874 1.3223 66.3049 1.76306L67.4651 4.11394C67.5515 4.28897 67.7185 4.41029 67.9117 4.43835L70.506 4.81533C70.9924 4.88601 71.1866 5.48376 70.8347 5.82685L68.9574 7.65676C68.8176 7.793 68.7538 7.98929 68.7868 8.18166L69.23 10.7655C69.3131 11.25 68.8046 11.6194 68.3695 11.3907L66.0491 10.1707C65.8763 10.0799 65.6699 10.0799 65.4972 10.1707L63.1767 11.3907C62.7417 11.6194 62.2332 11.25 62.3163 10.7655L62.7594 8.18166C62.7924 7.98929 62.7287 7.793 62.5889 7.65676L60.7116 5.82685C60.3596 5.48376 60.5538 4.88601 61.0403 4.81533L63.6346 4.43835C63.8278 4.41029 63.9947 4.28897 64.0811 4.11394L65.2413 1.76306Z" fill="#FFA800"/>
</svg>
