<svg width="15" height="15" viewBox="0 0 15 15" fill="none" xmlns="http://www.w3.org/2000/svg">
<g id="mingcute:bling-fill" clip-path="url(#clip0_169_1061)">
<g id="Group">
<path id="Vector" d="M6.29812 1.63372C6.50937 1.15872 7.16 1.13559 7.415 1.56247L7.45187 1.63372L8.10312 3.09934C8.67179 4.37867 9.61749 5.45389 10.8137 6.18122L11.015 6.29935L12.1712 6.94935C12.2632 7.0008 12.3407 7.07445 12.3969 7.16357C12.4531 7.25269 12.4861 7.35445 12.4928 7.45957C12.4996 7.5647 12.48 7.66985 12.4357 7.76544C12.3914 7.86103 12.3239 7.94402 12.2394 8.00684L12.1719 8.05059L11.015 8.70059C9.79461 9.38707 8.81293 10.4298 8.20125 11.6893L8.10312 11.9006L7.45187 13.3662C7.24062 13.8412 6.59 13.8643 6.335 13.4375L6.29812 13.3662L5.64687 11.9006C5.0782 10.6213 4.13251 9.54605 2.93625 8.81872L2.735 8.70059L1.57875 8.05059C1.48683 7.99914 1.40925 7.92549 1.35308 7.83637C1.29691 7.74725 1.26394 7.64549 1.25717 7.54037C1.25039 7.43524 1.27004 7.33009 1.31431 7.2345C1.35858 7.13891 1.42607 7.05592 1.51062 6.99309L1.57812 6.94935L2.735 6.29935C3.95539 5.61287 4.93707 4.57013 5.54875 3.31059L5.64687 3.09934L6.29812 1.63372ZM12.0131 1.32559C12.3234 2.03035 12.8524 2.61638 13.5219 2.99684C13.6219 3.05309 13.6219 3.19684 13.5219 3.25309C12.8521 3.63361 12.3228 4.21989 12.0125 4.92497C12.0006 4.95151 11.9813 4.97405 11.9569 4.98987C11.9325 5.00568 11.9041 5.0141 11.875 5.0141C11.8459 5.0141 11.8175 5.00568 11.7931 4.98987C11.7687 4.97405 11.7494 4.95151 11.7375 4.92497C11.4271 4.22013 10.8978 3.63408 10.2281 3.25372C10.2055 3.24083 10.1867 3.22218 10.1737 3.19968C10.1606 3.17718 10.1537 3.15162 10.1537 3.12559C10.1537 3.09957 10.1606 3.07401 10.1737 3.05151C10.1867 3.02901 10.2055 3.01036 10.2281 2.99747C10.898 2.61679 11.4273 2.03028 11.7375 1.32497C11.7494 1.29843 11.7687 1.27589 11.7931 1.26007C11.8175 1.24426 11.8459 1.23584 11.875 1.23584C11.9041 1.23584 11.9325 1.24426 11.9569 1.26007C11.9813 1.27589 12.0006 1.29843 12.0125 1.32497L12.0131 1.32559Z" fill="#F6C447"/>
</g>
</g>
<defs>
<clipPath id="clip0_169_1061">
<rect width="15" height="15" fill="white"/>
</clipPath>
</defs>
</svg>
