<svg width="32" height="32" viewBox="0 0 32 32" fill="none" xmlns="http://www.w3.org/2000/svg">
<g clip-path="url(#clip0_806_30257)">
<rect width="32" height="32" rx="16" fill="#FFBA0E"/>
<path d="M12.9159 23.12C12.0039 23.12 11.2599 22.76 10.6839 22.04C10.1239 21.32 9.84391 20.376 9.84391 19.208C9.84391 17.928 10.1399 16.72 10.7319 15.584C11.3239 14.432 12.1079 13.512 13.0839 12.824C14.0759 12.12 15.1239 11.768 16.2279 11.768C16.5799 11.768 16.8119 11.84 16.9239 11.984C17.0519 12.112 17.1559 12.352 17.2359 12.704C17.5399 12.64 17.8759 12.608 18.2439 12.608C18.6279 12.608 18.9239 12.704 19.1319 12.896C19.3399 13.088 19.4439 13.36 19.4439 13.712C19.4439 14.08 19.3639 14.72 19.2039 15.632C19.0279 16.608 18.8919 17.544 18.7959 18.44C18.6999 19.32 18.6519 20.312 18.6519 21.416C18.6519 22.024 18.5239 22.464 18.2679 22.736C18.0279 22.992 17.6279 23.12 17.0679 23.12C16.5239 23.12 16.1159 22.992 15.8439 22.736C15.5879 22.464 15.4599 22.032 15.4599 21.44L15.4839 21.056C14.9879 22.432 14.1319 23.12 12.9159 23.12ZM13.8519 20.696C14.2999 20.696 14.7079 20.384 15.0759 19.76C15.4439 19.136 15.7719 18.024 16.0599 16.424L16.5159 14C15.8599 14.016 15.2519 14.272 14.6919 14.768C14.1319 15.248 13.6839 15.888 13.3479 16.688C13.0119 17.488 12.8439 18.336 12.8439 19.232C12.8439 19.712 12.9319 20.08 13.1079 20.336C13.2999 20.576 13.5479 20.696 13.8519 20.696Z" fill="white"/>
<g clip-path="url(#clip1_806_30257)">
<path d="M24.3591 7.87236C24.4718 7.61903 24.8188 7.60669 24.9548 7.83436L24.9745 7.87236L25.3218 8.65403C25.6251 9.33633 26.1295 9.90978 26.7675 10.2977L26.8748 10.3607L27.4915 10.7074C27.5405 10.7348 27.5819 10.7741 27.6118 10.8216C27.6418 10.8691 27.6594 10.9234 27.663 10.9795C27.6666 11.0355 27.6561 11.0916 27.6325 11.1426C27.6089 11.1936 27.5729 11.2379 27.5278 11.2714L27.4918 11.2947L26.8748 11.6414C26.2239 12.0075 25.7004 12.5636 25.3741 13.2354L25.3218 13.348L24.9745 14.1297C24.8618 14.383 24.5148 14.3954 24.3788 14.1677L24.3591 14.1297L24.0118 13.348C23.7085 12.6657 23.2041 12.0923 22.5661 11.7044L22.4588 11.6414L21.8421 11.2947C21.7931 11.2672 21.7517 11.228 21.7218 11.1804C21.6918 11.1329 21.6742 11.0786 21.6706 11.0226C21.667 10.9665 21.6775 10.9104 21.7011 10.8594C21.7247 10.8085 21.7607 10.7642 21.8058 10.7307L21.8418 10.7074L22.4588 10.3607C23.1097 9.99457 23.6332 9.43845 23.9595 8.76669L24.0118 8.65403L24.3591 7.87236ZM27.4071 7.70803C27.5726 8.08389 27.8548 8.39645 28.2118 8.59936C28.2651 8.62936 28.2651 8.70603 28.2118 8.73603C27.8546 8.93897 27.5723 9.25165 27.4068 9.62769C27.4005 9.64185 27.3902 9.65387 27.3772 9.6623C27.3641 9.67074 27.349 9.67523 27.3335 9.67523C27.318 9.67523 27.3028 9.67074 27.2898 9.6623C27.2768 9.65387 27.2665 9.64185 27.2601 9.62769C27.0946 9.25178 26.8123 8.93922 26.4551 8.73636C26.4431 8.72948 26.4331 8.71954 26.4261 8.70754C26.4191 8.69554 26.4154 8.6819 26.4154 8.66803C26.4154 8.65415 26.4191 8.64051 26.4261 8.62851C26.4331 8.61651 26.4431 8.60657 26.4551 8.59969C26.8124 8.39666 27.0947 8.08386 27.2601 7.70769C27.2665 7.69354 27.2768 7.68151 27.2898 7.67308C27.3028 7.66464 27.318 7.66016 27.3335 7.66016C27.349 7.66016 27.3641 7.66464 27.3772 7.67308C27.3902 7.68151 27.4005 7.69354 27.4068 7.70769L27.4071 7.70803Z" fill="white"/>
</g>
</g>
<defs>
<clipPath id="clip0_806_30257">
<rect width="32" height="32" fill="white"/>
</clipPath>
<clipPath id="clip1_806_30257">
<rect width="8" height="8" fill="white" transform="translate(21 7)"/>
</clipPath>
</defs>
</svg>
