<svg width="20" height="21" viewBox="0 0 20 21" fill="none" xmlns="http://www.w3.org/2000/svg">
<path d="M10.2031 8.68164V12.5544H15.6948C15.4536 13.7999 14.73 14.8544 13.6447 15.5635L16.9563 18.0817C18.8859 16.3363 19.999 13.7727 19.999 10.7272C19.999 10.0181 19.9341 9.33624 19.8135 8.68175L10.2031 8.68164Z" fill="#4285F4"/>
<path d="M4.4845 12.4043L3.73759 12.9646L1.09375 14.9828C2.77279 18.2464 6.21411 20.501 10.203 20.501C12.958 20.501 15.2678 19.6101 16.9562 18.0828L13.6445 15.5646C12.7354 16.1646 11.5758 16.5283 10.203 16.5283C7.54991 16.5283 5.29579 14.7737 4.48868 12.4101L4.4845 12.4043Z" fill="#34A853"/>
<path d="M1.09455 6.01758C0.398847 7.36298 0 8.8812 0 10.4994C0 12.1175 0.398847 13.6357 1.09455 14.9811C1.09455 14.9902 4.4898 12.3993 4.4898 12.3993C4.28572 11.7993 4.16509 11.163 4.16509 10.4993C4.16509 9.83553 4.28572 9.1992 4.4898 8.5992L1.09455 6.01758Z" fill="#FBBC05"/>
<path d="M10.2032 4.48184C11.706 4.48184 13.0418 4.99092 14.1086 5.97275L17.0306 3.10914C15.2588 1.49098 12.9583 0.5 10.2032 0.5C6.21432 0.5 2.77279 2.74546 1.09375 6.01822L4.4889 8.60005C5.29591 6.23638 7.55012 4.48184 10.2032 4.48184Z" fill="#EA4335"/>
</svg>
