<svg width="20" height="21" viewBox="0 0 20 21" fill="none" xmlns="http://www.w3.org/2000/svg">
<path d="M8.58579 9.08579C8.94772 8.72386 9.44771 8.5 10 8.5C11.1046 8.5 12 9.39543 12 10.5C12 11.0523 11.7761 11.5523 11.4142 11.9142M8.58579 9.08579L11.4142 11.9142M8.58579 9.08579L5.61839 6.11839M11.4142 11.9142L14.3816 14.8816M19 19.5L14.3816 14.8816M14.3816 14.8816C14.8327 14.5858 15.2604 14.2396 15.6569 13.8431L19 10.5L15.6569 7.15685C12.9291 4.42913 8.72168 4.08297 5.61839 6.11839M5.61839 6.11839L1 1.5M3 8.5L1 10.5L4.34315 13.8431C6.1601 15.6601 8.63361 16.4204 11 16.1239" stroke="#686B6E" stroke-width="1.5" stroke-linecap="round" stroke-linejoin="round"/>
</svg>
