<svg width="16" height="16" viewBox="0 0 16 16" fill="none" xmlns="http://www.w3.org/2000/svg">
<path d="M5.99977 10.7801L3.68644 8.46672C3.56179 8.34207 3.39272 8.27204 3.21644 8.27204C3.04015 8.27204 2.87109 8.34207 2.74644 8.46672C2.62179 8.59137 2.55176 8.76043 2.55176 8.93672C2.55176 9.024 2.56895 9.11044 2.60235 9.19108C2.63576 9.27172 2.68472 9.345 2.74644 9.40672L5.53311 12.1934C5.79311 12.4534 6.21311 12.4534 6.47311 12.1934L13.5264 5.14005C13.6511 5.0154 13.7211 4.84634 13.7211 4.67005C13.7211 4.49377 13.6511 4.3247 13.5264 4.20005C13.4018 4.0754 13.2327 4.00537 13.0564 4.00537C12.8802 4.00537 12.7111 4.0754 12.5864 4.20005L5.99977 10.7801Z" fill="#20F381"/>
</svg>
