<svg width="105" height="109" viewBox="0 0 105 109" fill="none" xmlns="http://www.w3.org/2000/svg">
<path d="M43.3089 2.06826C43.4546 4.28666 43.4222 6.52125 43.2117 8.72346C43.1793 8.99874 43.1631 9.27401 43.1145 9.5331C43.0983 9.66264 43.0822 9.79218 43.066 9.92173C43.0498 10.116 43.1145 9.61407 43.066 9.90554C43.0498 9.9865 43.0497 10.0837 43.0336 10.1646C42.9526 10.7152 42.8555 11.2657 42.7583 11.8163C42.5478 12.9174 42.2725 14.0185 41.9487 15.0872C41.7868 15.5892 41.6248 16.0911 41.4467 16.5931C41.3495 16.836 41.2685 17.0789 41.1552 17.3218C41.139 17.3704 41.0742 17.4513 41.0742 17.5161C41.0742 17.3542 41.1714 17.3056 41.1066 17.419C41.0419 17.5485 40.9933 17.678 40.9285 17.8076C40.5399 18.6658 40.0703 19.4916 39.5521 20.2689C39.4388 20.447 39.3093 20.6251 39.1797 20.8032C39.1149 20.9004 39.0339 20.9975 38.9692 21.0947C38.9368 21.1271 38.9044 21.1757 38.8882 21.208C39.0501 20.9166 38.953 21.1271 38.9044 21.1919C38.6129 21.5643 38.2891 21.9367 37.9653 22.293C37.6414 22.633 37.3175 22.9569 36.9613 23.2807C36.7994 23.4264 36.6213 23.5722 36.4432 23.7179C36.3622 23.7827 36.2812 23.8475 36.2003 23.9122C36.0707 24.0094 36.4431 23.7179 36.2488 23.8798C36.1841 23.9284 36.1355 23.9608 36.0707 24.0094C35.6497 24.317 35.2125 24.6085 34.7591 24.8676C34.3057 25.1267 33.8361 25.321 33.3666 25.5639C33.3827 25.5477 33.6418 25.4505 33.4636 25.5153C33.3989 25.5477 33.3342 25.5639 33.2694 25.5963C33.1398 25.6449 33.0103 25.6934 32.8646 25.742C32.6217 25.823 32.3788 25.9039 32.1197 25.9687C31.6177 26.1144 31.0995 26.2116 30.5814 26.2764C30.3061 26.3088 29.9822 26.6002 29.8527 26.8269C29.7232 27.0698 29.6746 27.3289 29.707 27.6042C29.7879 28.1871 30.2899 28.6567 30.9052 28.6567C32.0873 28.6405 33.2693 28.6405 34.4514 28.7215C34.7267 28.7377 34.9858 28.77 35.2611 28.8024C35.2772 28.8024 35.5687 28.851 35.3744 28.8186C35.1639 28.7862 35.4553 28.8348 35.4877 28.8348C35.6335 28.851 35.7792 28.8834 35.925 28.9158C36.5079 29.0291 37.0747 29.1749 37.6252 29.353C37.7224 29.3854 37.8357 29.4339 37.9328 29.4663C37.9814 29.4825 38.0462 29.5149 38.0948 29.5311C38.1919 29.5635 38.2891 29.6606 38.03 29.4987C38.2243 29.6283 38.4672 29.693 38.6777 29.8064C39.0825 30.0169 39.4712 30.2436 39.8274 30.5027C39.9246 30.5674 40.0217 30.6322 40.1189 30.7132C40.1513 30.7456 40.1999 30.7779 40.2322 30.7941C40.3942 30.9075 40.1675 30.7456 40.1513 30.7294C40.3132 30.8913 40.5237 31.037 40.7018 31.1828C41.0581 31.5066 41.3981 31.8305 41.7219 32.1867C41.8677 32.3486 42.0134 32.5106 42.143 32.6725C42.2077 32.7535 42.2725 32.8344 42.3535 32.9316C42.4507 33.0611 42.1754 32.6887 42.3211 32.883C42.3697 32.9478 42.402 32.9963 42.4506 33.0611C42.7259 33.4336 42.9688 33.8222 43.2117 34.2108C43.4546 34.6156 43.6813 35.0366 43.8918 35.4576C43.989 35.6681 44.0861 35.8786 44.1833 36.0891C44.1994 36.1377 44.2156 36.1863 44.248 36.2187C44.1185 35.911 44.1994 36.0891 44.2318 36.1701C44.2804 36.2997 44.329 36.413 44.3776 36.5426C44.75 37.5141 45.0253 38.5019 45.2358 39.5058C45.3005 39.7973 45.3491 40.0726 45.3977 40.364C45.4139 40.4774 45.4301 40.6069 45.4625 40.7203C45.4787 40.8174 45.4949 40.8984 45.4949 40.9955C45.4949 40.947 45.4787 40.8984 45.4787 40.8498C45.4787 40.9146 45.4949 40.9632 45.4949 41.0279C45.5596 41.6109 45.6244 42.1776 45.6568 42.7606C45.8349 45.4324 45.673 48.1203 45.4949 50.776C45.4625 51.3751 45.9807 51.8932 46.5474 51.9742C47.1465 52.0552 47.697 51.6827 47.8752 51.0998C49.1544 47.0354 49.3164 42.7443 50.2717 38.6152C50.4822 37.6922 50.7251 36.7692 51.0489 35.8624C51.1137 35.6681 51.1947 35.4738 51.2595 35.2957C51.2919 35.1985 51.3566 35.1014 51.389 34.9881C51.389 35.0042 51.2756 35.2633 51.3566 35.0852C51.3728 35.0366 51.4052 34.9719 51.4214 34.9233C51.5995 34.5347 51.7776 34.1622 51.972 33.7898C52.3606 33.0449 52.814 32.3324 53.3159 31.6685C53.3483 31.6362 53.3807 31.5876 53.3969 31.5552C53.235 31.7981 53.2836 31.7009 53.3321 31.6362C53.3969 31.5552 53.4617 31.4742 53.5265 31.3933C53.656 31.2313 53.8017 31.0694 53.9474 30.9075C54.2227 30.5998 54.5142 30.3084 54.8057 30.0493C54.9838 29.8874 55.1457 29.7416 55.34 29.5959C55.3724 29.5635 55.4048 29.5473 55.4534 29.5149C55.1619 29.7416 55.3724 29.5797 55.421 29.5311C55.5181 29.4663 55.5991 29.4016 55.6963 29.3368C56.0525 29.0939 56.4249 28.8672 56.8136 28.6729C56.9107 28.6243 57.0241 28.5757 57.1212 28.5272C57.1698 28.511 57.2022 28.4948 57.2508 28.4786C57.4775 28.3814 57.0079 28.5757 57.2184 28.4948C57.4289 28.4138 57.6394 28.3328 57.8661 28.2681C58.0928 28.2033 58.3033 28.1385 58.53 28.0899C58.6272 28.0737 58.7405 28.0414 58.8377 28.0252C58.9348 28.009 59.3882 27.9442 58.9672 27.9928C59.291 27.9442 59.5987 27.8956 59.8254 27.6366C60.0035 27.4422 60.1169 27.2155 60.1655 26.9403C60.2465 26.3897 59.8902 25.7258 59.291 25.6125C58.8214 25.5153 58.3519 25.402 57.8823 25.2562C57.6718 25.1914 57.4774 25.1105 57.2669 25.0457C57.1536 24.9971 57.0403 24.9486 56.9269 24.9162C57.2994 25.0619 56.8783 24.8838 56.7812 24.8514C55.9229 24.4466 55.0972 23.9608 54.3361 23.3941C54.3037 23.3617 54.2551 23.3293 54.2227 23.3131C54.0608 23.1835 54.2875 23.3617 54.3037 23.3779C54.2227 23.2969 54.1094 23.2321 54.0123 23.1512C53.8179 22.9892 53.6398 22.8435 53.4616 22.6816C53.1054 22.3577 52.7492 22.0177 52.4253 21.6453C52.1015 21.289 51.7938 20.9328 51.4862 20.5603C51.4538 20.5118 51.4214 20.4632 51.3728 20.4146C51.389 20.4308 51.551 20.6413 51.4214 20.4794C51.3405 20.3822 51.2756 20.2851 51.1947 20.1879C51.0489 19.9936 50.9033 19.7831 50.7737 19.5888C50.2394 18.7953 49.7697 17.9533 49.3487 17.0951C49.2516 16.8846 49.1544 16.6903 49.0573 16.4798C49.0249 16.4312 49.0087 16.3664 48.9925 16.3178C48.9116 16.1397 49.0249 16.3826 49.0249 16.3988C48.9763 16.2531 48.9115 16.1235 48.8629 15.994C48.6848 15.5568 48.5229 15.1034 48.3609 14.65C47.6808 12.6583 47.1789 10.6018 46.7741 8.52916C46.5474 7.37947 46.3369 6.2136 46.1588 5.04772C46.0778 4.49717 45.9969 3.96282 45.9159 3.41226C45.8835 3.13699 45.8349 2.8779 45.8025 2.60263C45.7863 2.50547 45.7215 2.05207 45.7863 2.45689C45.7701 2.31115 45.754 2.18162 45.7378 2.03588C45.6892 1.69584 45.6244 1.42055 45.3815 1.17766C45.171 0.967156 44.831 0.805236 44.5233 0.821429C44.2157 0.837622 43.8756 0.93477 43.6651 1.17766C43.4545 1.43674 43.2603 1.7606 43.3089 2.06826C43.8756 6.32694 44.5233 10.6342 45.8349 14.731C47.098 18.6334 49.1544 22.3577 52.3768 24.9648C54.2066 26.4383 56.3116 27.5718 58.6272 28.009C58.7405 27.2155 58.8377 26.4221 58.951 25.6287C57.9471 25.7582 57.0241 26.0173 56.0849 26.4221C55.2591 26.7783 54.498 27.2641 53.7855 27.8309C52.3929 28.9158 51.2433 30.3246 50.3365 31.8305C49.3811 33.4012 48.6848 35.1338 48.2152 36.915C47.6485 39.02 47.3246 41.1899 47.0008 43.3435C46.6445 45.7724 46.2721 48.2013 45.5272 50.5492C46.3207 50.6626 47.1141 50.7598 47.9076 50.8731C48.2152 46.0801 48.4905 41.0603 46.8713 36.4454C45.5273 32.5915 42.8878 28.9805 39.0501 27.3613C36.4755 26.2764 33.658 26.244 30.9052 26.2764C31.0186 27.0698 31.1157 27.8632 31.2291 28.6567C35.3096 28.0899 38.7911 25.4505 41.1714 22.212C43.8108 18.6172 44.9605 14.0995 45.5111 9.72742C45.8349 7.18517 45.8997 4.6267 45.7216 2.08445C45.673 1.45293 45.1872 0.83761 44.5071 0.869995C43.8918 0.886188 43.2603 1.38817 43.3089 2.06826Z" fill="#231F20"/>
<path d="M8.34184 40.4227C8.61711 41.6371 8.86 42.8677 9.07051 44.0984C9.18386 44.6975 9.28106 45.2967 9.36202 45.8958C9.4106 46.2034 9.45915 46.4949 9.49153 46.8026C9.50773 46.9321 9.52389 47.0778 9.54008 47.2074C9.57247 47.4341 9.54008 47.2236 9.54008 47.1912C9.55627 47.2884 9.5725 47.3855 9.5725 47.4989C9.89635 49.944 10.0906 52.3891 10.1878 54.8504C10.2364 55.9029 10.2364 56.9392 10.1717 57.9918C10.1555 58.2346 10.1392 58.4775 10.1068 58.7204C10.0906 58.85 10.0745 58.9795 10.0583 59.109C10.0421 59.2386 10.0907 59.3357 10.0583 59.0767C10.0745 59.1576 10.0259 59.2548 10.0259 59.3357C9.9449 59.8377 9.84774 60.3235 9.70201 60.8093C9.63724 61.0522 9.55629 61.2789 9.47532 61.5217C9.44294 61.6189 9.37822 61.7323 9.36202 61.8294C9.42679 61.5865 9.42675 61.6999 9.39436 61.7646C9.36198 61.8456 9.32957 61.9104 9.29719 61.9913C9.07049 62.4609 8.81142 62.8981 8.50376 63.3191C8.4228 63.4163 8.35804 63.5296 8.27708 63.6268C8.29327 63.5944 8.43904 63.4163 8.3095 63.5782C8.27711 63.6268 8.24469 63.6754 8.19612 63.7078C8.03419 63.9183 7.85604 64.1288 7.67792 64.3393C7.33787 64.7279 6.96549 65.1165 6.59305 65.489C6.18824 65.8938 5.76718 66.2662 5.32997 66.6386C5.10328 66.833 4.87661 67.0273 4.63372 67.2054C4.58514 67.254 4.52037 67.3025 4.47179 67.3349C4.43941 67.3511 4.24509 67.5131 4.39083 67.3997C4.55276 67.2864 4.32606 67.4483 4.30987 67.4645C4.24509 67.5131 4.16416 67.5616 4.09939 67.6264C3.12783 68.3389 2.12388 69.0028 1.10374 69.6343C0.666537 69.9096 0.375005 70.4925 0.553125 71.0107C0.715052 71.4965 1.18467 71.9337 1.71903 71.9013C2.73917 71.8365 3.75931 71.7879 4.79565 71.8365C5.47574 71.8689 6.15583 71.9337 6.81974 72.0146C7.19217 72.047 7.54838 72.0794 7.92081 72.1118C8.03416 72.1118 8.14752 72.128 8.26087 72.1442C8.29326 72.1442 8.30945 72.1442 8.34184 72.1604C8.47138 72.1766 8.43898 72.1765 8.24466 72.1442C8.27705 72.1604 8.35808 72.1604 8.39046 72.1604C8.64954 72.209 8.9086 72.2575 9.16768 72.3385C9.39438 72.4033 9.62109 72.4842 9.8316 72.5652C9.89637 72.5814 9.94496 72.6138 10.0097 72.6299C10.1717 72.6947 9.71822 72.5004 9.96111 72.6138C10.0906 72.6785 10.204 72.7271 10.3336 72.7919C10.787 73.0186 11.208 73.2777 11.6128 73.5691C11.6614 73.6015 11.7099 73.6501 11.7585 73.6825C11.9366 73.812 11.71 73.6501 11.6938 73.6339C11.7423 73.7149 11.9204 73.812 11.9852 73.8768C12.1957 74.0549 12.39 74.233 12.5844 74.4111C12.9568 74.7674 13.3292 75.156 13.6531 75.5446C13.815 75.7389 13.9769 75.9333 14.1227 76.1276C13.9607 75.9009 14.3008 76.3543 14.1227 76.1276C14.1551 76.1762 14.1875 76.2085 14.2198 76.2571C14.317 76.3867 14.4141 76.5162 14.4951 76.6457C14.8027 77.0829 15.0942 77.5201 15.3695 77.9735C15.9686 78.9613 16.5192 79.9976 17.0211 81.034C17.2964 81.6007 17.5717 82.1836 17.8308 82.7504C17.8956 82.8799 17.9441 83.0095 18.0089 83.139C18.0413 83.2038 18.0737 83.2848 18.1061 83.3495C18.1871 83.56 18.1061 83.3657 18.0899 83.3171C18.2356 83.641 18.3489 83.9648 18.4785 84.2887C19.531 86.9443 20.3407 89.6809 20.9074 92.4822C21.0207 93.0814 21.6847 93.4214 22.2352 93.3566C22.8829 93.2757 23.223 92.7737 23.2878 92.1584C23.8545 87.2844 22.6238 82.4427 22.9153 77.5525C22.9315 77.1639 22.9801 76.7753 23.0124 76.4029C23.0286 76.3057 23.0449 76.2085 23.0449 76.1114C23.0611 75.9495 22.9963 76.4514 23.0287 76.2085C23.0287 76.16 23.0449 76.1276 23.0449 76.079C23.0772 75.8685 23.1096 75.658 23.142 75.4475C23.2877 74.6217 23.482 73.7958 23.7087 73.0024C23.8382 72.5814 23.9678 72.1604 24.1135 71.7393C24.1783 71.545 24.2431 71.3669 24.3241 71.1888C24.3565 71.0917 24.405 70.9945 24.4374 70.8973C24.5183 70.7192 24.405 70.9783 24.3888 70.9945C24.4212 70.9297 24.4374 70.865 24.4698 70.8002C24.8098 70.0391 25.1984 69.2943 25.668 68.598C25.7814 68.4199 25.911 68.2417 26.0405 68.0636C26.0567 68.0312 26.2024 67.8531 26.0566 68.0312C25.9271 68.2094 26.0729 68.015 26.1053 67.9826C26.17 67.9017 26.2348 67.8207 26.3157 67.7398C26.591 67.4159 26.8987 67.1082 27.2226 66.833C27.3035 66.752 27.4007 66.6872 27.4817 66.6225C27.595 66.5253 27.2549 66.7844 27.3845 66.7034C27.4331 66.671 27.4816 66.6387 27.5302 66.5901C27.7083 66.4767 27.8703 66.3634 28.0646 66.25C28.2427 66.1529 28.4208 66.0557 28.5989 65.9747C28.6313 65.9586 28.8256 65.8776 28.6151 65.9586C28.4208 66.0395 28.5828 65.9747 28.6314 65.9586C28.7447 65.91 28.858 65.8776 28.9713 65.8452C29.4571 65.6833 29.8943 65.2137 29.8619 64.6793C29.8295 64.1288 29.5057 63.6916 28.9713 63.5135C26.8987 62.8172 24.7289 62.5257 22.64 61.8618C22.3972 61.7808 22.1543 61.6999 21.9114 61.6027C21.8628 61.5865 21.8142 61.5703 21.7656 61.5541C21.7332 61.538 21.5227 61.4246 21.7008 61.5217C21.8789 61.6189 21.6685 61.5056 21.6361 61.4894C21.5713 61.457 21.4904 61.4246 21.4256 61.3922C20.956 61.1817 20.5188 60.9226 20.0978 60.6311C20.033 60.5826 19.9682 60.534 19.9034 60.5016C19.7577 60.4045 19.9359 60.5502 19.9683 60.5502C19.9197 60.5664 19.7091 60.3397 19.6605 60.2911C19.45 60.0968 19.2395 59.9025 19.0452 59.692C18.8833 59.5139 18.7214 59.3196 18.5595 59.1252C18.4785 59.0281 18.3975 58.9309 18.3166 58.8338C18.5271 59.0767 18.3976 58.9309 18.349 58.8661C18.3004 58.8014 18.2518 58.7204 18.1871 58.6556C17.6041 57.8622 17.1183 57.0202 16.6811 56.1458C16.5677 55.9191 16.4706 55.7086 16.3734 55.4819C16.3249 55.3847 16.2763 55.2876 16.2439 55.1742C16.2115 55.1256 16.1953 55.0609 16.163 55.0123C16.0658 54.7856 16.2601 55.239 16.163 55.0285C15.9686 54.5589 15.7905 54.0731 15.6123 53.6035C14.8837 51.5956 14.3169 49.523 13.6854 47.4827C12.811 44.7299 11.7909 42.0257 10.4631 39.4673C10.1716 38.9005 9.32964 38.69 8.79528 39.0301C8.21234 39.4025 8.05038 40.0826 8.35804 40.6979C8.6819 41.3132 8.98959 41.9448 9.28106 42.5763C9.4106 42.8677 9.55632 43.1592 9.66967 43.4507C9.65348 43.4183 9.5725 43.2078 9.65346 43.4183C9.68585 43.4831 9.71825 43.564 9.75063 43.6288C9.8154 43.7907 9.88013 43.9527 9.9449 44.0984C10.3983 45.2319 10.8031 46.3816 11.1756 47.5475C11.8557 49.6363 12.4386 51.7575 13.1511 53.8302C13.8312 55.8057 14.657 57.765 15.8391 59.4977C16.4706 60.4206 17.1831 61.3598 18.0575 62.0723C18.9966 62.8657 20.033 63.4325 21.1827 63.8697C23.4821 64.7603 25.9757 65.0194 28.3075 65.7966C28.3075 65.0194 28.3075 64.2421 28.3075 63.4487C24.7775 64.5822 22.7534 68.096 21.6361 71.3993C21.0531 73.0995 20.6969 74.8807 20.5188 76.6619C20.2921 78.9613 20.454 81.2931 20.6483 83.5924C20.875 86.4261 21.1503 89.2599 20.8264 92.0936C21.6199 91.9802 22.4133 91.8831 23.2068 91.7697C22.6886 89.2275 21.9599 86.7176 21.0531 84.2887C20.1301 81.8436 19.0452 79.4309 17.7336 77.1639C16.6163 75.2532 15.2723 73.391 13.5559 71.9822C12.6167 71.2212 11.6451 70.6059 10.5116 70.1687C9.50769 69.7638 8.4552 69.6505 7.38648 69.5533C6.60923 69.4886 5.8482 69.3914 5.07095 69.3428C3.92127 69.2781 2.78775 69.3266 1.63807 69.3914C1.84857 70.1525 2.04285 70.8973 2.25336 71.6584C4.1641 70.4763 6.02628 69.1809 7.69413 67.6426C9.34578 66.1043 10.8841 64.3393 11.71 62.218C12.5034 60.1778 12.6329 57.8946 12.5844 55.7086C12.5358 53.2311 12.3414 50.7536 12.05 48.3085C11.7099 45.4262 11.2241 42.5439 10.5926 39.7102C10.4469 39.0949 9.70205 38.6738 9.10292 38.8681C8.53618 39.1434 8.17991 39.7588 8.34184 40.4227Z" fill="#FDE047"/>
<path d="M62.0444 67.6008C62.2711 68.4914 62.4492 69.382 62.5788 70.305C62.5626 70.1916 62.5463 70.0945 62.5301 69.9811C62.773 71.7785 62.8054 73.6245 62.5626 75.4219C62.5787 75.3085 62.5949 75.2114 62.6111 75.098C62.4168 76.5554 62.0444 77.9803 61.4776 79.3243C61.5262 79.2272 61.5586 79.13 61.6072 79.0329C61.3319 79.6806 61.0243 80.3121 60.6518 80.9112C60.4737 81.2189 60.2632 81.5265 60.0527 81.818C59.9555 81.9475 59.8584 82.0771 59.7612 82.2066C60.0203 81.8666 59.8098 82.1418 59.745 82.2228C59.6803 82.3038 59.6155 82.3847 59.5507 82.4495C59.0973 83.0001 58.5792 83.502 58.0448 83.9716C57.9153 84.085 57.7695 84.1983 57.64 84.3117C57.559 84.3764 57.2837 84.5869 57.6238 84.3279C57.5428 84.3764 57.4781 84.4412 57.3971 84.506C57.0894 84.7327 56.7656 84.9432 56.4417 85.1537C55.8264 85.5261 55.2111 85.85 54.5472 86.1253C54.6443 86.0767 54.7414 86.0443 54.8386 85.9957C54.369 86.19 53.8995 86.3843 53.4299 86.5948C53.106 86.7406 52.7984 86.8701 52.5555 87.113C52.0049 87.6312 52.102 88.5218 52.6688 88.959C52.9603 89.1857 53.3489 89.2505 53.689 89.3476C54.2719 89.5257 54.8548 89.7362 55.4215 89.9791C55.3244 89.9305 55.2273 89.8982 55.1301 89.8496C56.6684 90.5135 58.1581 91.3393 59.4859 92.3433C59.5183 92.3756 59.5507 92.3918 59.5831 92.4242C59.3078 92.2137 59.4212 92.3109 59.4859 92.3433C59.5669 92.408 59.6317 92.4566 59.7126 92.5214C59.8584 92.6347 60.0041 92.7643 60.1336 92.8776C60.3765 93.1043 60.6194 93.331 60.8461 93.5901C60.9595 93.7034 61.0566 93.833 61.17 93.9625C61.2185 94.0273 61.2671 94.0921 61.3157 94.1568C61.3643 94.2216 61.4453 94.335 61.2186 94.0435C61.251 94.0921 61.2833 94.1245 61.3157 94.173C61.51 94.4321 61.7044 94.7074 61.8663 94.9989C62.2873 95.6628 62.6273 96.3752 62.9512 97.1039C62.9026 97.0068 62.8702 96.9096 62.8216 96.8124C63.9875 99.5976 64.5218 102.593 65.04 105.557C65.1695 106.35 65.3153 107.143 65.461 107.937C65.5096 108.212 65.7849 108.536 66.0116 108.666C66.2545 108.795 66.5136 108.844 66.7889 108.811C67.388 108.73 67.8252 108.228 67.8414 107.613C67.89 106.269 67.9385 104.925 67.9871 103.565C68.0357 102.269 68.0357 100.958 68.2138 99.6624C68.1976 99.7757 68.1814 99.8729 68.1652 99.9862C68.3272 98.8689 68.57 97.7516 68.8615 96.6667C69.0072 96.1323 69.1691 95.598 69.3311 95.0636C69.4768 94.6264 69.6064 94.173 69.7845 93.7358C69.7359 93.833 69.7035 93.9301 69.6549 94.0273C69.8816 93.5091 70.1731 93.0234 70.5132 92.57C70.5618 92.5052 70.6103 92.4404 70.6589 92.3594C70.7723 92.2137 70.4484 92.6185 70.6265 92.3918C70.7398 92.2461 70.8532 92.1166 70.9666 91.9708C71.1771 91.7117 71.4038 91.4688 71.6305 91.226C72.1163 90.724 72.6344 90.2382 73.1688 89.7686C73.2983 89.6553 73.4278 89.5581 73.5574 89.4448C73.6222 89.3962 73.687 89.3476 73.7517 89.2828C73.7841 89.2504 73.8165 89.2181 73.865 89.2019C73.8165 89.2343 73.6222 89.3962 73.7679 89.2666C74.027 89.0723 74.3023 88.878 74.5614 88.6837C75.0957 88.3275 75.6463 87.9874 76.2454 87.7445C76.1482 87.7931 76.0511 87.8255 75.954 87.8741C76.0025 87.8579 76.0511 87.8417 76.0997 87.8093C76.3911 87.6959 76.6664 87.534 76.8283 87.2587C76.9579 87.0159 77.0065 86.7568 76.9741 86.4815C76.8931 85.8824 76.3911 85.429 75.7758 85.429C75.5005 85.429 75.2253 85.4128 74.9662 85.3804C75.0795 85.3966 75.1767 85.4128 75.29 85.429C74.7557 85.348 74.2213 85.2023 73.7193 84.9918C73.8165 85.0403 73.9137 85.0727 74.0108 85.1213C73.7032 84.9918 73.4116 84.846 73.1364 84.6679C72.9906 84.5869 72.8611 84.4898 72.7154 84.4088C72.6506 84.3603 72.5696 84.3117 72.5049 84.2631C72.4725 84.2469 72.4401 84.2145 72.4077 84.1983C72.3915 84.1821 72.3753 84.1659 72.3591 84.1659C72.2458 84.0688 72.5211 84.2955 72.5049 84.2793C71.9543 83.8259 71.4361 83.3401 70.9503 82.8057C70.837 82.66 70.7075 82.5305 70.5942 82.3847C70.5456 82.32 70.4808 82.239 70.4322 82.1742C70.3027 82.0123 70.5618 82.3362 70.5132 82.2714C70.4808 82.2228 70.4484 82.1904 70.416 82.1418C70.1731 81.8342 69.9626 81.5103 69.7359 81.1865C69.2825 80.5064 68.8777 79.7939 68.5053 79.0652C68.0681 78.2232 67.6633 77.3488 67.2909 76.4744C67.3394 76.5716 67.3718 76.6687 67.4204 76.7659C66.3355 74.1912 65.4934 71.5032 64.7971 68.7829C64.6352 68.1513 64.4895 67.536 64.3437 66.9045C64.198 66.2892 63.4531 65.8682 62.854 66.0625C62.2387 66.3216 61.8824 66.9369 62.0444 67.6008C62.3844 69.0743 62.7568 70.5479 63.1941 72.0052C63.696 73.7054 64.279 75.4057 64.9429 77.0573C65.6554 78.79 66.4488 80.5064 67.4528 82.0933C68.3434 83.5182 69.4121 84.9108 70.7237 85.9633C71.3552 86.4653 72.0191 86.9349 72.764 87.2587C73.5898 87.615 74.3995 87.8417 75.3062 87.9226C75.4844 87.9388 75.6624 87.9388 75.8244 87.9388C75.711 87.1454 75.6139 86.352 75.5005 85.5585C74.1727 86.0767 73.023 86.8863 71.9219 87.7769C70.8208 88.6675 69.7845 89.6715 68.9101 90.7888C68.4729 91.3393 68.0681 91.8899 67.7442 92.5214C67.3718 93.2662 67.1289 94.0759 66.886 94.8693C66.3031 96.7962 65.8334 98.7556 65.6877 100.763C65.6067 101.897 65.5906 103.047 65.5582 104.18C65.5258 105.346 65.4772 106.496 65.4448 107.662C66.2383 107.548 67.0317 107.451 67.8252 107.338C67.2422 104.115 66.805 100.844 65.7687 97.7354C65.2343 96.1647 64.5704 94.594 63.5989 93.2339C63.1131 92.5376 62.5626 91.8899 61.9473 91.3069C61.2348 90.6592 60.4413 90.0763 59.6317 89.5581C58.7411 88.9752 57.8019 88.457 56.8303 88.0198C56.2798 87.7607 55.713 87.534 55.1301 87.3235C54.6605 87.1616 54.1909 87.0321 53.7213 86.8863C53.8185 86.9349 53.9157 86.9673 54.0128 87.0159C54.1586 87.1616 54.288 87.2911 54.4338 87.4369C54.4824 87.534 54.5148 87.6312 54.5634 87.7283C54.5796 87.8417 54.5957 87.9388 54.6119 88.0522C54.5957 88.1655 54.5796 88.2627 54.5634 88.376C54.5148 88.4732 54.4824 88.5704 54.4338 88.6675C54.3366 88.8133 54.2071 88.9914 54.0614 89.0561C54.0938 89.0399 54.11 89.0238 54.1423 89.0076C54.2233 88.959 54.3043 88.9266 54.3852 88.878C54.6119 88.7647 54.8548 88.6675 55.0977 88.5703C55.0005 88.6189 54.9034 88.6513 54.8063 88.6999C55.4702 88.4246 56.1502 88.1493 56.7979 87.8093C57.5428 87.4207 58.2391 86.9673 58.903 86.4653C60.3117 85.3804 61.5262 84.1012 62.4816 82.6114C64.3276 79.7777 65.1372 76.3449 65.1534 72.993C65.1534 70.9851 64.8781 68.961 64.3923 67.0179C64.2304 66.4025 63.5179 65.9653 62.9026 66.1758C62.2549 66.3216 61.8662 66.9369 62.0444 67.6008Z" fill="#231F20"/>
<path d="M78.4466 24.6411C78.5762 25.2402 78.6895 25.8394 78.7867 26.4385C78.8353 26.73 78.8838 27.0376 78.9324 27.3453C78.9486 27.4424 79.0295 27.8959 78.9648 27.5396C78.9971 27.7177 79.0134 27.8958 79.0296 28.0578C79.1753 29.2884 79.2887 30.5353 79.3534 31.7821C79.483 34.292 79.4667 36.818 79.2886 39.3117C79.24 39.927 79.1915 40.5424 79.1429 41.1739C79.1105 41.4491 79.0943 41.7406 79.0619 42.0159C79.0457 42.1454 79.0296 42.275 79.0134 42.4207C79.0134 42.4855 78.9972 42.5503 78.9972 42.5988C78.981 42.696 78.9972 42.6474 79.0134 42.4531C79.0134 42.5017 78.9972 42.5503 78.9972 42.5988C78.8514 43.6352 78.6247 44.6553 78.3495 45.6592C78.2037 46.1612 78.0418 46.6632 77.8637 47.149C77.7665 47.3919 77.6855 47.6348 77.5884 47.8777C77.5722 47.9424 77.5398 47.991 77.5236 48.0558C77.6208 47.7481 77.5722 47.9262 77.5398 48.0072C77.4751 48.1367 77.4265 48.2825 77.3617 48.412C76.9245 49.3674 76.4225 50.2742 75.8234 51.1486C75.6615 51.3915 75.4834 51.6344 75.3053 51.8611C75.2567 51.9258 75.1595 52.0068 75.3538 51.7963C75.3052 51.8611 75.2405 51.9258 75.1919 51.9906C75.0947 52.104 75.0137 52.2173 74.9166 52.3307C74.5441 52.7679 74.1556 53.1727 73.7345 53.5775C73.524 53.7718 73.3135 53.9661 73.0868 54.1604C72.9735 54.2576 72.8439 54.3385 72.7468 54.4357C72.9573 54.2252 72.8764 54.3385 72.7954 54.4033C72.7306 54.4519 72.6658 54.5005 72.5848 54.549C72.1153 54.8891 71.6133 55.213 71.0952 55.4882C70.6418 55.7311 70.3826 56.3626 70.5445 56.8646C70.6093 57.0589 70.7065 57.2532 70.8523 57.399C71.0304 57.5933 71.4352 57.7876 71.7105 57.7552C72.7954 57.6257 73.8803 57.5609 74.9652 57.5933C75.4996 57.6095 76.0177 57.6419 76.5521 57.6904C76.6816 57.7066 76.8273 57.7228 76.9569 57.739C77.054 57.7552 77.5398 57.82 77.1188 57.7552C77.3941 57.8038 77.6694 57.8362 77.9447 57.8847C78.9972 58.0629 80.0497 58.322 81.0698 58.6458C81.588 58.8077 82.1061 58.9859 82.6081 59.1964C82.7215 59.2449 82.8186 59.2773 82.932 59.3259C82.9967 59.3583 83.0615 59.3745 83.1263 59.4069C82.7863 59.2773 83.0129 59.3583 83.0939 59.3907C83.353 59.504 83.5959 59.6174 83.855 59.7307C84.8427 60.2003 85.7981 60.7185 86.7049 61.3014C87.1583 61.5929 87.5955 61.8844 88.0166 62.2082C88.1299 62.2892 88.2432 62.3701 88.3565 62.4511C88.4051 62.4997 88.4699 62.532 88.5185 62.5806C88.2594 62.3863 88.3727 62.4673 88.4375 62.5159C88.6804 62.7102 88.9071 62.8883 89.1338 63.0826C89.9435 63.7627 90.7207 64.5076 91.4331 65.2848C91.8056 65.6896 92.1619 66.1106 92.5181 66.5478C92.5829 66.645 92.6638 66.726 92.7286 66.8231C92.4695 66.5155 92.7772 66.8879 92.8257 66.9689C92.9877 67.1956 93.1496 67.4223 93.3115 67.649C93.9916 68.6367 94.607 69.673 95.1251 70.7418C95.2547 71.017 95.3842 71.2923 95.4975 71.5514C95.5947 71.7781 95.3842 71.2761 95.4813 71.519C95.5137 71.6 95.5461 71.6971 95.5785 71.7781C95.6271 71.9076 95.6756 72.0372 95.7242 72.1667C95.9509 72.7497 96.1452 73.3488 96.3072 73.9479C96.4853 74.5632 97.1816 75.0004 97.7969 74.7899C98.0884 74.6928 98.3799 74.5147 98.5256 74.2394C98.6875 73.9317 98.7037 73.6403 98.6551 73.3002C98.6551 73.284 98.6065 72.9763 98.6389 73.1707C98.6713 73.365 98.6228 73.0735 98.6228 73.0573C98.6066 72.944 98.5903 72.8306 98.5742 72.7173C98.5418 72.4582 98.5094 72.1991 98.4932 71.94C98.4608 71.5352 98.4284 71.1304 98.4122 70.7256C98.396 70.0941 98.4122 69.4463 98.396 68.8148C98.396 68.0214 98.3475 67.2441 98.2665 66.4507C98.2017 65.8516 98.1208 65.2524 98.0398 64.6533C97.9912 64.2971 97.9427 63.9408 97.8941 63.5684C97.8779 63.5036 97.8779 63.4388 97.8617 63.3741C97.8131 63.0664 97.8941 63.5684 97.8617 63.3741C97.8455 63.196 97.8131 63.034 97.7969 62.8559C97.6512 61.7062 97.5217 60.5404 97.4893 59.3745C97.4731 58.7754 97.473 58.1924 97.5216 57.5933C97.5378 57.318 97.554 57.0265 97.6026 56.7513C97.5378 57.0913 97.635 56.5893 97.635 56.5246C97.6674 56.3626 97.6836 56.2169 97.716 56.055C97.8131 55.553 97.9589 55.0672 98.1208 54.5976C98.1856 54.3871 98.2665 54.1766 98.3475 53.9661C98.3799 53.869 98.4123 53.7718 98.4608 53.6908C98.477 53.6261 98.5094 53.5775 98.5256 53.5127C98.639 53.2536 98.477 53.6423 98.5256 53.5289C98.9142 52.6707 99.3514 51.8449 99.8696 51.0676C100.015 50.8571 100.226 50.6304 100.355 50.4037C100.339 50.4199 100.177 50.6304 100.307 50.4685C100.355 50.4037 100.404 50.3551 100.453 50.2904C100.533 50.1932 100.614 50.0961 100.695 49.9989C101.035 49.6103 101.392 49.2378 101.78 48.8816C101.975 48.7035 102.185 48.5254 102.396 48.3472C102.558 48.2177 102.347 48.3958 102.331 48.3958C102.396 48.3634 102.444 48.2987 102.509 48.2663C102.622 48.1853 102.736 48.1044 102.833 48.0234C103.27 47.7157 103.723 47.4566 104.209 47.2138C104.663 46.9871 104.922 46.3232 104.76 45.8374C104.582 45.303 104.144 44.9792 103.594 44.9468C103.027 44.9144 102.46 44.8658 101.894 44.801C101.764 44.7848 101.635 44.7686 101.505 44.7525C101.44 44.7525 101.375 44.7201 101.311 44.7201C101.635 44.7039 101.424 44.7363 101.327 44.7201C101.035 44.6715 100.744 44.6391 100.469 44.5905C99.3676 44.3962 98.2827 44.1533 97.2302 43.8457C96.6958 43.6837 96.1776 43.5218 95.6595 43.3275C95.4166 43.2304 95.1737 43.1494 94.9146 43.0522C94.8822 43.036 94.5422 42.9065 94.5422 42.9065C94.5908 42.9227 94.6393 42.9551 94.6879 42.9713C94.6393 42.9551 94.5908 42.9227 94.5422 42.9065C94.4774 42.8741 94.3965 42.8417 94.3317 42.8093C93.3116 42.3559 92.34 41.8378 91.4008 41.2386C90.9312 40.931 90.4616 40.6233 90.0244 40.2833C89.9759 40.2509 89.9434 40.2185 89.8948 40.1861C89.9434 40.2347 90.1701 40.3804 89.8948 40.1861C89.7977 40.1052 89.6844 40.0242 89.5872 39.9432C89.3605 39.7651 89.15 39.5708 88.9395 39.3765C88.5347 39.004 88.1299 38.6154 87.7575 38.2106C87.3688 37.7896 87.0287 37.3362 86.6563 36.9152C86.883 37.1743 86.6078 36.8504 86.5592 36.7695C86.4782 36.6561 86.3973 36.559 86.3163 36.4456C86.1382 36.2027 85.9763 35.9598 85.8143 35.7169C85.4905 35.2311 85.199 34.7292 84.9075 34.2272C84.3408 33.2232 83.8388 32.1869 83.3692 31.1182C83.353 31.0696 83.3206 31.021 83.3045 30.9725C83.2883 30.9239 83.2559 30.8753 83.2397 30.8267C83.3045 30.9886 83.3206 31.0048 83.272 30.8915C83.2073 30.7458 83.1425 30.5838 83.0778 30.4381C82.9644 30.1466 82.8511 29.8552 82.7377 29.5637C82.511 28.9646 82.2843 28.3492 82.0738 27.7501C81.6366 26.5033 81.2317 25.2564 80.8269 24.0096C80.6326 23.4105 79.9688 22.9571 79.3372 23.1676C78.6895 23.3457 78.2361 23.9934 78.4466 24.6411C79.904 29.1913 81.4261 33.8871 84.2598 37.7896C85.701 39.7813 87.4336 41.4977 89.4739 42.9065C91.4008 44.2343 93.5544 45.2382 95.7728 45.9669C98.2989 46.7927 100.938 47.2461 103.594 47.3919C103.383 46.6308 103.189 45.886 102.979 45.1249C99.3029 46.9547 96.7444 50.598 95.6271 54.5005C94.947 56.8808 94.9794 59.3583 95.2546 61.7872C95.3356 62.4673 95.4166 63.1312 95.5137 63.8113C95.5299 63.9732 95.5623 64.1189 95.5785 64.2809C95.5947 64.3456 95.5947 64.4104 95.6109 64.4752C95.6595 64.7828 95.5785 64.2809 95.6109 64.4914C95.6595 64.799 95.6918 65.1229 95.7404 65.4306C95.8538 66.3859 95.9671 67.3413 95.9833 68.2967C95.9995 69.0253 95.9833 69.754 95.9995 70.4827C96.0319 71.6324 96.1615 72.7821 96.3234 73.9317C97.1006 73.7212 97.8779 73.4945 98.6713 73.284C97.4245 68.8796 94.8336 64.8962 91.4331 61.8682C88.0327 58.8239 83.8226 56.6055 79.3534 55.6825C76.8598 55.1644 74.2689 55.0024 71.7429 55.3263C71.9534 56.0874 72.1477 56.8322 72.3582 57.5933C76.3416 55.4073 79.0295 51.4724 80.4383 47.2299C81.167 45.0277 81.4909 42.7446 81.669 40.429C81.8795 37.8706 81.9443 35.3121 81.8471 32.7537C81.7338 29.8228 81.4261 26.8919 80.8269 24.0258C80.6974 23.4105 79.9364 22.9895 79.3372 23.1838C78.641 23.3619 78.3171 23.9772 78.4466 24.6411Z" fill="#FDE047"/>
</svg>
