<svg width="252" height="241" viewBox="0 0 252 241" fill="none" xmlns="http://www.w3.org/2000/svg">
<path d="M249.671 119.516C250.782 119.703 250.783 121.299 249.672 121.488L172.137 134.626C171.342 134.76 171.025 135.733 171.589 136.31L226.582 192.626C227.369 193.433 226.429 194.723 225.42 194.22L155.018 159.104C154.295 158.743 153.465 159.345 153.583 160.145L165.111 238.117C165.276 239.233 163.756 239.726 163.235 238.725L126.863 168.859C126.489 168.142 125.463 168.142 125.089 168.859L88.717 238.725C88.1962 239.726 86.6758 239.233 86.8408 238.117L98.3691 160.145C98.4874 159.345 97.657 158.743 96.9335 159.104L26.5382 194.217C25.5294 194.72 24.5887 193.429 25.3766 192.623L80.41 136.31C80.9739 135.733 80.6574 134.76 79.8618 134.625L2.32832 121.488C1.21743 121.299 1.21788 119.703 2.32887 119.516L79.8604 106.422C80.6563 106.288 80.9732 105.314 80.4091 104.737L25.3704 48.4187C24.5827 47.6127 25.5227 46.3222 26.5314 46.8247L96.9341 81.8972C97.6576 82.2576 98.4875 81.6554 98.3693 80.8559L86.8415 2.88741C86.6765 1.77155 88.1972 1.27895 88.7178 2.27961L125.089 72.1875C125.462 72.9054 126.49 72.9054 126.863 72.1875L163.234 2.27963C163.755 1.27897 165.275 1.77158 165.11 2.88744L153.583 80.8559C153.464 81.6554 154.294 82.2576 155.018 81.8972L225.427 46.8215C226.435 46.3191 227.375 47.6091 226.588 48.4153L171.59 104.737C171.026 105.314 171.343 106.287 172.139 106.422L249.671 119.516Z" stroke="#FEF08A" stroke-width="2" stroke-miterlimit="10" stroke-linecap="round"/>
</svg>
