<svg width="205" height="15" viewBox="0 0 205 15" fill="none" xmlns="http://www.w3.org/2000/svg">
<path d="M4.44775 7.82473C6.05278 7.82473 7.73424 7.75144 9.33927 7.67814C10.0271 7.67814 10.6386 7.60484 11.3264 7.60484C14.2308 7.45824 17.1351 7.31165 20.0395 7.16505C23.5552 7.01845 26.9946 6.79856 30.5104 6.65196C35.4783 6.35877 40.4463 6.13887 45.4142 5.84568C46.5607 5.77238 47.7071 5.77238 48.8536 5.69908C51.7579 5.55248 54.6622 5.40589 57.5666 5.33259C60.4709 5.18599 63.3753 5.03939 66.2796 4.9661C67.426 4.8928 68.5725 4.8195 69.7189 4.8195C74.3047 4.6729 78.967 4.52631 83.5528 4.37971C86.3807 4.30641 89.2086 4.23311 92.1129 4.08652C93.2594 4.08652 94.3294 4.01322 95.4758 4.01322C99.9088 3.93992 104.418 3.86662 108.851 3.79332C113.284 3.72002 117.641 3.64672 122.073 3.57343C123.22 3.57343 124.366 3.57343 125.589 3.57343C128.494 3.57343 131.322 3.57343 134.226 3.57343C138.735 3.57343 143.168 3.57343 147.678 3.50013C149.13 3.50013 150.582 3.50013 152.034 3.50013C155.091 3.50013 158.148 3.50013 161.206 3.50013C161.435 3.50013 161.741 3.50013 161.97 3.50013C155.091 3.57343 148.136 3.64672 141.257 3.79332C138.353 3.86662 135.525 3.86662 132.621 3.93992C131.398 3.93992 130.099 3.93992 128.876 4.01322C124.672 4.08651 120.545 4.23311 116.341 4.30641C111.526 4.45301 106.711 4.52631 101.896 4.6729C101.055 4.6729 100.291 4.7462 99.4502 4.7462C96.8516 4.8928 94.3294 4.9661 91.7308 5.11269C86.5335 5.33259 81.3363 5.55248 76.1391 5.77238C75.3748 5.77238 74.6105 5.84568 73.8462 5.91898C71.324 6.06557 68.7253 6.28547 66.2032 6.43207C61.6174 6.72526 57.108 7.01845 52.5222 7.31165C51.2993 7.38494 50 7.53154 48.7771 7.60484C45.8728 7.82474 42.9685 8.04463 40.0641 8.33782C36.3955 8.63102 32.6504 8.92421 28.9818 9.21741C23.861 9.6572 18.6637 10.097 13.5429 10.5368C12.32 10.6101 11.0972 10.7567 9.79785 10.83C7.58138 11.0499 5.36491 11.2698 3.14844 11.4897C2.91915 11.4897 2.68986 11.6363 2.68986 11.9294C2.68986 12.1493 2.91915 12.3692 3.14844 12.3692C3.98917 12.3692 4.75347 12.4425 5.5942 12.4425C5.44134 12.809 5.36491 13.0289 5.36491 13.2488C5.36491 14.0551 6.05278 14.7881 6.96994 14.7881C13.3136 14.4216 19.5809 13.9818 25.9246 13.6886C31.4275 13.4687 36.9305 13.1755 42.4334 12.9556C48.4714 12.6624 54.5858 12.3692 60.6238 12.1493C62.5345 12.076 64.4453 12.0027 66.356 11.8561C66.891 11.8561 67.426 11.7829 68.0375 11.7829C77.8205 11.563 87.6036 11.2698 97.3866 11.0499C102.584 10.9033 107.857 10.7567 113.055 10.6834C114.965 10.6101 116.8 10.6101 118.711 10.5368C128.723 10.3902 138.735 10.2436 148.748 10.097C153.028 10.0237 157.308 9.95039 161.588 9.87709C165.256 9.80379 168.925 9.80379 172.594 9.6572C175.651 9.5839 178.632 9.4373 181.689 9.364C183.217 9.2907 184.746 9.2907 186.198 9.21741C189.638 8.99751 193.077 8.77761 196.516 8.55772C196.287 8.85091 196.287 9.2907 196.363 9.5839C196.44 9.95039 196.669 10.2436 197.051 10.3902C197.357 10.5368 197.816 10.6834 198.121 10.5368C198.886 10.2436 199.65 9.95039 200.338 9.6572C200.338 9.6572 200.338 9.6572 200.261 9.6572C200.338 9.6572 200.338 9.5839 200.414 9.5839C200.491 9.5839 200.567 9.5106 200.567 9.5106H200.491C200.873 9.364 201.255 9.21741 201.714 8.99751C202.096 8.85091 202.554 8.63102 202.936 8.48442C203.395 8.26453 203.777 8.04463 204.236 7.82473C204.694 7.60484 205 7.01845 205 6.50536C205 6.21217 204.924 5.99227 204.771 5.69908C204.618 5.40589 204.236 5.03939 203.854 4.9661C203.471 4.8928 203.089 4.8195 202.707 4.8195C202.631 4.8195 202.554 4.8195 202.478 4.8195C202.249 4.8195 201.943 4.8195 201.714 4.8928C201.102 4.9661 200.567 5.03939 199.956 5.03939C199.497 5.03939 199.038 5.11269 198.503 5.11269C197.204 5.18599 195.981 5.25929 194.682 5.40589C194.376 5.40589 193.994 5.47919 193.688 5.47919C193.841 5.33259 193.918 5.18599 193.918 5.03939C193.994 4.8928 193.994 4.7462 193.994 4.5996C193.994 4.52631 193.994 4.37971 194.07 4.30641C194.07 4.15981 194.071 4.01322 193.994 3.93992C193.994 3.93992 194.07 3.93992 194.07 3.86662C194.3 3.72002 194.529 3.57343 194.682 3.28023C194.835 3.06034 194.911 2.76714 194.911 2.47395C194.911 2.18076 194.835 1.96086 194.682 1.66767C194.606 1.59437 194.529 1.44777 194.453 1.37447C194.223 1.15458 193.994 1.08128 193.765 1.00798C193.306 0.861384 192.771 0.788086 192.236 0.788086C191.778 0.788086 191.395 0.788086 190.937 0.788086C190.325 0.788086 189.714 0.788086 189.103 0.788086C188.262 0.788086 187.345 0.788086 186.504 0.788086C184.211 0.788086 181.918 0.788086 179.625 0.788086C177.485 0.788086 175.269 0.788086 173.129 0.788086C171.142 0.788086 169.231 0.788086 167.244 0.788086C159.371 0.788086 151.575 0.861384 143.703 0.934683C137.818 1.00798 131.933 1.08128 126.048 1.08128C123.449 1.08128 120.774 1.15458 118.176 1.22788C112.29 1.37447 106.405 1.44777 100.52 1.59437C98.8388 1.59437 97.1573 1.66767 95.4758 1.66767C94.4823 1.66767 93.5651 1.74097 92.5715 1.74097C86.7628 1.96086 80.9541 2.18076 75.1455 2.40065C73.3876 2.47395 71.6297 2.54725 69.7954 2.62055C68.8018 2.62055 67.8082 2.69385 66.8146 2.76714C61.0059 3.06034 55.2737 3.35353 49.465 3.64672C46.4842 3.79332 43.5035 3.93992 40.5227 4.15981C35.4019 4.45301 30.2811 4.7462 25.2367 5.11269C20.8038 5.40589 16.3708 5.62578 11.9379 5.84568C11.25 5.91898 10.5621 5.91898 9.79785 5.99227C8.6514 6.06557 7.50495 6.06557 6.3585 6.13887C5.36491 6.43207 4.29489 6.43207 3.3013 6.43207C3.22487 6.13887 2.91915 5.91898 2.68986 5.99227C2.00199 5.99227 1.39055 6.06557 0.702683 6.13887C0.396963 6.21217 0.0912432 6.35877 0.0148133 6.65196C-0.0616167 7.01845 0.167673 7.38494 0.473393 7.45824C0.779113 7.53154 1.08483 7.60484 1.39055 7.67814C1.69627 7.75144 1.92556 7.75144 2.23128 7.75144C2.99558 7.82474 3.68345 7.82473 4.44775 7.82473ZM183.294 5.47919C184.211 5.47919 185.205 5.47919 186.122 5.47919C186.198 5.69908 186.351 5.84568 186.504 5.99227C186.122 5.99227 185.74 6.06557 185.434 6.06557C184.746 6.06557 184.058 6.13887 183.37 6.13887C180.313 6.21217 177.332 6.35877 174.275 6.43207C172.899 6.50536 171.524 6.57866 170.148 6.57866C168.008 6.57866 165.791 6.65196 163.651 6.65196C158.683 6.72526 153.792 6.79856 148.824 6.87186C139.194 7.01845 129.64 7.16505 120.01 7.31165C113.131 7.38494 106.252 7.60484 99.3738 7.82473C89.0557 8.11793 78.6612 8.33782 68.3432 8.63102C66.2796 8.70432 64.216 8.77761 62.1524 8.92421C56.2673 9.21741 50.3822 9.4373 44.4971 9.73049C38.7648 10.0237 32.9561 10.2436 27.2239 10.5368C26.6889 10.5368 26.1539 10.6101 25.6189 10.6101C27.1475 10.4635 28.7525 10.3902 30.2811 10.2436C35.7076 9.87709 41.1341 9.4373 46.5607 9.07081C48.4714 8.92421 50.3822 8.77761 52.2165 8.63102C53.2101 8.55772 54.2037 8.48442 55.1208 8.48442C60.8531 8.19123 66.5089 7.82474 72.1647 7.53154C73.2347 7.45824 74.3812 7.38494 75.4512 7.31165C77.0562 7.23835 78.6612 7.16505 80.1898 7.16505C85.9985 6.94515 91.8072 6.72526 97.6159 6.50536C98.9152 6.43207 100.215 6.43207 101.437 6.35877C101.743 6.35877 102.125 6.35877 102.431 6.35877C103.348 6.35877 104.265 6.35877 105.106 6.28547C110.915 6.13887 116.8 6.06557 122.608 5.91898C125.284 5.84568 127.959 5.77238 130.634 5.77238C139.27 5.69908 147.983 5.62578 156.62 5.55248C165.639 5.55248 174.504 5.47919 183.294 5.47919Z" fill="white"/>
</svg>
