<svg width="92" height="83" viewBox="0 0 92 83" fill="none" xmlns="http://www.w3.org/2000/svg">
<path d="M42.0517 1.81405C42.1678 3.58055 42.142 5.35994 41.9744 7.11355C41.9486 7.33275 41.9357 7.55195 41.897 7.75826C41.8841 7.86141 41.8712 7.96457 41.8583 8.06772C41.8454 8.22245 41.897 7.82274 41.8583 8.05483C41.8454 8.1193 41.8454 8.19666 41.8325 8.26114C41.768 8.69954 41.6907 9.13793 41.6133 9.57633C41.4457 10.4531 41.2265 11.33 40.9686 12.181C40.8397 12.5807 40.7107 12.9804 40.5689 13.3801C40.4915 13.5735 40.427 13.7669 40.3368 13.9604C40.3239 13.999 40.2723 14.0635 40.2723 14.1151C40.2723 13.9862 40.3497 13.9475 40.2981 14.0377C40.2465 14.1409 40.2078 14.244 40.1563 14.3472C39.8468 15.0306 39.4729 15.6882 39.0603 16.3071C38.97 16.4489 38.8669 16.5908 38.7637 16.7326C38.7121 16.81 38.6476 16.8873 38.5961 16.9647C38.5703 16.9905 38.5445 17.0292 38.5316 17.055C38.6605 16.8229 38.5832 16.9905 38.5445 17.0421C38.3124 17.3386 38.0545 17.6352 37.7967 17.9189C37.5388 18.1897 37.2809 18.4475 36.9972 18.7054C36.8683 18.8215 36.7265 18.9375 36.5846 19.0536C36.5201 19.1051 36.4557 19.1567 36.3912 19.2083C36.2881 19.2857 36.5846 19.0536 36.4299 19.1825C36.3783 19.2212 36.3396 19.247 36.288 19.2857C35.9528 19.5306 35.6046 19.7627 35.2436 19.9691C34.8825 20.1754 34.5087 20.3301 34.1347 20.5235C34.1476 20.5106 34.3539 20.4332 34.212 20.4848C34.1605 20.5106 34.1089 20.5235 34.0573 20.5493C33.9542 20.588 33.851 20.6266 33.735 20.6653C33.5416 20.7298 33.3482 20.7943 33.1418 20.8458C32.7421 20.9619 32.3295 21.0393 31.9169 21.0908C31.6977 21.1166 31.4398 21.3487 31.3367 21.5292C31.2335 21.7227 31.1948 21.929 31.2206 22.1482C31.2851 22.6123 31.6848 22.9863 32.1748 22.9863C33.1161 22.9734 34.0573 22.9734 34.9986 23.0379C35.2178 23.0508 35.4241 23.0765 35.6433 23.1023C35.6562 23.1023 35.8883 23.141 35.7336 23.1152C35.566 23.0894 35.798 23.1281 35.8238 23.1281C35.9399 23.141 36.0559 23.1668 36.172 23.1926C36.6362 23.2829 37.0875 23.3989 37.5259 23.5407C37.6032 23.5665 37.6935 23.6052 37.7708 23.631C37.8095 23.6439 37.8611 23.6697 37.8998 23.6826C37.9772 23.7084 38.0545 23.7857 37.8482 23.6568C38.003 23.7599 38.1964 23.8115 38.364 23.9018C38.6863 24.0694 38.9958 24.2499 39.2795 24.4562C39.3569 24.5078 39.4342 24.5594 39.5116 24.6238C39.5373 24.6496 39.5761 24.6754 39.6018 24.6883C39.7308 24.7786 39.5503 24.6496 39.5374 24.6367C39.6663 24.7657 39.8339 24.8817 39.9758 24.9978C40.2594 25.2557 40.5302 25.5135 40.7881 25.7972C40.9041 25.9262 41.0202 26.0551 41.1233 26.184C41.1749 26.2485 41.2265 26.313 41.291 26.3903C41.3684 26.4935 41.1491 26.1969 41.2652 26.3517C41.3039 26.4032 41.3296 26.4419 41.3683 26.4935C41.5875 26.7901 41.7809 27.0995 41.9744 27.409C42.1678 27.7313 42.3483 28.0666 42.5159 28.4018C42.5933 28.5695 42.6706 28.7371 42.748 28.9047C42.7609 28.9434 42.7738 28.9821 42.7996 29.0079C42.6964 28.7629 42.7609 28.9047 42.7867 28.9692C42.8253 29.0723 42.8641 29.1626 42.9028 29.2658C43.1993 30.0394 43.4185 30.8259 43.5861 31.6254C43.6377 31.8575 43.6764 32.0767 43.7151 32.3088C43.728 32.399 43.7408 32.5022 43.7666 32.5924C43.7795 32.6698 43.7924 32.7343 43.7924 32.8116C43.7924 32.773 43.7795 32.7343 43.7795 32.6956C43.7795 32.7472 43.7924 32.7859 43.7924 32.8374C43.844 33.3016 43.8956 33.7529 43.9214 34.2171C44.0632 36.3447 43.9343 38.4851 43.7924 40.5997C43.7667 41.0768 44.1793 41.4894 44.6306 41.5539C45.1077 41.6184 45.546 41.3218 45.6879 40.8576C46.7065 37.6212 46.8355 34.2042 47.5962 30.9162C47.7639 30.1812 47.9572 29.4463 48.2151 28.7242C48.2667 28.5695 48.3312 28.4147 48.3828 28.2729C48.4086 28.1955 48.4601 28.1182 48.4859 28.0279C48.4859 28.0408 48.3956 28.2471 48.4601 28.1053C48.473 28.0666 48.4988 28.015 48.5117 27.9763C48.6536 27.6669 48.7954 27.3703 48.9501 27.0737C49.2596 26.4806 49.6206 25.9133 50.0203 25.3846C50.0461 25.3588 50.0719 25.3201 50.0848 25.2943C49.9558 25.4878 49.9945 25.4104 50.0332 25.3588C50.0848 25.2943 50.1364 25.2299 50.188 25.1654C50.2911 25.0365 50.4071 24.9075 50.5232 24.7786C50.7424 24.5336 50.9745 24.3015 51.2066 24.0952C51.3484 23.9662 51.4774 23.8502 51.6321 23.7341C51.6579 23.7084 51.6837 23.6955 51.7224 23.6697C51.4903 23.8502 51.6579 23.7212 51.6966 23.6826C51.7739 23.631 51.8384 23.5794 51.9158 23.5278C52.1995 23.3344 52.496 23.1539 52.8055 22.9992C52.8828 22.9605 52.9731 22.9218 53.0504 22.8831C53.0891 22.8702 53.115 22.8573 53.1536 22.8444C53.3342 22.7671 52.9602 22.9218 53.1278 22.8573C53.2954 22.7929 53.4631 22.7284 53.6436 22.6768C53.8241 22.6253 53.9917 22.5737 54.1723 22.535C54.2496 22.5221 54.3399 22.4963 54.4172 22.4834C54.4946 22.4705 54.8556 22.4189 54.5204 22.4576C54.7782 22.4189 55.0233 22.3803 55.2038 22.174C55.3456 22.0192 55.4359 21.8387 55.4746 21.6195C55.5391 21.1811 55.2553 20.6524 54.7782 20.5622C54.4043 20.4848 54.0304 20.3945 53.6565 20.2785C53.4889 20.2269 53.3341 20.1625 53.1665 20.1109C53.0762 20.0722 52.986 20.0335 52.8958 20.0077C53.1923 20.1238 52.857 19.9819 52.7797 19.9561C52.0963 19.6338 51.4387 19.247 50.8327 18.7957C50.8069 18.7699 50.7682 18.7441 50.7424 18.7312C50.6135 18.628 50.794 18.7699 50.8069 18.7828C50.7424 18.7183 50.6522 18.6667 50.5748 18.6023C50.4201 18.4733 50.2782 18.3573 50.1363 18.2283C49.8527 17.9705 49.569 17.6997 49.3111 17.4031C49.0532 17.1194 48.8083 16.8358 48.5633 16.5392C48.5375 16.5005 48.5117 16.4618 48.473 16.4232C48.4859 16.436 48.6149 16.6037 48.5117 16.4747C48.4473 16.3974 48.3956 16.32 48.3312 16.2426C48.2151 16.0879 48.0991 15.9203 47.996 15.7655C47.5705 15.1337 47.1965 14.4632 46.8612 13.7798C46.7839 13.6122 46.7065 13.4575 46.6292 13.2899C46.6034 13.2512 46.5905 13.1996 46.5776 13.1609C46.5131 13.0191 46.6034 13.2125 46.6034 13.2254C46.5647 13.1093 46.5131 13.0062 46.4744 12.903C46.3326 12.5549 46.2036 12.1939 46.0747 11.8328C45.5331 10.2468 45.1334 8.60928 44.8111 6.95883C44.6306 6.04334 44.463 5.11496 44.3211 4.18658C44.2567 3.74818 44.1922 3.32267 44.1277 2.88427C44.1019 2.66507 44.0632 2.45876 44.0374 2.23956C44.0245 2.1622 43.9729 1.80116 44.0245 2.12351C44.0116 2.00746 43.9988 1.90431 43.9859 1.78826C43.9472 1.51749 43.8956 1.29828 43.7022 1.10487C43.5345 0.937243 43.2638 0.808307 43.0188 0.821202C42.7738 0.834096 42.503 0.911455 42.3354 1.10487C42.1677 1.31117 42.0131 1.56906 42.0517 1.81405C42.503 5.20521 43.0188 8.63506 44.0632 11.8973C45.069 15.0048 46.7065 17.9705 49.2725 20.0464C50.7295 21.2198 52.4058 22.1224 54.2496 22.4705C54.3399 21.8387 54.4173 21.2069 54.5075 20.5751C53.7081 20.6782 52.9731 20.8845 52.2252 21.2069C51.5676 21.4906 50.9616 21.8774 50.3942 22.3287C49.2853 23.1926 48.3699 24.3144 47.6478 25.5135C46.887 26.7643 46.3326 28.1439 45.9586 29.5623C45.5074 31.2386 45.2495 32.9664 44.9916 34.6813C44.7079 36.6154 44.4113 38.5496 43.8182 40.4192C44.45 40.5095 45.0819 40.5868 45.7137 40.6771C45.9587 36.8604 46.1779 32.8632 44.8885 29.1884C43.8182 26.1196 41.7164 23.2442 38.6605 21.9547C36.6104 21.0908 34.3668 21.0651 32.1748 21.0908C32.265 21.7227 32.3424 22.3545 32.4327 22.9863C35.682 22.535 38.4542 20.4332 40.3497 17.8544C42.4514 14.9919 43.367 11.3944 43.8054 7.913C44.0632 5.88861 44.1148 3.85132 43.973 1.82694C43.9343 1.32407 43.5474 0.834086 43.0059 0.859875C42.5159 0.872769 42.0131 1.27249 42.0517 1.81405Z" fill="#231F20"/>
<path d="M6.24441 28.0279C6.46362 28.995 6.65703 29.9749 6.82465 30.9549C6.91491 31.4319 6.99231 31.909 7.05679 32.3861C7.09547 32.6311 7.13413 32.8632 7.15991 33.1082C7.17281 33.2113 7.18568 33.3274 7.19857 33.4305C7.22436 33.6111 7.19857 33.4434 7.19857 33.4176C7.21146 33.495 7.22438 33.5724 7.22438 33.6626C7.48227 35.6097 7.63697 37.5567 7.71434 39.5166C7.75302 40.3547 7.75307 41.18 7.70149 42.0181C7.6886 42.2115 7.67566 42.4049 7.64987 42.5983C7.63697 42.7015 7.6241 42.8046 7.61121 42.9078C7.59832 43.0109 7.637 43.0883 7.61121 42.882C7.6241 42.9464 7.5854 43.0238 7.5854 43.0883C7.52093 43.488 7.44356 43.8748 7.32751 44.2616C7.27594 44.4551 7.21148 44.6356 7.14701 44.829C7.12122 44.9064 7.06968 44.9966 7.05679 45.074C7.10836 44.8806 7.10832 44.9708 7.08254 45.0224C7.05675 45.0869 7.03095 45.1385 7.00516 45.2029C6.82464 45.5769 6.61835 45.925 6.37336 46.2602C6.30889 46.3376 6.25732 46.4279 6.19285 46.5052C6.20574 46.4794 6.32182 46.3376 6.21866 46.4666C6.19288 46.5052 6.16706 46.5439 6.12838 46.5697C5.99944 46.7373 5.85758 46.905 5.71574 47.0726C5.44496 47.382 5.14843 47.6915 4.85187 47.9881C4.52951 48.3104 4.19423 48.607 3.84608 48.9035C3.66557 49.0583 3.48507 49.213 3.29166 49.3548C3.25298 49.3935 3.2014 49.4322 3.16272 49.458C3.13693 49.4709 2.9822 49.5998 3.09825 49.5096C3.22719 49.4193 3.04667 49.5483 3.03378 49.5612C2.9822 49.5998 2.91775 49.6385 2.86618 49.6901C2.09253 50.2575 1.29309 50.7861 0.480755 51.289C0.132613 51.5082 -0.099533 51.9724 0.042303 52.385C0.171245 52.7718 0.545201 53.1199 0.970709 53.0942C1.78304 53.0426 2.59537 53.0039 3.4206 53.0426C3.96216 53.0684 4.50371 53.12 5.03237 53.1844C5.32894 53.2102 5.61259 53.236 5.90915 53.2618C5.99941 53.2618 6.08968 53.2747 6.17994 53.2876C6.20573 53.2876 6.21863 53.2876 6.24441 53.3005C6.34757 53.3134 6.32177 53.3134 6.16704 53.2876C6.19282 53.3005 6.25735 53.3005 6.28313 53.3005C6.48944 53.3392 6.69572 53.3778 6.90203 53.4423C7.08255 53.4939 7.26308 53.5584 7.4307 53.6228C7.48228 53.6357 7.52098 53.6615 7.57255 53.6744C7.70149 53.726 7.34042 53.5712 7.53383 53.6615C7.63699 53.7131 7.72728 53.7518 7.83044 53.8033C8.19147 53.9839 8.52671 54.1902 8.84906 54.4223C8.88775 54.4481 8.92642 54.4867 8.9651 54.5125C9.10693 54.6157 8.92643 54.4867 8.91353 54.4738C8.95222 54.5383 9.09403 54.6157 9.1456 54.6673C9.31323 54.8091 9.46798 54.9509 9.62271 55.0928C9.91928 55.3764 10.2159 55.6859 10.4737 55.9953C10.6027 56.1501 10.7316 56.3048 10.8477 56.4595C10.7187 56.279 10.9895 56.6401 10.8477 56.4595C10.8734 56.4982 10.8993 56.524 10.925 56.5627C11.0024 56.6658 11.0797 56.769 11.1442 56.8722C11.3892 57.2203 11.6213 57.5684 11.8405 57.9295C12.3176 58.716 12.756 59.5412 13.1557 60.3665C13.3749 60.8178 13.5941 61.282 13.8004 61.7333C13.852 61.8364 13.8907 61.9396 13.9423 62.0427C13.9681 62.0943 13.9939 62.1588 14.0196 62.2104C14.0841 62.378 14.0196 62.2232 14.0067 62.1846C14.1228 62.4424 14.213 62.7003 14.3162 62.9582C15.1543 65.0728 15.799 67.252 16.2503 69.4827C16.3406 69.9598 16.8693 70.2305 17.3077 70.1789C17.8234 70.1145 18.0942 69.7148 18.1458 69.2248C18.5971 65.3436 17.6171 61.4883 17.8492 57.5942C17.8621 57.2848 17.9008 56.9753 17.9265 56.6787C17.9394 56.6014 17.9524 56.524 17.9524 56.4466C17.9653 56.3177 17.9137 56.7174 17.9395 56.524C17.9395 56.4853 17.9524 56.4595 17.9524 56.4209C17.9782 56.2532 18.0039 56.0856 18.0297 55.918C18.1457 55.2604 18.3005 54.6028 18.481 53.971C18.5841 53.6357 18.6873 53.3005 18.8033 52.9652C18.8549 52.8105 18.9065 52.6687 18.971 52.5268C18.9968 52.4495 19.0354 52.3721 19.0612 52.2947C19.1257 52.1529 19.0354 52.3592 19.0226 52.3721C19.0483 52.3205 19.0612 52.2689 19.087 52.2174C19.3578 51.6113 19.6673 51.0182 20.0412 50.4638C20.1314 50.3219 20.2346 50.1801 20.3378 50.0382C20.3507 50.0125 20.4667 49.8706 20.3506 50.0125C20.2475 50.1543 20.3636 49.9996 20.3894 49.9738C20.4409 49.9093 20.4925 49.8448 20.5569 49.7804C20.7761 49.5225 21.0212 49.2775 21.279 49.0583C21.3435 48.9938 21.4209 48.9422 21.4854 48.8907C21.5756 48.8133 21.3048 49.0196 21.408 48.9551C21.4467 48.9293 21.4853 48.9036 21.524 48.8649C21.6658 48.7746 21.7948 48.6844 21.9496 48.5941C22.0914 48.5167 22.2332 48.4394 22.375 48.3749C22.4008 48.362 22.5556 48.2975 22.3879 48.362C22.2332 48.4265 22.3622 48.3749 22.4009 48.362C22.4911 48.3233 22.5813 48.2975 22.6716 48.2717C23.0584 48.1428 23.4065 47.7689 23.3808 47.3434C23.355 46.905 23.0971 46.5568 22.6716 46.415C21.0211 45.8605 19.2934 45.6284 17.63 45.0998C17.4366 45.0353 17.2432 44.9708 17.0498 44.8935C17.0111 44.8806 16.9724 44.8677 16.9337 44.8548C16.9079 44.8419 16.7403 44.7516 16.8821 44.829C17.0239 44.9064 16.8563 44.8161 16.8305 44.8032C16.779 44.7774 16.7145 44.7516 16.6629 44.7258C16.289 44.5582 15.9408 44.3519 15.6056 44.1198C15.554 44.0811 15.5024 44.0425 15.4508 44.0167C15.3348 43.9393 15.4767 44.0553 15.5025 44.0553C15.4638 44.0682 15.2961 43.8877 15.2574 43.849C15.0898 43.6943 14.9222 43.5396 14.7675 43.372C14.6385 43.2301 14.5096 43.0754 14.3807 42.9207C14.3162 42.8433 14.2517 42.7659 14.1872 42.6886C14.3549 42.882 14.2517 42.7659 14.2131 42.7143C14.1744 42.6628 14.1357 42.5983 14.0841 42.5467C13.6199 41.9149 13.2331 41.2444 12.8849 40.5481C12.7947 40.3676 12.7173 40.2 12.6399 40.0195C12.6013 39.9421 12.5626 39.8647 12.5368 39.7745C12.511 39.7358 12.4981 39.6842 12.4723 39.6455C12.395 39.465 12.5497 39.8261 12.4723 39.6584C12.3176 39.2845 12.1757 38.8977 12.0339 38.5237C11.4536 36.9249 11.0024 35.2744 10.4995 33.6497C9.80321 31.4577 8.99089 29.3044 7.93356 27.2671C7.70147 26.8158 7.031 26.6482 6.60549 26.919C6.1413 27.2155 6.01233 27.7571 6.25732 28.2471C6.5152 28.7371 6.76022 29.2399 6.99231 29.7428C7.09547 29.9749 7.2115 30.207 7.30176 30.4391C7.28887 30.4133 7.22438 30.2457 7.28886 30.4133C7.31464 30.4649 7.34044 30.5294 7.36623 30.5809C7.41781 30.7099 7.46935 30.8388 7.52093 30.9549C7.88196 31.8575 8.20433 32.7729 8.5009 33.7013C9.04245 35.3647 9.50667 37.0538 10.074 38.7043C10.6156 40.2774 11.2732 41.8375 12.2145 43.2172C12.7173 43.9522 13.2846 44.7001 13.9809 45.2674C14.7288 45.8992 15.554 46.3505 16.4695 46.6986C18.3005 47.4078 20.2862 47.6141 22.143 48.2331C22.143 47.6141 22.143 46.9952 22.143 46.3634C19.332 47.266 17.7202 50.064 16.8305 52.6944C16.3664 54.0483 16.0827 55.4667 15.9409 56.885C15.7603 58.716 15.8893 60.5728 16.044 62.4038C16.2245 64.6602 16.4437 66.9167 16.1858 69.1732C16.8177 69.0829 17.4495 69.0056 18.0813 68.9153C17.6687 66.8909 17.0884 64.8923 16.3663 62.9582C15.6314 61.0112 14.7675 59.09 13.723 57.2848C12.8333 55.7633 11.7631 54.2804 10.3964 53.1586C9.6485 52.5526 8.87481 52.0626 7.97222 51.7145C7.17278 51.3921 6.33469 51.3019 5.48367 51.2245C4.86475 51.1729 4.25875 51.0956 3.63983 51.0569C2.72434 51.0053 1.82172 51.044 0.906238 51.0956C1.07386 51.7016 1.22857 52.2947 1.39619 52.9007C2.9177 51.9595 4.40055 50.9279 5.72865 49.703C7.04385 48.4781 8.26884 47.0726 8.92644 45.3834C9.55826 43.7588 9.6614 41.9407 9.62271 40.2C9.58403 38.2272 9.42926 36.2544 9.19717 34.3073C8.92639 32.0122 8.53957 29.717 8.03669 27.4605C7.92064 26.9706 7.32755 26.6353 6.85047 26.79C6.39917 27.0092 6.11547 27.4992 6.24441 28.0279Z" fill="white"/>
<path d="M41.8474 50.0833C42.0279 50.7925 42.1698 51.5017 42.273 52.2367C42.2601 52.1464 42.2471 52.0691 42.2342 51.9788C42.4276 53.4101 42.4535 54.88 42.26 56.3112C42.2729 56.221 42.2858 56.1436 42.2987 56.0534C42.144 57.2138 41.8474 58.3485 41.3961 59.4187C41.4348 59.3414 41.4606 59.264 41.4993 59.1866C41.2801 59.7024 41.0351 60.2053 40.7386 60.6824C40.5967 60.9274 40.4291 61.1723 40.2614 61.4044C40.1841 61.5076 40.1067 61.6107 40.0294 61.7139C40.2357 61.4431 40.068 61.6623 40.0165 61.7268C39.9649 61.7913 39.9133 61.8557 39.8617 61.9073C39.5007 62.3457 39.0881 62.7454 38.6626 63.1194C38.5594 63.2096 38.4434 63.2999 38.3402 63.3901C38.2758 63.4417 38.0565 63.6093 38.3273 63.403C38.2629 63.4417 38.2113 63.4933 38.1468 63.5449C37.9018 63.7254 37.644 63.893 37.3861 64.0606C36.8961 64.3572 36.4061 64.6151 35.8774 64.8343C35.9548 64.7956 36.0321 64.7698 36.1095 64.7311C35.7356 64.8859 35.3617 65.0406 34.9877 65.2082C34.7299 65.3243 34.4849 65.4274 34.2915 65.6208C33.8531 66.0334 33.9304 66.7426 34.3817 67.0908C34.6138 67.2713 34.9233 67.3229 35.1941 67.4002C35.6583 67.5421 36.1224 67.7097 36.5737 67.9031C36.4963 67.8644 36.419 67.8386 36.3416 67.7999C37.5666 68.3286 38.7528 68.9862 39.8102 69.7857C39.8359 69.8114 39.8617 69.8243 39.8875 69.8501C39.6683 69.6825 39.7586 69.7599 39.8102 69.7857C39.8746 69.8372 39.9262 69.8759 39.9907 69.9275C40.1067 70.0177 40.2228 70.1209 40.3259 70.2112C40.5193 70.3917 40.7127 70.5722 40.8933 70.7785C40.9835 70.8688 41.0609 70.9719 41.1511 71.0751C41.1898 71.1266 41.2285 71.1782 41.2672 71.2298C41.3059 71.2814 41.3704 71.3716 41.1899 71.1395C41.2156 71.1782 41.2414 71.204 41.2672 71.2427C41.4219 71.449 41.5767 71.6682 41.7056 71.9003C42.0409 72.429 42.3116 72.9963 42.5695 73.5765C42.5308 73.4992 42.505 73.4218 42.4664 73.3444C43.3947 75.5622 43.8202 77.9477 44.2328 80.3073C44.336 80.9391 44.452 81.5709 44.5681 82.2028C44.6068 82.422 44.826 82.6798 45.0065 82.783C45.1999 82.8861 45.4062 82.9248 45.6254 82.899C46.1025 82.8346 46.4507 82.4348 46.4636 81.9449C46.5022 80.8746 46.5409 79.8044 46.5796 78.7213C46.6183 77.6898 46.6183 76.6453 46.7601 75.6138C46.7472 75.7041 46.7343 75.7814 46.7214 75.8717C46.8504 74.982 47.0438 74.0923 47.2759 73.2284C47.3919 72.8029 47.5208 72.3774 47.6498 71.9519C47.7658 71.6037 47.869 71.2427 48.0109 70.8945C47.9722 70.9719 47.9464 71.0493 47.9077 71.1266C48.0882 70.714 48.3203 70.3272 48.5911 69.9662C48.6298 69.9146 48.6685 69.863 48.7071 69.7985C48.7974 69.6825 48.5395 70.0049 48.6813 69.8243C48.7716 69.7083 48.8619 69.6051 48.9521 69.4891C49.1197 69.2828 49.3003 69.0894 49.4808 68.896C49.8676 68.4962 50.2802 68.1094 50.7057 67.7355C50.8089 67.6452 50.912 67.5679 51.0152 67.4776C51.0668 67.4389 51.1184 67.4002 51.1699 67.3486C51.1957 67.3229 51.2215 67.2971 51.2602 67.2842C51.2215 67.31 51.0668 67.4389 51.1828 67.3358C51.3891 67.181 51.6083 67.0263 51.8146 66.8716C52.2402 66.5879 52.6785 66.3171 53.1556 66.1237C53.0783 66.1624 53.0009 66.1882 52.9236 66.2269C52.9622 66.214 53.0009 66.2011 53.0396 66.1753C53.2717 66.085 53.4909 65.9561 53.6198 65.7369C53.723 65.5435 53.7617 65.3372 53.7359 65.118C53.6714 64.6409 53.2717 64.2798 52.7817 64.2798C52.5625 64.2798 52.3433 64.2669 52.137 64.2412C52.2273 64.2541 52.3046 64.267 52.3949 64.2798C51.9694 64.2154 51.5438 64.0993 51.1441 63.9317C51.2215 63.9704 51.2989 63.9962 51.3763 64.0349C51.1313 63.9317 50.8991 63.8156 50.6799 63.6738C50.5639 63.6093 50.4608 63.532 50.3447 63.4675C50.2931 63.4288 50.2286 63.3901 50.1771 63.3515C50.1513 63.3386 50.1255 63.3128 50.0997 63.2999C50.0868 63.287 50.0739 63.2741 50.061 63.2741C49.9708 63.1967 50.19 63.3772 50.1771 63.3643C49.7387 63.0033 49.326 62.6165 48.9392 62.191C48.8489 62.0749 48.7458 61.9718 48.6556 61.8557C48.6169 61.8042 48.5653 61.7397 48.5266 61.6881C48.4235 61.5592 48.6298 61.8171 48.5911 61.7655C48.5653 61.7268 48.5395 61.701 48.5137 61.6623C48.3203 61.4173 48.1527 61.1594 47.9721 60.9016C47.6111 60.36 47.2888 59.7927 46.9922 59.2124C46.6441 58.5419 46.3217 57.8456 46.0252 57.1494C46.0639 57.2267 46.0896 57.3041 46.1283 57.3815C45.2644 55.3313 44.5939 53.1908 44.0394 51.0246C43.9105 50.5218 43.7945 50.0318 43.6784 49.5289C43.5624 49.0389 42.9692 48.7037 42.4921 48.8584C42.0021 49.0647 41.7185 49.5547 41.8474 50.0833C42.1182 51.2567 42.4148 52.4301 42.7629 53.5906C43.1626 54.9445 43.6269 56.2983 44.1555 57.6135C44.7229 58.9932 45.3547 60.36 46.1541 61.6236C46.8633 62.7583 47.7143 63.8672 48.7587 64.7053C49.2616 65.1051 49.7902 65.479 50.3834 65.7369C51.041 66.0205 51.6857 66.2011 52.4078 66.2655C52.5496 66.2784 52.6914 66.2784 52.8204 66.2784C52.7301 65.6466 52.6527 65.0148 52.5625 64.383C51.5052 64.7956 50.5897 65.4403 49.7129 66.1495C48.8361 66.8587 48.0109 67.6581 47.3146 68.5478C46.9664 68.9862 46.6441 69.4246 46.3862 69.9275C46.0896 70.5206 45.8962 71.1653 45.7028 71.7971C45.2386 73.3315 44.8646 74.8917 44.7486 76.4906C44.6841 77.3932 44.6713 78.3087 44.6455 79.2113C44.6197 80.1397 44.581 81.0552 44.5552 81.9835C45.187 81.8933 45.8188 81.8159 46.4507 81.7257C45.9865 79.1597 45.6383 76.5551 44.8131 74.0794C44.3876 72.8287 43.8589 71.5779 43.0853 70.4948C42.6984 69.9404 42.2601 69.4246 41.7701 68.9604C41.2027 68.4447 40.5709 67.9805 39.9262 67.5679C39.217 67.1037 38.4692 66.6911 37.6955 66.3429C37.2571 66.1366 36.8058 65.9561 36.3416 65.7885C35.9677 65.6595 35.5937 65.5564 35.2198 65.4403C35.2972 65.479 35.3746 65.5048 35.4519 65.5435C35.568 65.6595 35.6711 65.7627 35.7871 65.8787C35.8258 65.9561 35.8517 66.0334 35.8903 66.1108C35.9032 66.2011 35.9161 66.2784 35.929 66.3687C35.9161 66.459 35.9032 66.5363 35.8903 66.6266C35.8517 66.7039 35.8258 66.7813 35.7871 66.8587C35.7098 66.9747 35.6067 67.1166 35.4906 67.1681C35.5164 67.1552 35.5293 67.1423 35.5551 67.1295C35.6195 67.0908 35.684 67.065 35.7485 67.0263C35.929 66.936 36.1224 66.8587 36.3158 66.7813C36.2385 66.82 36.1611 66.8458 36.0837 66.8845C36.6124 66.6653 37.1539 66.4461 37.6697 66.1753C38.2628 65.8658 38.8173 65.5048 39.3459 65.1051C40.4677 64.2411 41.4348 63.2225 42.1956 62.0363C43.6655 59.7798 44.3102 57.0462 44.3231 54.3771C44.3231 52.7782 44.1039 51.1665 43.7171 49.6192C43.5881 49.1292 43.0208 48.781 42.5308 48.9487C42.0151 49.0647 41.7056 49.5547 41.8474 50.0833Z" fill="#231F20"/>
<path d="M70.0302 19.7883C70.1334 20.2654 70.2236 20.7425 70.301 21.2195C70.3397 21.4516 70.3783 21.6966 70.417 21.9416C70.4299 22.019 70.4944 22.38 70.4428 22.0964C70.4686 22.2382 70.4815 22.38 70.4944 22.509C70.6105 23.4889 70.7007 24.4818 70.7523 25.4746C70.8554 27.4732 70.8425 29.4847 70.7007 31.4704C70.662 31.9604 70.6233 32.4504 70.5846 32.9532C70.5588 33.1724 70.5459 33.4045 70.5202 33.6237C70.5073 33.7269 70.4944 33.83 70.4815 33.9461C70.4815 33.9977 70.4686 34.0493 70.4686 34.0879C70.4557 34.1653 70.4686 34.1266 70.4815 33.9719C70.4815 34.0106 70.4686 34.0493 70.4686 34.0879C70.3525 34.9132 70.172 35.7255 69.9528 36.5249C69.8368 36.9246 69.7078 37.3244 69.566 37.7112C69.4886 37.9046 69.4241 38.098 69.3468 38.2914C69.3339 38.343 69.3081 38.3817 69.2952 38.4333C69.3726 38.1883 69.3339 38.3301 69.3081 38.3946C69.2565 38.4977 69.2178 38.6138 69.1663 38.7169C68.8181 39.4777 68.4184 40.1998 67.9413 40.8961C67.8124 41.0895 67.6706 41.2829 67.5287 41.4634C67.4901 41.515 67.4127 41.5794 67.5674 41.4118C67.5287 41.4634 67.4771 41.515 67.4385 41.5666C67.3611 41.6568 67.2966 41.7471 67.2192 41.8373C66.9227 42.1855 66.6132 42.5078 66.278 42.8302C66.1104 42.9849 65.9427 43.1396 65.7622 43.2944C65.672 43.3717 65.5688 43.4362 65.4914 43.5136C65.659 43.346 65.5946 43.4362 65.5301 43.4878C65.4786 43.5265 65.427 43.5651 65.3625 43.6038C64.9886 43.8746 64.5889 44.1325 64.1763 44.3517C63.8152 44.5451 63.6089 45.048 63.7378 45.4477C63.7894 45.6024 63.8668 45.7572 63.9828 45.8732C64.1247 46.0279 64.447 46.1827 64.6662 46.1569C65.5301 46.0537 66.394 46.0022 67.258 46.0279C67.6835 46.0408 68.096 46.0666 68.5216 46.1053C68.6247 46.1182 68.7408 46.1311 68.8439 46.144C68.9213 46.1569 69.3081 46.2085 68.9729 46.1569C69.1921 46.1956 69.4113 46.2213 69.6305 46.26C70.4686 46.4019 71.3067 46.6082 72.119 46.8661C72.5316 46.995 72.9442 47.1368 73.344 47.3045C73.4342 47.3432 73.5116 47.3689 73.6018 47.4076C73.6534 47.4334 73.705 47.4463 73.7566 47.4721C73.4858 47.3689 73.6663 47.4334 73.7308 47.4592C73.9371 47.5495 74.1305 47.6397 74.3368 47.73C75.1234 48.1039 75.8842 48.5165 76.6062 48.9807C76.9673 49.2128 77.3154 49.4449 77.6507 49.7028C77.7409 49.7673 77.8311 49.8317 77.9214 49.8962C77.9601 49.9349 78.0117 49.9607 78.0503 49.9993C77.844 49.8446 77.9343 49.9091 77.9859 49.9478C78.1793 50.1025 78.3598 50.2443 78.5404 50.3991C79.1851 50.9406 79.8039 51.5338 80.3713 52.1527C80.6679 52.475 80.9516 52.8103 81.2352 53.1584C81.2868 53.2358 81.3512 53.3003 81.4028 53.3776C81.1965 53.1326 81.4415 53.4292 81.4802 53.4937C81.6091 53.6742 81.7381 53.8547 81.867 54.0352C82.4086 54.8218 82.8986 55.647 83.3112 56.498C83.4144 56.7172 83.5175 56.9364 83.6077 57.1427C83.6851 57.3232 83.5175 56.9235 83.5948 57.1169C83.6206 57.1814 83.6464 57.2588 83.6722 57.3232C83.7109 57.4264 83.7496 57.5295 83.7882 57.6327C83.9688 58.0969 84.1235 58.574 84.2525 59.0511C84.3943 59.541 84.9488 59.8892 85.4387 59.7215C85.6708 59.6442 85.9029 59.5023 86.019 59.2831C86.1479 59.0382 86.1608 58.8061 86.1221 58.5353C86.1221 58.5224 86.0834 58.2774 86.1092 58.4321C86.135 58.5869 86.0964 58.3548 86.0964 58.3419C86.0835 58.2516 86.0705 58.1614 86.0576 58.0711C86.0318 57.8648 86.0061 57.6585 85.9932 57.4522C85.9674 57.1298 85.9416 56.8075 85.9287 56.4851C85.9158 55.9822 85.9287 55.4665 85.9158 54.9636C85.9158 54.3318 85.8771 53.7129 85.8127 53.081C85.7611 52.604 85.6966 52.1269 85.6322 51.6498C85.5935 51.3661 85.5548 51.0825 85.5161 50.7859C85.5032 50.7343 85.5032 50.6827 85.4903 50.6312C85.4516 50.3862 85.5161 50.7859 85.4903 50.6312C85.4774 50.4893 85.4516 50.3604 85.4387 50.2185C85.3227 49.3031 85.2196 48.3747 85.1938 47.4463C85.1809 46.9692 85.1808 46.505 85.2195 46.0279C85.2324 45.8087 85.2453 45.5766 85.284 45.3574C85.2324 45.6282 85.3098 45.2285 85.3098 45.1769C85.3356 45.048 85.3485 44.9319 85.3743 44.803C85.4516 44.4033 85.5677 44.0165 85.6966 43.6425C85.7482 43.4749 85.8127 43.3073 85.8771 43.1396C85.9029 43.0623 85.9287 42.9849 85.9674 42.9204C85.9803 42.8689 86.0061 42.8302 86.019 42.7786C86.1092 42.5723 85.9803 42.8818 86.019 42.7915C86.3284 42.1081 86.6766 41.4505 87.0892 40.8316C87.2052 40.664 87.3728 40.4834 87.476 40.3029C87.4631 40.3158 87.3342 40.4834 87.4373 40.3545C87.476 40.3029 87.5147 40.2642 87.5534 40.2127C87.6178 40.1353 87.6823 40.0579 87.7468 39.9806C88.0176 39.6711 88.3013 39.3745 88.6107 39.0909C88.7655 38.949 88.9331 38.8072 89.1007 38.6654C89.2296 38.5622 89.062 38.704 89.0491 38.704C89.1007 38.6783 89.1394 38.6267 89.191 38.6009C89.2812 38.5364 89.3715 38.472 89.4488 38.4075C89.797 38.1625 90.158 37.9562 90.5448 37.7628C90.9059 37.5823 91.1122 37.0536 90.9832 36.6668C90.8414 36.2413 90.4932 35.9834 90.0548 35.9576C89.6035 35.9318 89.1522 35.8931 88.7009 35.8415C88.5978 35.8286 88.4946 35.8157 88.3915 35.8029C88.3399 35.8029 88.2883 35.7771 88.2367 35.7771C88.4946 35.7642 88.327 35.79 88.2496 35.7771C88.0176 35.7384 87.7855 35.7126 87.5663 35.6739C86.6895 35.5192 85.8256 35.3258 84.9874 35.0808C84.5619 34.9518 84.1493 34.8229 83.7367 34.6682C83.5433 34.5908 83.3498 34.5263 83.1435 34.449C83.1178 34.4361 82.847 34.3329 82.847 34.3329C82.7954 34.3071 82.731 34.2813 82.6794 34.2556C81.8671 33.8945 81.0934 33.4819 80.3455 33.0048C79.9716 32.7598 79.5977 32.5148 79.2495 32.2441C79.2109 32.2183 79.185 32.1925 79.1463 32.1667C79.185 32.2054 79.3655 32.3214 79.1463 32.1667C79.069 32.1022 78.9787 32.0378 78.9014 31.9733C78.7209 31.8315 78.5532 31.6767 78.3856 31.522C78.0632 31.2254 77.7409 30.916 77.4444 30.5936C77.1349 30.2584 76.8641 29.8973 76.5675 29.5621C76.748 29.7684 76.5289 29.5105 76.4902 29.446C76.4257 29.3558 76.3613 29.2784 76.2968 29.1881C76.1549 28.9947 76.026 28.8013 75.8971 28.6079C75.6392 28.2211 75.4071 27.8214 75.175 27.4216C74.7237 26.6222 74.3239 25.797 73.95 24.946C73.9371 24.9073 73.9113 24.8686 73.8985 24.8299C73.8856 24.7912 73.8598 24.7525 73.8469 24.7139C73.8985 24.8428 73.9113 24.8557 73.8726 24.7654C73.8211 24.6494 73.7695 24.5204 73.7179 24.4044C73.6277 24.1723 73.5374 23.9402 73.4472 23.7081C73.2666 23.231 73.0861 22.7411 72.9185 22.264C72.5703 21.2711 72.248 20.2783 71.9256 19.2854C71.7709 18.8083 71.2423 18.4473 70.7394 18.6149C70.2236 18.7568 69.8626 19.2725 70.0302 19.7883C71.1907 23.4116 72.4027 27.1509 74.6592 30.2584C75.8068 31.8443 77.1865 33.2111 78.8111 34.3329C80.3456 35.3902 82.0605 36.1897 83.827 36.7699C85.8385 37.4275 87.9402 37.7886 90.0548 37.9046C89.8872 37.2986 89.7325 36.7055 89.5649 36.0994C86.6379 37.5565 84.6006 40.4577 83.7109 43.5652C83.1694 45.4606 83.1951 47.4334 83.4143 49.3675C83.4788 49.9091 83.5433 50.4378 83.6206 50.9793C83.6335 51.1082 83.6593 51.2243 83.6722 51.3532C83.6851 51.4048 83.6851 51.4564 83.698 51.508C83.7367 51.753 83.6722 51.3532 83.698 51.5209C83.7367 51.7658 83.7625 52.0237 83.8012 52.2687C83.8914 53.0295 83.9817 53.7902 83.9946 54.551C84.0075 55.1312 83.9946 55.7115 84.0075 56.2917C84.0333 57.2072 84.1364 58.1227 84.2654 59.0382C84.8843 58.8705 85.5032 58.69 86.135 58.5224C85.1422 55.0152 83.0791 51.8432 80.3713 49.432C77.6635 47.0079 74.3111 45.2414 70.7523 44.5064C68.7666 44.0938 66.7035 43.9649 64.692 44.2228C64.8596 44.8288 65.0144 45.4219 65.182 46.0279C68.3539 44.2872 70.4944 41.1539 71.6162 37.7757C72.1964 36.0221 72.4543 34.204 72.5961 32.3601C72.7638 30.3228 72.8153 28.2856 72.738 26.2483C72.6477 23.9144 72.4027 21.5806 71.9256 19.2983C71.8225 18.8083 71.2165 18.4731 70.7394 18.6278C70.1849 18.7697 69.927 19.2596 70.0302 19.7883Z" fill="#FEF08A"/>
</svg>
