<svg width="20" height="20" viewBox="0 0 20 20" fill="none" xmlns="http://www.w3.org/2000/svg">
<rect x="8.29102" y="8.68896" width="5.79407" height="2.89703" transform="rotate(44.7835 8.29102 8.68896)" fill="white"/>
<path d="M16.7719 11.2326C16.7382 11.0731 16.6603 10.9263 16.5472 10.8089C16.4341 10.6916 16.2902 10.6084 16.1321 10.5689L13.1967 9.82413L13.7261 6.55217C13.7494 6.39831 13.7315 6.24101 13.6743 6.09631C13.617 5.95161 13.5224 5.82466 13.4001 5.72841C13.2779 5.63216 13.1323 5.57003 12.9782 5.54836C12.824 5.52669 12.667 5.54625 12.5229 5.60505L9.46675 6.88806L8.05348 4.20962C7.97761 4.06508 7.86281 3.94464 7.72207 3.86193C7.58134 3.77921 7.42026 3.73752 7.25707 3.74156C7.09388 3.7456 6.93506 3.79521 6.79859 3.88478C6.66212 3.97436 6.55342 4.10033 6.4848 4.24845L3.91295 9.76143C3.86289 9.86795 3.83499 9.98353 3.83092 10.1012C3.82686 10.2188 3.84672 10.336 3.88929 10.4457C3.9463 10.5951 4.04266 10.7263 4.16816 10.8253C4.22932 10.8733 4.2969 10.9124 4.36893 10.9416C6.79141 11.9576 8.89287 13.6118 10.4494 15.728C10.5935 15.9187 10.8073 16.0445 11.044 16.0777C11.1607 16.0943 11.2796 16.0866 11.3931 16.055C11.5066 16.0233 11.6124 15.9685 11.7037 15.894L16.4628 12.1028C16.5903 12.001 16.6869 11.8656 16.7415 11.7118C16.7961 11.558 16.8067 11.392 16.7719 11.2326ZM10.7234 12.6656C10.6472 12.7428 10.5453 12.7895 10.4371 12.7966C10.3288 12.8038 10.2217 12.7709 10.136 12.7043L10.1017 12.6773C9.28117 11.8853 8.38281 11.1781 7.42025 10.5666C7.32207 10.5049 7.25239 10.4068 7.22652 10.2937C7.20065 10.1807 7.2207 10.062 7.28226 9.9638C7.3455 9.86613 7.44462 9.79727 7.55821 9.77208C7.6718 9.74689 7.79073 9.76741 7.88932 9.82919C8.90416 10.468 9.849 11.2117 10.7082 12.0482C10.7906 12.1289 10.8383 12.2385 10.8411 12.3538C10.844 12.4691 10.8017 12.5809 10.7234 12.6656Z" fill="#FFA800"/>
</svg>
