<svg width="24" height="24" viewBox="0 0 24 24" fill="none" xmlns="http://www.w3.org/2000/svg">
<path d="M19.8807 4.40921C18.4591 3.75695 16.9347 3.27639 15.3409 3.00115C15.3119 2.99584 15.2829 3.00912 15.2679 3.03567C15.0719 3.38436 14.8547 3.83925 14.7027 4.19679C12.9884 3.94015 11.2829 3.94015 9.60379 4.19679C9.45168 3.8313 9.22664 3.38436 9.02971 3.03567C9.01476 3.01 8.98576 2.99673 8.95674 3.00115C7.36378 3.27551 5.8394 3.75607 4.41699 4.40921C4.40467 4.41452 4.39412 4.42337 4.38711 4.43487C1.49568 8.75461 0.703599 12.9682 1.09217 17.1295C1.09393 17.1498 1.10535 17.1693 1.12118 17.1817C3.02886 18.5827 4.87678 19.4332 6.69038 19.9969C6.71941 20.0058 6.75016 19.9951 6.76863 19.9712C7.19764 19.3854 7.58006 18.7676 7.90795 18.118C7.9273 18.08 7.90883 18.0348 7.86928 18.0198C7.2627 17.7897 6.6851 17.5091 6.1295 17.1906C6.08555 17.1649 6.08204 17.102 6.12247 17.0719C6.23938 16.9843 6.35634 16.8932 6.46798 16.8011C6.48818 16.7843 6.51632 16.7808 6.54007 16.7914C10.1901 18.4579 14.1418 18.4579 17.7488 16.7914C17.7725 16.7799 17.8007 16.7834 17.8218 16.8002C17.9334 16.8923 18.0504 16.9843 18.1681 17.0719C18.2086 17.102 18.2059 17.1649 18.162 17.1906C17.6064 17.5153 17.0288 17.7897 16.4213 18.0189C16.3818 18.034 16.3642 18.08 16.3835 18.118C16.7185 18.7667 17.1009 19.3845 17.522 19.9704C17.5396 19.9951 17.5712 20.0058 17.6002 19.9969C19.4226 19.4332 21.2705 18.5827 23.1782 17.1817C23.1949 17.1693 23.2055 17.1507 23.2072 17.1304C23.6723 12.3194 22.4283 8.14042 19.9097 4.43575C19.9035 4.42337 19.893 4.41452 19.8807 4.40921ZM8.45303 14.5957C7.35411 14.5957 6.44863 13.5868 6.44863 12.3478C6.44863 11.1087 7.33655 10.0998 8.45303 10.0998C9.57828 10.0998 10.475 11.1176 10.4574 12.3478C10.4574 13.5868 9.56948 14.5957 8.45303 14.5957ZM15.864 14.5957C14.7651 14.5957 13.8596 13.5868 13.8596 12.3478C13.8596 11.1087 14.7475 10.0998 15.864 10.0998C16.9892 10.0998 17.8859 11.1176 17.8684 12.3478C17.8684 13.5868 16.9892 14.5957 15.864 14.5957Z" fill="#525252"/>
</svg>
